<?xml version="1.0" encoding="utf-8" standalone="no"?>
<!DOCTYPE svg PUBLIC "-//W3C//DTD SVG 1.1//EN"
  "http://www.w3.org/Graphics/SVG/1.1/DTD/svg11.dtd">
<svg xmlns:xlink="http://www.w3.org/1999/xlink" width="1080pt" height="720pt" viewBox="0 0 1080 720" xmlns="http://www.w3.org/2000/svg" version="1.1">
 <metadata>
  <rdf:RDF xmlns:dc="http://purl.org/dc/elements/1.1/" xmlns:cc="http://creativecommons.org/ns#" xmlns:rdf="http://www.w3.org/1999/02/22-rdf-syntax-ns#">
   <cc:Work>
    <dc:type rdf:resource="http://purl.org/dc/dcmitype/StillImage"/>
    <dc:date>2026-04-21T14:38:29.652688</dc:date>
    <dc:format>image/svg+xml</dc:format>
    <dc:creator>
     <cc:Agent>
      <dc:title>Matplotlib v3.5.3, https://matplotlib.org/</dc:title>
     </cc:Agent>
    </dc:creator>
   </cc:Work>
  </rdf:RDF>
 </metadata>
 <defs>
  <style type="text/css">*{stroke-linejoin: round; stroke-linecap: butt}</style>
 </defs>
 <g id="figure_1">
  <g id="patch_1">
   <path d="M 0 720 
L 1080 720 
L 1080 0 
L 0 0 
z
" style="fill: #ffffff"/>
  </g>
  <g id="axes_1">
   <g id="patch_2">
    <path d="M 135 640.8 
L 972 640.8 
L 972 86.4 
L 135 86.4 
z
" style="fill: #ffffff"/>
   </g>
   <g id="matplotlib.axis_1">
    <g id="xtick_1">
     <g id="line2d_1">
      <path d="M 283.455095 640.8 
L 283.455095 86.4 
" clip-path="url(#p2db2493ef2)" style="fill: none; stroke: #b0b0b0; stroke-width: 0.25; stroke-linecap: square"/>
     </g>
     <g id="line2d_2">
      <defs>
       <path id="m40831508b5" d="M 0 0 
L 0 3.5 
" style="stroke: #000000; stroke-width: 0.8"/>
      </defs>
      <g>
       <use xlink:href="#m40831508b5" x="283.455095" y="640.8" style="stroke: #000000; stroke-width: 0.8"/>
      </g>
     </g>
     <g id="text_1">
      <!-- $\mathdefault{10^{0}}$ -->
      <g transform="translate(274.655095 655.398438)scale(0.1 -0.1)">
       <defs>
        <path id="DejaVuSans-31" d="M 794 531 
L 1825 531 
L 1825 4091 
L 703 3866 
L 703 4441 
L 1819 4666 
L 2450 4666 
L 2450 531 
L 3481 531 
L 3481 0 
L 794 0 
L 794 531 
z
" transform="scale(0.015625)"/>
        <path id="DejaVuSans-30" d="M 2034 4250 
Q 1547 4250 1301 3770 
Q 1056 3291 1056 2328 
Q 1056 1369 1301 889 
Q 1547 409 2034 409 
Q 2525 409 2770 889 
Q 3016 1369 3016 2328 
Q 3016 3291 2770 3770 
Q 2525 4250 2034 4250 
z
M 2034 4750 
Q 2819 4750 3233 4129 
Q 3647 3509 3647 2328 
Q 3647 1150 3233 529 
Q 2819 -91 2034 -91 
Q 1250 -91 836 529 
Q 422 1150 422 2328 
Q 422 3509 836 4129 
Q 1250 4750 2034 4750 
z
" transform="scale(0.015625)"/>
       </defs>
       <use xlink:href="#DejaVuSans-31" transform="translate(0 0.765625)"/>
       <use xlink:href="#DejaVuSans-30" transform="translate(63.623047 0.765625)"/>
       <use xlink:href="#DejaVuSans-30" transform="translate(128.203125 39.046875)scale(0.7)"/>
      </g>
     </g>
    </g>
    <g id="xtick_2">
     <g id="line2d_3">
      <path d="M 484.64399 640.8 
L 484.64399 86.4 
" clip-path="url(#p2db2493ef2)" style="fill: none; stroke: #b0b0b0; stroke-width: 0.25; stroke-linecap: square"/>
     </g>
     <g id="line2d_4">
      <g>
       <use xlink:href="#m40831508b5" x="484.64399" y="640.8" style="stroke: #000000; stroke-width: 0.8"/>
      </g>
     </g>
     <g id="text_2">
      <!-- $\mathdefault{10^{1}}$ -->
      <g transform="translate(475.84399 655.398438)scale(0.1 -0.1)">
       <use xlink:href="#DejaVuSans-31" transform="translate(0 0.684375)"/>
       <use xlink:href="#DejaVuSans-30" transform="translate(63.623047 0.684375)"/>
       <use xlink:href="#DejaVuSans-31" transform="translate(128.203125 38.965625)scale(0.7)"/>
      </g>
     </g>
    </g>
    <g id="xtick_3">
     <g id="line2d_5">
      <path d="M 685.832885 640.8 
L 685.832885 86.4 
" clip-path="url(#p2db2493ef2)" style="fill: none; stroke: #b0b0b0; stroke-width: 0.25; stroke-linecap: square"/>
     </g>
     <g id="line2d_6">
      <g>
       <use xlink:href="#m40831508b5" x="685.832885" y="640.8" style="stroke: #000000; stroke-width: 0.8"/>
      </g>
     </g>
     <g id="text_3">
      <!-- $\mathdefault{10^{2}}$ -->
      <g transform="translate(677.032885 655.398438)scale(0.1 -0.1)">
       <defs>
        <path id="DejaVuSans-32" d="M 1228 531 
L 3431 531 
L 3431 0 
L 469 0 
L 469 531 
Q 828 903 1448 1529 
Q 2069 2156 2228 2338 
Q 2531 2678 2651 2914 
Q 2772 3150 2772 3378 
Q 2772 3750 2511 3984 
Q 2250 4219 1831 4219 
Q 1534 4219 1204 4116 
Q 875 4013 500 3803 
L 500 4441 
Q 881 4594 1212 4672 
Q 1544 4750 1819 4750 
Q 2544 4750 2975 4387 
Q 3406 4025 3406 3419 
Q 3406 3131 3298 2873 
Q 3191 2616 2906 2266 
Q 2828 2175 2409 1742 
Q 1991 1309 1228 531 
z
" transform="scale(0.015625)"/>
       </defs>
       <use xlink:href="#DejaVuSans-31" transform="translate(0 0.765625)"/>
       <use xlink:href="#DejaVuSans-30" transform="translate(63.623047 0.765625)"/>
       <use xlink:href="#DejaVuSans-32" transform="translate(128.203125 39.046875)scale(0.7)"/>
      </g>
     </g>
    </g>
    <g id="xtick_4">
     <g id="line2d_7">
      <path d="M 887.02178 640.8 
L 887.02178 86.4 
" clip-path="url(#p2db2493ef2)" style="fill: none; stroke: #b0b0b0; stroke-width: 0.25; stroke-linecap: square"/>
     </g>
     <g id="line2d_8">
      <g>
       <use xlink:href="#m40831508b5" x="887.02178" y="640.8" style="stroke: #000000; stroke-width: 0.8"/>
      </g>
     </g>
     <g id="text_4">
      <!-- $\mathdefault{10^{3}}$ -->
      <g transform="translate(878.22178 655.398438)scale(0.1 -0.1)">
       <defs>
        <path id="DejaVuSans-33" d="M 2597 2516 
Q 3050 2419 3304 2112 
Q 3559 1806 3559 1356 
Q 3559 666 3084 287 
Q 2609 -91 1734 -91 
Q 1441 -91 1130 -33 
Q 819 25 488 141 
L 488 750 
Q 750 597 1062 519 
Q 1375 441 1716 441 
Q 2309 441 2620 675 
Q 2931 909 2931 1356 
Q 2931 1769 2642 2001 
Q 2353 2234 1838 2234 
L 1294 2234 
L 1294 2753 
L 1863 2753 
Q 2328 2753 2575 2939 
Q 2822 3125 2822 3475 
Q 2822 3834 2567 4026 
Q 2313 4219 1838 4219 
Q 1578 4219 1281 4162 
Q 984 4106 628 3988 
L 628 4550 
Q 988 4650 1302 4700 
Q 1616 4750 1894 4750 
Q 2613 4750 3031 4423 
Q 3450 4097 3450 3541 
Q 3450 3153 3228 2886 
Q 3006 2619 2597 2516 
z
" transform="scale(0.015625)"/>
       </defs>
       <use xlink:href="#DejaVuSans-31" transform="translate(0 0.765625)"/>
       <use xlink:href="#DejaVuSans-30" transform="translate(63.623047 0.765625)"/>
       <use xlink:href="#DejaVuSans-33" transform="translate(128.203125 39.046875)scale(0.7)"/>
      </g>
     </g>
    </g>
    <g id="xtick_5">
     <g id="line2d_9">
      <defs>
       <path id="m19998e3dd6" d="M 0 0 
L 0 2 
" style="stroke: #000000; stroke-width: 0.6"/>
      </defs>
      <g>
       <use xlink:href="#m19998e3dd6" x="142.830092" y="640.8" style="stroke: #000000; stroke-width: 0.6"/>
      </g>
     </g>
    </g>
    <g id="xtick_6">
     <g id="line2d_10">
      <g>
       <use xlink:href="#m19998e3dd6" x="178.257697" y="640.8" style="stroke: #000000; stroke-width: 0.6"/>
      </g>
     </g>
    </g>
    <g id="xtick_7">
     <g id="line2d_11">
      <g>
       <use xlink:href="#m19998e3dd6" x="203.393984" y="640.8" style="stroke: #000000; stroke-width: 0.6"/>
      </g>
     </g>
    </g>
    <g id="xtick_8">
     <g id="line2d_12">
      <g>
       <use xlink:href="#m19998e3dd6" x="222.891202" y="640.8" style="stroke: #000000; stroke-width: 0.6"/>
      </g>
     </g>
    </g>
    <g id="xtick_9">
     <g id="line2d_13">
      <g>
       <use xlink:href="#m19998e3dd6" x="238.82159" y="640.8" style="stroke: #000000; stroke-width: 0.6"/>
      </g>
     </g>
    </g>
    <g id="xtick_10">
     <g id="line2d_14">
      <g>
       <use xlink:href="#m19998e3dd6" x="252.29054" y="640.8" style="stroke: #000000; stroke-width: 0.6"/>
      </g>
     </g>
    </g>
    <g id="xtick_11">
     <g id="line2d_15">
      <g>
       <use xlink:href="#m19998e3dd6" x="263.957876" y="640.8" style="stroke: #000000; stroke-width: 0.6"/>
      </g>
     </g>
    </g>
    <g id="xtick_12">
     <g id="line2d_16">
      <g>
       <use xlink:href="#m19998e3dd6" x="274.249196" y="640.8" style="stroke: #000000; stroke-width: 0.6"/>
      </g>
     </g>
    </g>
    <g id="xtick_13">
     <g id="line2d_17">
      <g>
       <use xlink:href="#m19998e3dd6" x="344.018987" y="640.8" style="stroke: #000000; stroke-width: 0.6"/>
      </g>
     </g>
    </g>
    <g id="xtick_14">
     <g id="line2d_18">
      <g>
       <use xlink:href="#m19998e3dd6" x="379.446593" y="640.8" style="stroke: #000000; stroke-width: 0.6"/>
      </g>
     </g>
    </g>
    <g id="xtick_15">
     <g id="line2d_19">
      <g>
       <use xlink:href="#m19998e3dd6" x="404.582879" y="640.8" style="stroke: #000000; stroke-width: 0.6"/>
      </g>
     </g>
    </g>
    <g id="xtick_16">
     <g id="line2d_20">
      <g>
       <use xlink:href="#m19998e3dd6" x="424.080097" y="640.8" style="stroke: #000000; stroke-width: 0.6"/>
      </g>
     </g>
    </g>
    <g id="xtick_17">
     <g id="line2d_21">
      <g>
       <use xlink:href="#m19998e3dd6" x="440.010485" y="640.8" style="stroke: #000000; stroke-width: 0.6"/>
      </g>
     </g>
    </g>
    <g id="xtick_18">
     <g id="line2d_22">
      <g>
       <use xlink:href="#m19998e3dd6" x="453.479436" y="640.8" style="stroke: #000000; stroke-width: 0.6"/>
      </g>
     </g>
    </g>
    <g id="xtick_19">
     <g id="line2d_23">
      <g>
       <use xlink:href="#m19998e3dd6" x="465.146771" y="640.8" style="stroke: #000000; stroke-width: 0.6"/>
      </g>
     </g>
    </g>
    <g id="xtick_20">
     <g id="line2d_24">
      <g>
       <use xlink:href="#m19998e3dd6" x="475.438091" y="640.8" style="stroke: #000000; stroke-width: 0.6"/>
      </g>
     </g>
    </g>
    <g id="xtick_21">
     <g id="line2d_25">
      <g>
       <use xlink:href="#m19998e3dd6" x="545.207882" y="640.8" style="stroke: #000000; stroke-width: 0.6"/>
      </g>
     </g>
    </g>
    <g id="xtick_22">
     <g id="line2d_26">
      <g>
       <use xlink:href="#m19998e3dd6" x="580.635488" y="640.8" style="stroke: #000000; stroke-width: 0.6"/>
      </g>
     </g>
    </g>
    <g id="xtick_23">
     <g id="line2d_27">
      <g>
       <use xlink:href="#m19998e3dd6" x="605.771774" y="640.8" style="stroke: #000000; stroke-width: 0.6"/>
      </g>
     </g>
    </g>
    <g id="xtick_24">
     <g id="line2d_28">
      <g>
       <use xlink:href="#m19998e3dd6" x="625.268993" y="640.8" style="stroke: #000000; stroke-width: 0.6"/>
      </g>
     </g>
    </g>
    <g id="xtick_25">
     <g id="line2d_29">
      <g>
       <use xlink:href="#m19998e3dd6" x="641.19938" y="640.8" style="stroke: #000000; stroke-width: 0.6"/>
      </g>
     </g>
    </g>
    <g id="xtick_26">
     <g id="line2d_30">
      <g>
       <use xlink:href="#m19998e3dd6" x="654.668331" y="640.8" style="stroke: #000000; stroke-width: 0.6"/>
      </g>
     </g>
    </g>
    <g id="xtick_27">
     <g id="line2d_31">
      <g>
       <use xlink:href="#m19998e3dd6" x="666.335666" y="640.8" style="stroke: #000000; stroke-width: 0.6"/>
      </g>
     </g>
    </g>
    <g id="xtick_28">
     <g id="line2d_32">
      <g>
       <use xlink:href="#m19998e3dd6" x="676.626986" y="640.8" style="stroke: #000000; stroke-width: 0.6"/>
      </g>
     </g>
    </g>
    <g id="xtick_29">
     <g id="line2d_33">
      <g>
       <use xlink:href="#m19998e3dd6" x="746.396777" y="640.8" style="stroke: #000000; stroke-width: 0.6"/>
      </g>
     </g>
    </g>
    <g id="xtick_30">
     <g id="line2d_34">
      <g>
       <use xlink:href="#m19998e3dd6" x="781.824383" y="640.8" style="stroke: #000000; stroke-width: 0.6"/>
      </g>
     </g>
    </g>
    <g id="xtick_31">
     <g id="line2d_35">
      <g>
       <use xlink:href="#m19998e3dd6" x="806.960669" y="640.8" style="stroke: #000000; stroke-width: 0.6"/>
      </g>
     </g>
    </g>
    <g id="xtick_32">
     <g id="line2d_36">
      <g>
       <use xlink:href="#m19998e3dd6" x="826.457888" y="640.8" style="stroke: #000000; stroke-width: 0.6"/>
      </g>
     </g>
    </g>
    <g id="xtick_33">
     <g id="line2d_37">
      <g>
       <use xlink:href="#m19998e3dd6" x="842.388275" y="640.8" style="stroke: #000000; stroke-width: 0.6"/>
      </g>
     </g>
    </g>
    <g id="xtick_34">
     <g id="line2d_38">
      <g>
       <use xlink:href="#m19998e3dd6" x="855.857226" y="640.8" style="stroke: #000000; stroke-width: 0.6"/>
      </g>
     </g>
    </g>
    <g id="xtick_35">
     <g id="line2d_39">
      <g>
       <use xlink:href="#m19998e3dd6" x="867.524562" y="640.8" style="stroke: #000000; stroke-width: 0.6"/>
      </g>
     </g>
    </g>
    <g id="xtick_36">
     <g id="line2d_40">
      <g>
       <use xlink:href="#m19998e3dd6" x="877.815881" y="640.8" style="stroke: #000000; stroke-width: 0.6"/>
      </g>
     </g>
    </g>
    <g id="xtick_37">
     <g id="line2d_41">
      <g>
       <use xlink:href="#m19998e3dd6" x="947.585672" y="640.8" style="stroke: #000000; stroke-width: 0.6"/>
      </g>
     </g>
    </g>
    <g id="text_5">
     <!-- parameter $\kappa$ -->
     <g transform="translate(522.55 669.05625)scale(0.1 -0.1)">
      <defs>
       <path id="DejaVuSans-70" d="M 1159 525 
L 1159 -1331 
L 581 -1331 
L 581 3500 
L 1159 3500 
L 1159 2969 
Q 1341 3281 1617 3432 
Q 1894 3584 2278 3584 
Q 2916 3584 3314 3078 
Q 3713 2572 3713 1747 
Q 3713 922 3314 415 
Q 2916 -91 2278 -91 
Q 1894 -91 1617 61 
Q 1341 213 1159 525 
z
M 3116 1747 
Q 3116 2381 2855 2742 
Q 2594 3103 2138 3103 
Q 1681 3103 1420 2742 
Q 1159 2381 1159 1747 
Q 1159 1113 1420 752 
Q 1681 391 2138 391 
Q 2594 391 2855 752 
Q 3116 1113 3116 1747 
z
" transform="scale(0.015625)"/>
       <path id="DejaVuSans-61" d="M 2194 1759 
Q 1497 1759 1228 1600 
Q 959 1441 959 1056 
Q 959 750 1161 570 
Q 1363 391 1709 391 
Q 2188 391 2477 730 
Q 2766 1069 2766 1631 
L 2766 1759 
L 2194 1759 
z
M 3341 1997 
L 3341 0 
L 2766 0 
L 2766 531 
Q 2569 213 2275 61 
Q 1981 -91 1556 -91 
Q 1019 -91 701 211 
Q 384 513 384 1019 
Q 384 1609 779 1909 
Q 1175 2209 1959 2209 
L 2766 2209 
L 2766 2266 
Q 2766 2663 2505 2880 
Q 2244 3097 1772 3097 
Q 1472 3097 1187 3025 
Q 903 2953 641 2809 
L 641 3341 
Q 956 3463 1253 3523 
Q 1550 3584 1831 3584 
Q 2591 3584 2966 3190 
Q 3341 2797 3341 1997 
z
" transform="scale(0.015625)"/>
       <path id="DejaVuSans-72" d="M 2631 2963 
Q 2534 3019 2420 3045 
Q 2306 3072 2169 3072 
Q 1681 3072 1420 2755 
Q 1159 2438 1159 1844 
L 1159 0 
L 581 0 
L 581 3500 
L 1159 3500 
L 1159 2956 
Q 1341 3275 1631 3429 
Q 1922 3584 2338 3584 
Q 2397 3584 2469 3576 
Q 2541 3569 2628 3553 
L 2631 2963 
z
" transform="scale(0.015625)"/>
       <path id="DejaVuSans-6d" d="M 3328 2828 
Q 3544 3216 3844 3400 
Q 4144 3584 4550 3584 
Q 5097 3584 5394 3201 
Q 5691 2819 5691 2113 
L 5691 0 
L 5113 0 
L 5113 2094 
Q 5113 2597 4934 2840 
Q 4756 3084 4391 3084 
Q 3944 3084 3684 2787 
Q 3425 2491 3425 1978 
L 3425 0 
L 2847 0 
L 2847 2094 
Q 2847 2600 2669 2842 
Q 2491 3084 2119 3084 
Q 1678 3084 1418 2786 
Q 1159 2488 1159 1978 
L 1159 0 
L 581 0 
L 581 3500 
L 1159 3500 
L 1159 2956 
Q 1356 3278 1631 3431 
Q 1906 3584 2284 3584 
Q 2666 3584 2933 3390 
Q 3200 3197 3328 2828 
z
" transform="scale(0.015625)"/>
       <path id="DejaVuSans-65" d="M 3597 1894 
L 3597 1613 
L 953 1613 
Q 991 1019 1311 708 
Q 1631 397 2203 397 
Q 2534 397 2845 478 
Q 3156 559 3463 722 
L 3463 178 
Q 3153 47 2828 -22 
Q 2503 -91 2169 -91 
Q 1331 -91 842 396 
Q 353 884 353 1716 
Q 353 2575 817 3079 
Q 1281 3584 2069 3584 
Q 2775 3584 3186 3129 
Q 3597 2675 3597 1894 
z
M 3022 2063 
Q 3016 2534 2758 2815 
Q 2500 3097 2075 3097 
Q 1594 3097 1305 2825 
Q 1016 2553 972 2059 
L 3022 2063 
z
" transform="scale(0.015625)"/>
       <path id="DejaVuSans-74" d="M 1172 4494 
L 1172 3500 
L 2356 3500 
L 2356 3053 
L 1172 3053 
L 1172 1153 
Q 1172 725 1289 603 
Q 1406 481 1766 481 
L 2356 481 
L 2356 0 
L 1766 0 
Q 1100 0 847 248 
Q 594 497 594 1153 
L 594 3053 
L 172 3053 
L 172 3500 
L 594 3500 
L 594 4494 
L 1172 4494 
z
" transform="scale(0.015625)"/>
       <path id="DejaVuSans-20" transform="scale(0.015625)"/>
       <path id="DejaVuSans-Oblique-3ba" d="M 938 3500 
L 1531 3500 
L 1247 2047 
L 3041 3500 
L 3741 3500 
L 2106 2181 
L 3275 0 
L 2572 0 
L 1628 1806 
L 1122 1403 
L 850 0 
L 256 0 
L 938 3500 
z
" transform="scale(0.015625)"/>
      </defs>
      <use xlink:href="#DejaVuSans-70" transform="translate(0 0.78125)"/>
      <use xlink:href="#DejaVuSans-61" transform="translate(63.476562 0.78125)"/>
      <use xlink:href="#DejaVuSans-72" transform="translate(124.755859 0.78125)"/>
      <use xlink:href="#DejaVuSans-61" transform="translate(165.869141 0.78125)"/>
      <use xlink:href="#DejaVuSans-6d" transform="translate(227.148438 0.78125)"/>
      <use xlink:href="#DejaVuSans-65" transform="translate(324.560547 0.78125)"/>
      <use xlink:href="#DejaVuSans-74" transform="translate(386.083984 0.78125)"/>
      <use xlink:href="#DejaVuSans-65" transform="translate(425.292969 0.78125)"/>
      <use xlink:href="#DejaVuSans-72" transform="translate(486.816406 0.78125)"/>
      <use xlink:href="#DejaVuSans-20" transform="translate(527.929688 0.78125)"/>
      <use xlink:href="#DejaVuSans-Oblique-3ba" transform="translate(559.716797 0.78125)"/>
     </g>
    </g>
   </g>
   <g id="matplotlib.axis_2">
    <g id="ytick_1">
     <g id="line2d_42">
      <path d="M 135 575.985272 
L 972 575.985272 
" clip-path="url(#p2db2493ef2)" style="fill: none; stroke: #b0b0b0; stroke-width: 0.25; stroke-linecap: square"/>
     </g>
     <g id="line2d_43">
      <defs>
       <path id="m531beb945e" d="M 0 0 
L -3.5 0 
" style="stroke: #000000; stroke-width: 0.8"/>
      </defs>
      <g>
       <use xlink:href="#m531beb945e" x="135" y="575.985272" style="stroke: #000000; stroke-width: 0.8"/>
      </g>
     </g>
     <g id="text_6">
      <!-- $\mathdefault{10^{-6}}$ -->
      <g transform="translate(104.5 579.78449)scale(0.1 -0.1)">
       <defs>
        <path id="DejaVuSans-2212" d="M 678 2272 
L 4684 2272 
L 4684 1741 
L 678 1741 
L 678 2272 
z
" transform="scale(0.015625)"/>
        <path id="DejaVuSans-36" d="M 2113 2584 
Q 1688 2584 1439 2293 
Q 1191 2003 1191 1497 
Q 1191 994 1439 701 
Q 1688 409 2113 409 
Q 2538 409 2786 701 
Q 3034 994 3034 1497 
Q 3034 2003 2786 2293 
Q 2538 2584 2113 2584 
z
M 3366 4563 
L 3366 3988 
Q 3128 4100 2886 4159 
Q 2644 4219 2406 4219 
Q 1781 4219 1451 3797 
Q 1122 3375 1075 2522 
Q 1259 2794 1537 2939 
Q 1816 3084 2150 3084 
Q 2853 3084 3261 2657 
Q 3669 2231 3669 1497 
Q 3669 778 3244 343 
Q 2819 -91 2113 -91 
Q 1303 -91 875 529 
Q 447 1150 447 2328 
Q 447 3434 972 4092 
Q 1497 4750 2381 4750 
Q 2619 4750 2861 4703 
Q 3103 4656 3366 4563 
z
" transform="scale(0.015625)"/>
       </defs>
       <use xlink:href="#DejaVuSans-31" transform="translate(0 0.765625)"/>
       <use xlink:href="#DejaVuSans-30" transform="translate(63.623047 0.765625)"/>
       <use xlink:href="#DejaVuSans-2212" transform="translate(128.203125 39.046875)scale(0.7)"/>
       <use xlink:href="#DejaVuSans-36" transform="translate(186.855469 39.046875)scale(0.7)"/>
      </g>
     </g>
    </g>
    <g id="ytick_2">
     <g id="line2d_44">
      <path d="M 135 466.405889 
L 972 466.405889 
" clip-path="url(#p2db2493ef2)" style="fill: none; stroke: #b0b0b0; stroke-width: 0.25; stroke-linecap: square"/>
     </g>
     <g id="line2d_45">
      <g>
       <use xlink:href="#m531beb945e" x="135" y="466.405889" style="stroke: #000000; stroke-width: 0.8"/>
      </g>
     </g>
     <g id="text_7">
      <!-- $\mathdefault{10^{-4}}$ -->
      <g transform="translate(104.5 470.205108)scale(0.1 -0.1)">
       <defs>
        <path id="DejaVuSans-34" d="M 2419 4116 
L 825 1625 
L 2419 1625 
L 2419 4116 
z
M 2253 4666 
L 3047 4666 
L 3047 1625 
L 3713 1625 
L 3713 1100 
L 3047 1100 
L 3047 0 
L 2419 0 
L 2419 1100 
L 313 1100 
L 313 1709 
L 2253 4666 
z
" transform="scale(0.015625)"/>
       </defs>
       <use xlink:href="#DejaVuSans-31" transform="translate(0 0.684375)"/>
       <use xlink:href="#DejaVuSans-30" transform="translate(63.623047 0.684375)"/>
       <use xlink:href="#DejaVuSans-2212" transform="translate(128.203125 38.965625)scale(0.7)"/>
       <use xlink:href="#DejaVuSans-34" transform="translate(186.855469 38.965625)scale(0.7)"/>
      </g>
     </g>
    </g>
    <g id="ytick_3">
     <g id="line2d_46">
      <path d="M 135 356.826507 
L 972 356.826507 
" clip-path="url(#p2db2493ef2)" style="fill: none; stroke: #b0b0b0; stroke-width: 0.25; stroke-linecap: square"/>
     </g>
     <g id="line2d_47">
      <g>
       <use xlink:href="#m531beb945e" x="135" y="356.826507" style="stroke: #000000; stroke-width: 0.8"/>
      </g>
     </g>
     <g id="text_8">
      <!-- $\mathdefault{10^{-2}}$ -->
      <g transform="translate(104.5 360.625725)scale(0.1 -0.1)">
       <use xlink:href="#DejaVuSans-31" transform="translate(0 0.765625)"/>
       <use xlink:href="#DejaVuSans-30" transform="translate(63.623047 0.765625)"/>
       <use xlink:href="#DejaVuSans-2212" transform="translate(128.203125 39.046875)scale(0.7)"/>
       <use xlink:href="#DejaVuSans-32" transform="translate(186.855469 39.046875)scale(0.7)"/>
      </g>
     </g>
    </g>
    <g id="ytick_4">
     <g id="line2d_48">
      <path d="M 135 247.247124 
L 972 247.247124 
" clip-path="url(#p2db2493ef2)" style="fill: none; stroke: #b0b0b0; stroke-width: 0.25; stroke-linecap: square"/>
     </g>
     <g id="line2d_49">
      <g>
       <use xlink:href="#m531beb945e" x="135" y="247.247124" style="stroke: #000000; stroke-width: 0.8"/>
      </g>
     </g>
     <g id="text_9">
      <!-- $\mathdefault{10^{0}}$ -->
      <g transform="translate(110.4 251.046343)scale(0.1 -0.1)">
       <use xlink:href="#DejaVuSans-31" transform="translate(0 0.765625)"/>
       <use xlink:href="#DejaVuSans-30" transform="translate(63.623047 0.765625)"/>
       <use xlink:href="#DejaVuSans-30" transform="translate(128.203125 39.046875)scale(0.7)"/>
      </g>
     </g>
    </g>
    <g id="ytick_5">
     <g id="line2d_50">
      <path d="M 135 137.667742 
L 972 137.667742 
" clip-path="url(#p2db2493ef2)" style="fill: none; stroke: #b0b0b0; stroke-width: 0.25; stroke-linecap: square"/>
     </g>
     <g id="line2d_51">
      <g>
       <use xlink:href="#m531beb945e" x="135" y="137.667742" style="stroke: #000000; stroke-width: 0.8"/>
      </g>
     </g>
     <g id="text_10">
      <!-- $\mathdefault{10^{2}}$ -->
      <g transform="translate(110.4 141.46696)scale(0.1 -0.1)">
       <use xlink:href="#DejaVuSans-31" transform="translate(0 0.765625)"/>
       <use xlink:href="#DejaVuSans-30" transform="translate(63.623047 0.765625)"/>
       <use xlink:href="#DejaVuSans-32" transform="translate(128.203125 39.046875)scale(0.7)"/>
      </g>
     </g>
    </g>
    <g id="text_11">
     <!-- sensitivity $\mathcal{S}\,(\mu)$ -->
     <g transform="translate(87.18 401.75)rotate(-90)scale(0.1 -0.1)">
      <defs>
       <path id="DejaVuSans-73" d="M 2834 3397 
L 2834 2853 
Q 2591 2978 2328 3040 
Q 2066 3103 1784 3103 
Q 1356 3103 1142 2972 
Q 928 2841 928 2578 
Q 928 2378 1081 2264 
Q 1234 2150 1697 2047 
L 1894 2003 
Q 2506 1872 2764 1633 
Q 3022 1394 3022 966 
Q 3022 478 2636 193 
Q 2250 -91 1575 -91 
Q 1294 -91 989 -36 
Q 684 19 347 128 
L 347 722 
Q 666 556 975 473 
Q 1284 391 1588 391 
Q 1994 391 2212 530 
Q 2431 669 2431 922 
Q 2431 1156 2273 1281 
Q 2116 1406 1581 1522 
L 1381 1569 
Q 847 1681 609 1914 
Q 372 2147 372 2553 
Q 372 3047 722 3315 
Q 1072 3584 1716 3584 
Q 2034 3584 2315 3537 
Q 2597 3491 2834 3397 
z
" transform="scale(0.015625)"/>
       <path id="DejaVuSans-6e" d="M 3513 2113 
L 3513 0 
L 2938 0 
L 2938 2094 
Q 2938 2591 2744 2837 
Q 2550 3084 2163 3084 
Q 1697 3084 1428 2787 
Q 1159 2491 1159 1978 
L 1159 0 
L 581 0 
L 581 3500 
L 1159 3500 
L 1159 2956 
Q 1366 3272 1645 3428 
Q 1925 3584 2291 3584 
Q 2894 3584 3203 3211 
Q 3513 2838 3513 2113 
z
" transform="scale(0.015625)"/>
       <path id="DejaVuSans-69" d="M 603 3500 
L 1178 3500 
L 1178 0 
L 603 0 
L 603 3500 
z
M 603 4863 
L 1178 4863 
L 1178 4134 
L 603 4134 
L 603 4863 
z
" transform="scale(0.015625)"/>
       <path id="DejaVuSans-76" d="M 191 3500 
L 800 3500 
L 1894 563 
L 2988 3500 
L 3597 3500 
L 2284 0 
L 1503 0 
L 191 3500 
z
" transform="scale(0.015625)"/>
       <path id="DejaVuSans-79" d="M 2059 -325 
Q 1816 -950 1584 -1140 
Q 1353 -1331 966 -1331 
L 506 -1331 
L 506 -850 
L 844 -850 
Q 1081 -850 1212 -737 
Q 1344 -625 1503 -206 
L 1606 56 
L 191 3500 
L 800 3500 
L 1894 763 
L 2988 3500 
L 3597 3500 
L 2059 -325 
z
" transform="scale(0.015625)"/>
       <path id="STIXNonUnicode-Italic-e23f" d="M 243 1235 
L 410 1254 
Q 518 582 1139 365 
Q 1421 262 1766 262 
Q 2304 262 2685 515 
Q 3066 768 3066 1235 
Q 3066 1427 2883 1571 
Q 2701 1715 2445 1817 
Q 2189 1920 1929 2045 
Q 1670 2170 1488 2403 
Q 1306 2637 1306 2970 
Q 1306 3290 1507 3555 
Q 1709 3821 2000 3974 
Q 2291 4128 2572 4211 
Q 2854 4294 3059 4294 
Q 3603 4294 3948 4134 
Q 4294 3974 4294 3642 
Q 4294 3462 4182 3299 
Q 4070 3136 3853 3136 
Q 3712 3136 3603 3232 
Q 3494 3328 3494 3456 
Q 3494 3603 3590 3708 
Q 3686 3814 3686 3840 
Q 3686 3917 3628 3965 
Q 3571 4013 3456 4032 
Q 3341 4051 3264 4054 
Q 3187 4058 3059 4058 
Q 2931 4058 2745 4010 
Q 2560 3962 2352 3866 
Q 2144 3770 2000 3581 
Q 1856 3392 1856 3155 
Q 1856 2931 2057 2771 
Q 2259 2611 2550 2502 
Q 2842 2394 3133 2269 
Q 3424 2144 3625 1920 
Q 3827 1696 3827 1376 
Q 3827 902 3206 451 
Q 2586 0 1805 0 
Q 992 0 617 339 
Q 243 678 243 1235 
z
" transform="scale(0.015625)"/>
       <path id="DejaVuSans-28" d="M 1984 4856 
Q 1566 4138 1362 3434 
Q 1159 2731 1159 2009 
Q 1159 1288 1364 580 
Q 1569 -128 1984 -844 
L 1484 -844 
Q 1016 -109 783 600 
Q 550 1309 550 2009 
Q 550 2706 781 3412 
Q 1013 4119 1484 4856 
L 1984 4856 
z
" transform="scale(0.015625)"/>
       <path id="DejaVuSans-Oblique-3bc" d="M -84 -1331 
L 856 3500 
L 1434 3500 
L 1009 1322 
Q 997 1256 987 1175 
Q 978 1094 978 1013 
Q 978 722 1161 565 
Q 1344 409 1684 409 
Q 2147 409 2431 671 
Q 2716 934 2816 1459 
L 3213 3500 
L 3788 3500 
L 3266 809 
Q 3253 750 3248 706 
Q 3244 663 3244 628 
Q 3244 531 3283 486 
Q 3322 441 3406 441 
Q 3438 441 3492 456 
Q 3547 472 3647 513 
L 3559 50 
Q 3422 -19 3297 -55 
Q 3172 -91 3053 -91 
Q 2847 -91 2730 40 
Q 2613 172 2613 403 
Q 2438 153 2195 31 
Q 1953 -91 1625 -91 
Q 1334 -91 1117 43 
Q 900 178 831 397 
L 494 -1331 
L -84 -1331 
z
" transform="scale(0.015625)"/>
       <path id="DejaVuSans-29" d="M 513 4856 
L 1013 4856 
Q 1481 4119 1714 3412 
Q 1947 2706 1947 2009 
Q 1947 1309 1714 600 
Q 1481 -109 1013 -844 
L 513 -844 
Q 928 -128 1133 580 
Q 1338 1288 1338 2009 
Q 1338 2731 1133 3434 
Q 928 4138 513 4856 
z
" transform="scale(0.015625)"/>
      </defs>
      <use xlink:href="#DejaVuSans-73" transform="translate(0 0.015625)"/>
      <use xlink:href="#DejaVuSans-65" transform="translate(52.099609 0.015625)"/>
      <use xlink:href="#DejaVuSans-6e" transform="translate(113.623047 0.015625)"/>
      <use xlink:href="#DejaVuSans-73" transform="translate(177.001953 0.015625)"/>
      <use xlink:href="#DejaVuSans-69" transform="translate(229.101562 0.015625)"/>
      <use xlink:href="#DejaVuSans-74" transform="translate(256.884766 0.015625)"/>
      <use xlink:href="#DejaVuSans-69" transform="translate(296.09375 0.015625)"/>
      <use xlink:href="#DejaVuSans-76" transform="translate(323.876953 0.015625)"/>
      <use xlink:href="#DejaVuSans-69" transform="translate(383.056641 0.015625)"/>
      <use xlink:href="#DejaVuSans-74" transform="translate(410.839844 0.015625)"/>
      <use xlink:href="#DejaVuSans-79" transform="translate(450.048828 0.015625)"/>
      <use xlink:href="#DejaVuSans-20" transform="translate(509.228516 0.015625)"/>
      <use xlink:href="#STIXNonUnicode-Italic-e23f" transform="translate(541.015625 0.015625)"/>
      <use xlink:href="#DejaVuSans-28" transform="translate(620.651295 0.015625)"/>
      <use xlink:href="#DejaVuSans-Oblique-3bc" transform="translate(659.664967 0.015625)"/>
      <use xlink:href="#DejaVuSans-29" transform="translate(723.288014 0.015625)"/>
     </g>
     <!-- elasticity $\mathcal{E}\,(\mu)$ -->
     <g transform="translate(98.4 398.4)rotate(-90)scale(0.1 -0.1)">
      <defs>
       <path id="DejaVuSans-6c" d="M 603 4863 
L 1178 4863 
L 1178 0 
L 603 0 
L 603 4863 
z
" transform="scale(0.015625)"/>
       <path id="DejaVuSans-63" d="M 3122 3366 
L 3122 2828 
Q 2878 2963 2633 3030 
Q 2388 3097 2138 3097 
Q 1578 3097 1268 2742 
Q 959 2388 959 1747 
Q 959 1106 1268 751 
Q 1578 397 2138 397 
Q 2388 397 2633 464 
Q 2878 531 3122 666 
L 3122 134 
Q 2881 22 2623 -34 
Q 2366 -91 2075 -91 
Q 1284 -91 818 406 
Q 353 903 353 1747 
Q 353 2603 823 3093 
Q 1294 3584 2113 3584 
Q 2378 3584 2631 3529 
Q 2884 3475 3122 3366 
z
" transform="scale(0.015625)"/>
       <path id="STIXNonUnicode-Italic-e231" d="M 3270 973 
L 3373 858 
Q 2893 346 2272 128 
Q 1856 -26 1331 -26 
Q 896 -26 576 169 
Q 256 365 256 736 
Q 256 1267 659 1651 
Q 1062 2035 1619 2259 
Q 1485 2323 1414 2368 
Q 1344 2413 1257 2493 
Q 1171 2573 1132 2688 
Q 1094 2803 1094 2963 
Q 1094 3309 1401 3629 
Q 1709 3949 2112 4118 
Q 2515 4288 2848 4288 
Q 3296 4288 3565 4128 
Q 3834 3968 3834 3654 
Q 3834 3514 3718 3338 
Q 3603 3162 3373 3162 
Q 3238 3162 3132 3251 
Q 3027 3341 3027 3475 
Q 3027 3622 3123 3731 
Q 3219 3840 3219 3859 
Q 3219 3981 3148 4029 
Q 3078 4077 2918 4077 
Q 2432 4077 2038 3792 
Q 1645 3507 1645 3155 
Q 1645 2893 1881 2742 
Q 2118 2592 2502 2592 
L 2938 2592 
L 2880 2349 
Q 2605 2349 2275 2243 
Q 1946 2138 1645 1958 
Q 1344 1779 1142 1494 
Q 941 1210 941 896 
Q 941 614 1155 467 
Q 1370 320 1741 320 
Q 2131 320 2576 515 
Q 3021 710 3270 973 
z
" transform="scale(0.015625)"/>
      </defs>
      <use xlink:href="#DejaVuSans-65" transform="translate(0 0.015625)"/>
      <use xlink:href="#DejaVuSans-6c" transform="translate(61.523438 0.015625)"/>
      <use xlink:href="#DejaVuSans-61" transform="translate(89.306641 0.015625)"/>
      <use xlink:href="#DejaVuSans-73" transform="translate(150.585938 0.015625)"/>
      <use xlink:href="#DejaVuSans-74" transform="translate(202.685547 0.015625)"/>
      <use xlink:href="#DejaVuSans-69" transform="translate(241.894531 0.015625)"/>
      <use xlink:href="#DejaVuSans-63" transform="translate(269.677734 0.015625)"/>
      <use xlink:href="#DejaVuSans-69" transform="translate(324.658203 0.015625)"/>
      <use xlink:href="#DejaVuSans-74" transform="translate(352.441406 0.015625)"/>
      <use xlink:href="#DejaVuSans-79" transform="translate(391.650391 0.015625)"/>
      <use xlink:href="#DejaVuSans-20" transform="translate(450.830078 0.015625)"/>
      <use xlink:href="#STIXNonUnicode-Italic-e231" transform="translate(482.617188 0.015625)"/>
      <use xlink:href="#DejaVuSans-28" transform="translate(554.152852 0.015625)"/>
      <use xlink:href="#DejaVuSans-Oblique-3bc" transform="translate(593.166523 0.015625)"/>
      <use xlink:href="#DejaVuSans-29" transform="translate(656.78957 0.015625)"/>
     </g>
    </g>
   </g>
   <g id="line2d_52">
    <path d="M 135 159.720251 
L 169.882319 178.719227 
L 196.519391 193.227353 
L 218.398526 205.144025 
L 237.184628 215.376048 
L 253.803447 224.427641 
L 268.823174 232.608273 
L 282.617698 240.121588 
L 295.446158 247.108726 
L 307.495529 253.671527 
L 318.90512 259.885866 
L 329.781481 265.809776 
L 340.207897 271.48862 
L 350.25068 276.958514 
L 359.963458 282.248668 
L 369.390196 287.383027 
L 378.567359 292.381453 
L 387.525513 297.260594 
L 396.290506 302.034528 
L 404.884378 306.71526 
L 413.326057 311.313098 
L 421.631902 315.836953 
L 429.816135 320.29457 
L 437.891184 324.69272 
L 445.867961 329.037345 
L 453.756089 333.333686 
L 461.564083 337.586382 
L 469.299508 341.799553 
L 476.969107 345.97687 
L 484.578903 350.121616 
L 492.134296 354.23673 
L 499.640134 358.324854 
L 507.100785 362.388366 
L 514.520186 366.429411 
L 521.901897 370.449928 
L 529.24914 374.451672 
L 536.564839 378.436234 
L 543.851646 382.40506 
L 551.111973 386.359465 
L 558.348019 390.300643 
L 565.561784 394.229687 
L 572.755094 398.147589 
L 579.929619 402.05526 
L 587.086882 405.953529 
L 594.228277 409.843156 
L 601.355082 413.724836 
L 608.468465 417.599205 
L 615.569498 421.466849 
L 622.659165 425.328301 
L 629.738368 429.184053 
L 636.807933 433.034557 
L 643.868623 436.880227 
L 650.921136 440.721443 
L 657.966115 444.558556 
L 665.00415 448.391886 
L 672.035784 452.221731 
L 679.061519 456.048362 
L 686.081814 459.87203 
L 693.097092 463.692966 
L 700.107745 467.511382 
L 707.114131 471.327475 
L 714.116582 475.141424 
L 721.115402 478.953396 
L 728.110873 482.763543 
L 735.103253 486.572008 
L 742.092782 490.378919 
L 749.079681 494.184397 
L 756.064151 497.988553 
L 763.04638 501.791489 
L 770.026542 505.593298 
L 777.004795 509.394068 
L 783.981286 513.193878 
L 790.956151 516.992802 
L 797.929515 520.790909 
L 804.901494 524.588261 
L 811.872193 528.384917 
L 818.841712 532.180929 
L 825.810141 535.976348 
L 832.777563 539.771219 
L 839.744056 543.565583 
L 846.709691 547.359481 
L 853.674535 551.152947 
L 860.638647 554.946015 
L 867.602084 558.738715 
L 874.564898 562.531075 
L 881.527136 566.323122 
L 888.488843 570.11488 
L 895.450059 573.90637 
L 902.410822 577.697614 
L 909.371166 581.48863 
L 916.331124 585.279435 
L 923.290726 589.070046 
L 930.249998 592.860478 
L 937.208966 596.650743 
L 944.167654 600.440856 
L 951.126081 604.230828 
L 958.08427 608.02067 
L 965.042237 611.81039 
L 972 615.6 
" clip-path="url(#p2db2493ef2)" style="fill: none; stroke: #4a98c9; stroke-width: 1.5; stroke-linecap: square"/>
    <defs>
     <path id="m5aa27eb527" d="M 0 1.5 
C 0.397805 1.5 0.77937 1.341951 1.06066 1.06066 
C 1.341951 0.77937 1.5 0.397805 1.5 0 
C 1.5 -0.397805 1.341951 -0.77937 1.06066 -1.06066 
C 0.77937 -1.341951 0.397805 -1.5 0 -1.5 
C -0.397805 -1.5 -0.77937 -1.341951 -1.06066 -1.06066 
C -1.341951 -0.77937 -1.5 -0.397805 -1.5 0 
C -1.5 0.397805 -1.341951 0.77937 -1.06066 1.06066 
C -0.77937 1.341951 -0.397805 1.5 0 1.5 
z
" style="stroke: #4a98c9"/>
    </defs>
    <g clip-path="url(#p2db2493ef2)">
     <use xlink:href="#m5aa27eb527" x="135" y="159.720251" style="fill: #4a98c9; stroke: #4a98c9"/>
     <use xlink:href="#m5aa27eb527" x="169.882319" y="178.719227" style="fill: #4a98c9; stroke: #4a98c9"/>
     <use xlink:href="#m5aa27eb527" x="196.519391" y="193.227353" style="fill: #4a98c9; stroke: #4a98c9"/>
     <use xlink:href="#m5aa27eb527" x="218.398526" y="205.144025" style="fill: #4a98c9; stroke: #4a98c9"/>
     <use xlink:href="#m5aa27eb527" x="237.184628" y="215.376048" style="fill: #4a98c9; stroke: #4a98c9"/>
     <use xlink:href="#m5aa27eb527" x="253.803447" y="224.427641" style="fill: #4a98c9; stroke: #4a98c9"/>
     <use xlink:href="#m5aa27eb527" x="268.823174" y="232.608273" style="fill: #4a98c9; stroke: #4a98c9"/>
     <use xlink:href="#m5aa27eb527" x="282.617698" y="240.121588" style="fill: #4a98c9; stroke: #4a98c9"/>
     <use xlink:href="#m5aa27eb527" x="295.446158" y="247.108726" style="fill: #4a98c9; stroke: #4a98c9"/>
     <use xlink:href="#m5aa27eb527" x="307.495529" y="253.671527" style="fill: #4a98c9; stroke: #4a98c9"/>
     <use xlink:href="#m5aa27eb527" x="318.90512" y="259.885866" style="fill: #4a98c9; stroke: #4a98c9"/>
     <use xlink:href="#m5aa27eb527" x="329.781481" y="265.809776" style="fill: #4a98c9; stroke: #4a98c9"/>
     <use xlink:href="#m5aa27eb527" x="340.207897" y="271.48862" style="fill: #4a98c9; stroke: #4a98c9"/>
     <use xlink:href="#m5aa27eb527" x="350.25068" y="276.958514" style="fill: #4a98c9; stroke: #4a98c9"/>
     <use xlink:href="#m5aa27eb527" x="359.963458" y="282.248668" style="fill: #4a98c9; stroke: #4a98c9"/>
     <use xlink:href="#m5aa27eb527" x="369.390196" y="287.383027" style="fill: #4a98c9; stroke: #4a98c9"/>
     <use xlink:href="#m5aa27eb527" x="378.567359" y="292.381453" style="fill: #4a98c9; stroke: #4a98c9"/>
     <use xlink:href="#m5aa27eb527" x="387.525513" y="297.260594" style="fill: #4a98c9; stroke: #4a98c9"/>
     <use xlink:href="#m5aa27eb527" x="396.290506" y="302.034528" style="fill: #4a98c9; stroke: #4a98c9"/>
     <use xlink:href="#m5aa27eb527" x="404.884378" y="306.71526" style="fill: #4a98c9; stroke: #4a98c9"/>
     <use xlink:href="#m5aa27eb527" x="413.326057" y="311.313098" style="fill: #4a98c9; stroke: #4a98c9"/>
     <use xlink:href="#m5aa27eb527" x="421.631902" y="315.836953" style="fill: #4a98c9; stroke: #4a98c9"/>
     <use xlink:href="#m5aa27eb527" x="429.816135" y="320.29457" style="fill: #4a98c9; stroke: #4a98c9"/>
     <use xlink:href="#m5aa27eb527" x="437.891184" y="324.69272" style="fill: #4a98c9; stroke: #4a98c9"/>
     <use xlink:href="#m5aa27eb527" x="445.867961" y="329.037345" style="fill: #4a98c9; stroke: #4a98c9"/>
     <use xlink:href="#m5aa27eb527" x="453.756089" y="333.333686" style="fill: #4a98c9; stroke: #4a98c9"/>
     <use xlink:href="#m5aa27eb527" x="461.564083" y="337.586382" style="fill: #4a98c9; stroke: #4a98c9"/>
     <use xlink:href="#m5aa27eb527" x="469.299508" y="341.799553" style="fill: #4a98c9; stroke: #4a98c9"/>
     <use xlink:href="#m5aa27eb527" x="476.969107" y="345.97687" style="fill: #4a98c9; stroke: #4a98c9"/>
     <use xlink:href="#m5aa27eb527" x="484.578903" y="350.121616" style="fill: #4a98c9; stroke: #4a98c9"/>
     <use xlink:href="#m5aa27eb527" x="492.134296" y="354.23673" style="fill: #4a98c9; stroke: #4a98c9"/>
     <use xlink:href="#m5aa27eb527" x="499.640134" y="358.324854" style="fill: #4a98c9; stroke: #4a98c9"/>
     <use xlink:href="#m5aa27eb527" x="507.100785" y="362.388366" style="fill: #4a98c9; stroke: #4a98c9"/>
     <use xlink:href="#m5aa27eb527" x="514.520186" y="366.429411" style="fill: #4a98c9; stroke: #4a98c9"/>
     <use xlink:href="#m5aa27eb527" x="521.901897" y="370.449928" style="fill: #4a98c9; stroke: #4a98c9"/>
     <use xlink:href="#m5aa27eb527" x="529.24914" y="374.451672" style="fill: #4a98c9; stroke: #4a98c9"/>
     <use xlink:href="#m5aa27eb527" x="536.564839" y="378.436234" style="fill: #4a98c9; stroke: #4a98c9"/>
     <use xlink:href="#m5aa27eb527" x="543.851646" y="382.40506" style="fill: #4a98c9; stroke: #4a98c9"/>
     <use xlink:href="#m5aa27eb527" x="551.111973" y="386.359465" style="fill: #4a98c9; stroke: #4a98c9"/>
     <use xlink:href="#m5aa27eb527" x="558.348019" y="390.300643" style="fill: #4a98c9; stroke: #4a98c9"/>
     <use xlink:href="#m5aa27eb527" x="565.561784" y="394.229687" style="fill: #4a98c9; stroke: #4a98c9"/>
     <use xlink:href="#m5aa27eb527" x="572.755094" y="398.147589" style="fill: #4a98c9; stroke: #4a98c9"/>
     <use xlink:href="#m5aa27eb527" x="579.929619" y="402.05526" style="fill: #4a98c9; stroke: #4a98c9"/>
     <use xlink:href="#m5aa27eb527" x="587.086882" y="405.953529" style="fill: #4a98c9; stroke: #4a98c9"/>
     <use xlink:href="#m5aa27eb527" x="594.228277" y="409.843156" style="fill: #4a98c9; stroke: #4a98c9"/>
     <use xlink:href="#m5aa27eb527" x="601.355082" y="413.724836" style="fill: #4a98c9; stroke: #4a98c9"/>
     <use xlink:href="#m5aa27eb527" x="608.468465" y="417.599205" style="fill: #4a98c9; stroke: #4a98c9"/>
     <use xlink:href="#m5aa27eb527" x="615.569498" y="421.466849" style="fill: #4a98c9; stroke: #4a98c9"/>
     <use xlink:href="#m5aa27eb527" x="622.659165" y="425.328301" style="fill: #4a98c9; stroke: #4a98c9"/>
     <use xlink:href="#m5aa27eb527" x="629.738368" y="429.184053" style="fill: #4a98c9; stroke: #4a98c9"/>
     <use xlink:href="#m5aa27eb527" x="636.807933" y="433.034557" style="fill: #4a98c9; stroke: #4a98c9"/>
     <use xlink:href="#m5aa27eb527" x="643.868623" y="436.880227" style="fill: #4a98c9; stroke: #4a98c9"/>
     <use xlink:href="#m5aa27eb527" x="650.921136" y="440.721443" style="fill: #4a98c9; stroke: #4a98c9"/>
     <use xlink:href="#m5aa27eb527" x="657.966115" y="444.558556" style="fill: #4a98c9; stroke: #4a98c9"/>
     <use xlink:href="#m5aa27eb527" x="665.00415" y="448.391886" style="fill: #4a98c9; stroke: #4a98c9"/>
     <use xlink:href="#m5aa27eb527" x="672.035784" y="452.221731" style="fill: #4a98c9; stroke: #4a98c9"/>
     <use xlink:href="#m5aa27eb527" x="679.061519" y="456.048362" style="fill: #4a98c9; stroke: #4a98c9"/>
     <use xlink:href="#m5aa27eb527" x="686.081814" y="459.87203" style="fill: #4a98c9; stroke: #4a98c9"/>
     <use xlink:href="#m5aa27eb527" x="693.097092" y="463.692966" style="fill: #4a98c9; stroke: #4a98c9"/>
     <use xlink:href="#m5aa27eb527" x="700.107745" y="467.511382" style="fill: #4a98c9; stroke: #4a98c9"/>
     <use xlink:href="#m5aa27eb527" x="707.114131" y="471.327475" style="fill: #4a98c9; stroke: #4a98c9"/>
     <use xlink:href="#m5aa27eb527" x="714.116582" y="475.141424" style="fill: #4a98c9; stroke: #4a98c9"/>
     <use xlink:href="#m5aa27eb527" x="721.115402" y="478.953396" style="fill: #4a98c9; stroke: #4a98c9"/>
     <use xlink:href="#m5aa27eb527" x="728.110873" y="482.763543" style="fill: #4a98c9; stroke: #4a98c9"/>
     <use xlink:href="#m5aa27eb527" x="735.103253" y="486.572008" style="fill: #4a98c9; stroke: #4a98c9"/>
     <use xlink:href="#m5aa27eb527" x="742.092782" y="490.378919" style="fill: #4a98c9; stroke: #4a98c9"/>
     <use xlink:href="#m5aa27eb527" x="749.079681" y="494.184397" style="fill: #4a98c9; stroke: #4a98c9"/>
     <use xlink:href="#m5aa27eb527" x="756.064151" y="497.988553" style="fill: #4a98c9; stroke: #4a98c9"/>
     <use xlink:href="#m5aa27eb527" x="763.04638" y="501.791489" style="fill: #4a98c9; stroke: #4a98c9"/>
     <use xlink:href="#m5aa27eb527" x="770.026542" y="505.593298" style="fill: #4a98c9; stroke: #4a98c9"/>
     <use xlink:href="#m5aa27eb527" x="777.004795" y="509.394068" style="fill: #4a98c9; stroke: #4a98c9"/>
     <use xlink:href="#m5aa27eb527" x="783.981286" y="513.193878" style="fill: #4a98c9; stroke: #4a98c9"/>
     <use xlink:href="#m5aa27eb527" x="790.956151" y="516.992802" style="fill: #4a98c9; stroke: #4a98c9"/>
     <use xlink:href="#m5aa27eb527" x="797.929515" y="520.790909" style="fill: #4a98c9; stroke: #4a98c9"/>
     <use xlink:href="#m5aa27eb527" x="804.901494" y="524.588261" style="fill: #4a98c9; stroke: #4a98c9"/>
     <use xlink:href="#m5aa27eb527" x="811.872193" y="528.384917" style="fill: #4a98c9; stroke: #4a98c9"/>
     <use xlink:href="#m5aa27eb527" x="818.841712" y="532.180929" style="fill: #4a98c9; stroke: #4a98c9"/>
     <use xlink:href="#m5aa27eb527" x="825.810141" y="535.976348" style="fill: #4a98c9; stroke: #4a98c9"/>
     <use xlink:href="#m5aa27eb527" x="832.777563" y="539.771219" style="fill: #4a98c9; stroke: #4a98c9"/>
     <use xlink:href="#m5aa27eb527" x="839.744056" y="543.565583" style="fill: #4a98c9; stroke: #4a98c9"/>
     <use xlink:href="#m5aa27eb527" x="846.709691" y="547.359481" style="fill: #4a98c9; stroke: #4a98c9"/>
     <use xlink:href="#m5aa27eb527" x="853.674535" y="551.152947" style="fill: #4a98c9; stroke: #4a98c9"/>
     <use xlink:href="#m5aa27eb527" x="860.638647" y="554.946015" style="fill: #4a98c9; stroke: #4a98c9"/>
     <use xlink:href="#m5aa27eb527" x="867.602084" y="558.738715" style="fill: #4a98c9; stroke: #4a98c9"/>
     <use xlink:href="#m5aa27eb527" x="874.564898" y="562.531075" style="fill: #4a98c9; stroke: #4a98c9"/>
     <use xlink:href="#m5aa27eb527" x="881.527136" y="566.323122" style="fill: #4a98c9; stroke: #4a98c9"/>
     <use xlink:href="#m5aa27eb527" x="888.488843" y="570.11488" style="fill: #4a98c9; stroke: #4a98c9"/>
     <use xlink:href="#m5aa27eb527" x="895.450059" y="573.90637" style="fill: #4a98c9; stroke: #4a98c9"/>
     <use xlink:href="#m5aa27eb527" x="902.410822" y="577.697614" style="fill: #4a98c9; stroke: #4a98c9"/>
     <use xlink:href="#m5aa27eb527" x="909.371166" y="581.48863" style="fill: #4a98c9; stroke: #4a98c9"/>
     <use xlink:href="#m5aa27eb527" x="916.331124" y="585.279435" style="fill: #4a98c9; stroke: #4a98c9"/>
     <use xlink:href="#m5aa27eb527" x="923.290726" y="589.070046" style="fill: #4a98c9; stroke: #4a98c9"/>
     <use xlink:href="#m5aa27eb527" x="930.249998" y="592.860478" style="fill: #4a98c9; stroke: #4a98c9"/>
     <use xlink:href="#m5aa27eb527" x="937.208966" y="596.650743" style="fill: #4a98c9; stroke: #4a98c9"/>
     <use xlink:href="#m5aa27eb527" x="944.167654" y="600.440856" style="fill: #4a98c9; stroke: #4a98c9"/>
     <use xlink:href="#m5aa27eb527" x="951.126081" y="604.230828" style="fill: #4a98c9; stroke: #4a98c9"/>
     <use xlink:href="#m5aa27eb527" x="958.08427" y="608.02067" style="fill: #4a98c9; stroke: #4a98c9"/>
     <use xlink:href="#m5aa27eb527" x="965.042237" y="611.81039" style="fill: #4a98c9; stroke: #4a98c9"/>
     <use xlink:href="#m5aa27eb527" x="972" y="615.6" style="fill: #4a98c9; stroke: #4a98c9"/>
    </g>
   </g>
   <g id="line2d_53">
    <path d="M 135 111.6 
L 169.882319 130.598976 
L 196.519391 145.107102 
L 218.398526 157.023775 
L 237.184628 167.255798 
L 253.803447 176.30739 
L 268.823174 184.488023 
L 282.617698 192.001337 
L 295.446158 198.988476 
L 307.495529 205.551277 
L 318.90512 211.765615 
L 329.781481 217.689525 
L 340.207897 223.368369 
L 350.25068 228.838263 
L 359.963458 234.128417 
L 369.390196 239.262776 
L 378.567359 244.261203 
L 387.525513 249.140344 
L 396.290506 253.914278 
L 404.884378 258.595009 
L 413.326057 263.192847 
L 421.631902 267.716702 
L 429.816135 272.17432 
L 437.891184 276.57247 
L 445.867961 280.917095 
L 453.756089 285.213436 
L 461.564083 289.466132 
L 469.299508 293.679302 
L 476.969107 297.85662 
L 484.578903 302.001365 
L 492.134296 306.116479 
L 499.640134 310.204603 
L 507.100785 314.268115 
L 514.520186 318.30916 
L 521.901897 322.329677 
L 529.24914 326.331421 
L 536.564839 330.315983 
L 543.851646 334.28481 
L 551.111973 338.239214 
L 558.348019 342.180393 
L 565.561784 346.109436 
L 572.755094 350.027339 
L 579.929619 353.93501 
L 587.086882 357.833279 
L 594.228277 361.722905 
L 601.355082 365.604585 
L 608.468465 369.478955 
L 615.569498 373.346598 
L 622.659165 377.20805 
L 629.738368 381.063803 
L 636.807933 384.914307 
L 643.868623 388.759977 
L 650.921136 392.601193 
L 657.966115 396.438305 
L 665.00415 400.271636 
L 672.035784 404.10148 
L 679.061519 407.928111 
L 686.081814 411.751779 
L 693.097092 415.572715 
L 700.107745 419.391132 
L 707.114131 423.207224 
L 714.116582 427.021173 
L 721.115402 430.833145 
L 728.110873 434.643293 
L 735.103253 438.451757 
L 742.092782 442.258669 
L 749.079681 446.064147 
L 756.064151 449.868303 
L 763.04638 453.671238 
L 770.026542 457.473048 
L 777.004795 461.273817 
L 783.981286 465.073627 
L 790.956151 468.872552 
L 797.929515 472.670659 
L 804.901494 476.468011 
L 811.872193 480.264667 
L 818.841712 484.060679 
L 825.810141 487.856098 
L 832.777563 491.650968 
L 839.744056 495.445333 
L 846.709691 499.23923 
L 853.674535 503.032696 
L 860.638647 506.825764 
L 867.602084 510.618464 
L 874.564898 514.410825 
L 881.527136 518.202872 
L 888.488843 521.994629 
L 895.450059 525.78612 
L 902.410822 529.577363 
L 909.371166 533.368379 
L 916.331124 537.159184 
L 923.290726 540.949795 
L 930.249998 544.740227 
L 937.208966 548.530493 
L 944.167654 552.320606 
L 951.126081 556.110578 
L 958.08427 559.900419 
L 965.042237 563.69014 
L 972 567.479749 
" clip-path="url(#p2db2493ef2)" style="fill: none; stroke: #d0e1f2; stroke-width: 1.5; stroke-linecap: square"/>
   </g>
   <g id="line2d_54">
    <path d="M 135 245.560974 
L 169.882319 244.75379 
L 196.519391 243.90604 
L 218.398526 243.031669 
L 237.184628 242.15453 
L 253.803447 241.31252 
L 268.823174 240.562004 
L 282.617698 239.980771 
L 295.446158 239.666066 
L 307.495529 239.72327 
L 318.90512 240.243423 
L 329.781481 241.275841 
L 340.207897 242.810351 
L 350.25068 244.781125 
L 359.963458 247.08937 
L 369.390196 249.630419 
L 378.567359 252.312729 
L 387.525513 255.065682 
L 396.290506 257.839449 
L 404.884378 260.601257 
L 413.326057 263.330933 
L 421.631902 266.017041 
L 429.816135 268.65394 
L 437.891184 271.239706 
L 445.867961 273.774723 
L 453.756089 276.260747 
L 461.564083 278.700302 
L 469.299508 281.096292 
L 476.969107 283.451759 
L 484.578903 285.769732 
L 492.134296 288.053138 
L 499.640134 290.304754 
L 507.100785 292.527179 
L 514.520186 294.722829 
L 521.901897 296.893934 
L 529.24914 299.042544 
L 536.564839 301.170542 
L 543.851646 303.279649 
L 551.111973 305.371442 
L 558.348019 307.447362 
L 565.561784 309.508725 
L 572.755094 311.556734 
L 579.929619 313.59249 
L 587.086882 315.616996 
L 594.228277 317.631172 
L 601.355082 319.63586 
L 608.468465 321.631828 
L 615.569498 323.619781 
L 622.659165 325.600364 
L 629.738368 327.57417 
L 636.807933 329.54174 
L 643.868623 331.503571 
L 650.921136 333.46012 
L 657.966115 335.411807 
L 665.00415 337.359015 
L 672.035784 339.302099 
L 679.061519 341.241383 
L 686.081814 343.177166 
L 693.097092 345.109723 
L 700.107745 347.039305 
L 707.114131 348.966147 
L 714.116582 350.890461 
L 721.115402 352.812445 
L 728.110873 354.732281 
L 735.103253 356.650134 
L 742.092782 358.566159 
L 749.079681 360.480498 
L 756.064151 362.393282 
L 763.04638 364.304631 
L 770.026542 366.214655 
L 777.004795 368.123458 
L 783.981286 370.031133 
L 790.956151 371.937768 
L 797.929515 373.843442 
L 804.901494 375.748231 
L 811.872193 377.652201 
L 818.841712 379.555417 
L 825.810141 381.457935 
L 832.777563 383.359811 
L 839.744056 385.261093 
L 846.709691 387.161826 
L 853.674535 389.062054 
L 860.638647 390.961814 
L 867.602084 392.861143 
L 874.564898 394.760074 
L 881.527136 396.658638 
L 888.488843 398.556862 
L 895.450059 400.454773 
L 902.410822 402.352394 
L 909.371166 404.249748 
L 916.331124 406.146856 
L 923.290726 408.043735 
L 930.249998 409.940405 
L 937.208966 411.83688 
L 944.167654 413.733176 
L 951.126081 415.629307 
L 958.08427 417.525284 
L 965.042237 419.421121 
L 972 421.316827 
" clip-path="url(#p2db2493ef2)" style="fill: none; stroke: #08306b; stroke-width: 1.5; stroke-linecap: square"/>
    <defs>
     <path id="m359b09f3be" d="M 0 1.5 
C 0.397805 1.5 0.77937 1.341951 1.06066 1.06066 
C 1.341951 0.77937 1.5 0.397805 1.5 0 
C 1.5 -0.397805 1.341951 -0.77937 1.06066 -1.06066 
C 0.77937 -1.341951 0.397805 -1.5 0 -1.5 
C -0.397805 -1.5 -0.77937 -1.341951 -1.06066 -1.06066 
C -1.341951 -0.77937 -1.5 -0.397805 -1.5 0 
C -1.5 0.397805 -1.341951 0.77937 -1.06066 1.06066 
C -0.77937 1.341951 -0.397805 1.5 0 1.5 
z
" style="stroke: #08306b"/>
    </defs>
    <g clip-path="url(#p2db2493ef2)">
     <use xlink:href="#m359b09f3be" x="135" y="245.560974" style="fill: #08306b; stroke: #08306b"/>
     <use xlink:href="#m359b09f3be" x="169.882319" y="244.75379" style="fill: #08306b; stroke: #08306b"/>
     <use xlink:href="#m359b09f3be" x="196.519391" y="243.90604" style="fill: #08306b; stroke: #08306b"/>
     <use xlink:href="#m359b09f3be" x="218.398526" y="243.031669" style="fill: #08306b; stroke: #08306b"/>
     <use xlink:href="#m359b09f3be" x="237.184628" y="242.15453" style="fill: #08306b; stroke: #08306b"/>
     <use xlink:href="#m359b09f3be" x="253.803447" y="241.31252" style="fill: #08306b; stroke: #08306b"/>
     <use xlink:href="#m359b09f3be" x="268.823174" y="240.562004" style="fill: #08306b; stroke: #08306b"/>
     <use xlink:href="#m359b09f3be" x="282.617698" y="239.980771" style="fill: #08306b; stroke: #08306b"/>
     <use xlink:href="#m359b09f3be" x="295.446158" y="239.666066" style="fill: #08306b; stroke: #08306b"/>
     <use xlink:href="#m359b09f3be" x="307.495529" y="239.72327" style="fill: #08306b; stroke: #08306b"/>
     <use xlink:href="#m359b09f3be" x="318.90512" y="240.243423" style="fill: #08306b; stroke: #08306b"/>
     <use xlink:href="#m359b09f3be" x="329.781481" y="241.275841" style="fill: #08306b; stroke: #08306b"/>
     <use xlink:href="#m359b09f3be" x="340.207897" y="242.810351" style="fill: #08306b; stroke: #08306b"/>
     <use xlink:href="#m359b09f3be" x="350.25068" y="244.781125" style="fill: #08306b; stroke: #08306b"/>
     <use xlink:href="#m359b09f3be" x="359.963458" y="247.08937" style="fill: #08306b; stroke: #08306b"/>
     <use xlink:href="#m359b09f3be" x="369.390196" y="249.630419" style="fill: #08306b; stroke: #08306b"/>
     <use xlink:href="#m359b09f3be" x="378.567359" y="252.312729" style="fill: #08306b; stroke: #08306b"/>
     <use xlink:href="#m359b09f3be" x="387.525513" y="255.065682" style="fill: #08306b; stroke: #08306b"/>
     <use xlink:href="#m359b09f3be" x="396.290506" y="257.839449" style="fill: #08306b; stroke: #08306b"/>
     <use xlink:href="#m359b09f3be" x="404.884378" y="260.601257" style="fill: #08306b; stroke: #08306b"/>
     <use xlink:href="#m359b09f3be" x="413.326057" y="263.330933" style="fill: #08306b; stroke: #08306b"/>
     <use xlink:href="#m359b09f3be" x="421.631902" y="266.017041" style="fill: #08306b; stroke: #08306b"/>
     <use xlink:href="#m359b09f3be" x="429.816135" y="268.65394" style="fill: #08306b; stroke: #08306b"/>
     <use xlink:href="#m359b09f3be" x="437.891184" y="271.239706" style="fill: #08306b; stroke: #08306b"/>
     <use xlink:href="#m359b09f3be" x="445.867961" y="273.774723" style="fill: #08306b; stroke: #08306b"/>
     <use xlink:href="#m359b09f3be" x="453.756089" y="276.260747" style="fill: #08306b; stroke: #08306b"/>
     <use xlink:href="#m359b09f3be" x="461.564083" y="278.700302" style="fill: #08306b; stroke: #08306b"/>
     <use xlink:href="#m359b09f3be" x="469.299508" y="281.096292" style="fill: #08306b; stroke: #08306b"/>
     <use xlink:href="#m359b09f3be" x="476.969107" y="283.451759" style="fill: #08306b; stroke: #08306b"/>
     <use xlink:href="#m359b09f3be" x="484.578903" y="285.769732" style="fill: #08306b; stroke: #08306b"/>
     <use xlink:href="#m359b09f3be" x="492.134296" y="288.053138" style="fill: #08306b; stroke: #08306b"/>
     <use xlink:href="#m359b09f3be" x="499.640134" y="290.304754" style="fill: #08306b; stroke: #08306b"/>
     <use xlink:href="#m359b09f3be" x="507.100785" y="292.527179" style="fill: #08306b; stroke: #08306b"/>
     <use xlink:href="#m359b09f3be" x="514.520186" y="294.722829" style="fill: #08306b; stroke: #08306b"/>
     <use xlink:href="#m359b09f3be" x="521.901897" y="296.893934" style="fill: #08306b; stroke: #08306b"/>
     <use xlink:href="#m359b09f3be" x="529.24914" y="299.042544" style="fill: #08306b; stroke: #08306b"/>
     <use xlink:href="#m359b09f3be" x="536.564839" y="301.170542" style="fill: #08306b; stroke: #08306b"/>
     <use xlink:href="#m359b09f3be" x="543.851646" y="303.279649" style="fill: #08306b; stroke: #08306b"/>
     <use xlink:href="#m359b09f3be" x="551.111973" y="305.371442" style="fill: #08306b; stroke: #08306b"/>
     <use xlink:href="#m359b09f3be" x="558.348019" y="307.447362" style="fill: #08306b; stroke: #08306b"/>
     <use xlink:href="#m359b09f3be" x="565.561784" y="309.508725" style="fill: #08306b; stroke: #08306b"/>
     <use xlink:href="#m359b09f3be" x="572.755094" y="311.556734" style="fill: #08306b; stroke: #08306b"/>
     <use xlink:href="#m359b09f3be" x="579.929619" y="313.59249" style="fill: #08306b; stroke: #08306b"/>
     <use xlink:href="#m359b09f3be" x="587.086882" y="315.616996" style="fill: #08306b; stroke: #08306b"/>
     <use xlink:href="#m359b09f3be" x="594.228277" y="317.631172" style="fill: #08306b; stroke: #08306b"/>
     <use xlink:href="#m359b09f3be" x="601.355082" y="319.63586" style="fill: #08306b; stroke: #08306b"/>
     <use xlink:href="#m359b09f3be" x="608.468465" y="321.631828" style="fill: #08306b; stroke: #08306b"/>
     <use xlink:href="#m359b09f3be" x="615.569498" y="323.619781" style="fill: #08306b; stroke: #08306b"/>
     <use xlink:href="#m359b09f3be" x="622.659165" y="325.600364" style="fill: #08306b; stroke: #08306b"/>
     <use xlink:href="#m359b09f3be" x="629.738368" y="327.57417" style="fill: #08306b; stroke: #08306b"/>
     <use xlink:href="#m359b09f3be" x="636.807933" y="329.54174" style="fill: #08306b; stroke: #08306b"/>
     <use xlink:href="#m359b09f3be" x="643.868623" y="331.503571" style="fill: #08306b; stroke: #08306b"/>
     <use xlink:href="#m359b09f3be" x="650.921136" y="333.46012" style="fill: #08306b; stroke: #08306b"/>
     <use xlink:href="#m359b09f3be" x="657.966115" y="335.411807" style="fill: #08306b; stroke: #08306b"/>
     <use xlink:href="#m359b09f3be" x="665.00415" y="337.359015" style="fill: #08306b; stroke: #08306b"/>
     <use xlink:href="#m359b09f3be" x="672.035784" y="339.302099" style="fill: #08306b; stroke: #08306b"/>
     <use xlink:href="#m359b09f3be" x="679.061519" y="341.241383" style="fill: #08306b; stroke: #08306b"/>
     <use xlink:href="#m359b09f3be" x="686.081814" y="343.177166" style="fill: #08306b; stroke: #08306b"/>
     <use xlink:href="#m359b09f3be" x="693.097092" y="345.109723" style="fill: #08306b; stroke: #08306b"/>
     <use xlink:href="#m359b09f3be" x="700.107745" y="347.039305" style="fill: #08306b; stroke: #08306b"/>
     <use xlink:href="#m359b09f3be" x="707.114131" y="348.966147" style="fill: #08306b; stroke: #08306b"/>
     <use xlink:href="#m359b09f3be" x="714.116582" y="350.890461" style="fill: #08306b; stroke: #08306b"/>
     <use xlink:href="#m359b09f3be" x="721.115402" y="352.812445" style="fill: #08306b; stroke: #08306b"/>
     <use xlink:href="#m359b09f3be" x="728.110873" y="354.732281" style="fill: #08306b; stroke: #08306b"/>
     <use xlink:href="#m359b09f3be" x="735.103253" y="356.650134" style="fill: #08306b; stroke: #08306b"/>
     <use xlink:href="#m359b09f3be" x="742.092782" y="358.566159" style="fill: #08306b; stroke: #08306b"/>
     <use xlink:href="#m359b09f3be" x="749.079681" y="360.480498" style="fill: #08306b; stroke: #08306b"/>
     <use xlink:href="#m359b09f3be" x="756.064151" y="362.393282" style="fill: #08306b; stroke: #08306b"/>
     <use xlink:href="#m359b09f3be" x="763.04638" y="364.304631" style="fill: #08306b; stroke: #08306b"/>
     <use xlink:href="#m359b09f3be" x="770.026542" y="366.214655" style="fill: #08306b; stroke: #08306b"/>
     <use xlink:href="#m359b09f3be" x="777.004795" y="368.123458" style="fill: #08306b; stroke: #08306b"/>
     <use xlink:href="#m359b09f3be" x="783.981286" y="370.031133" style="fill: #08306b; stroke: #08306b"/>
     <use xlink:href="#m359b09f3be" x="790.956151" y="371.937768" style="fill: #08306b; stroke: #08306b"/>
     <use xlink:href="#m359b09f3be" x="797.929515" y="373.843442" style="fill: #08306b; stroke: #08306b"/>
     <use xlink:href="#m359b09f3be" x="804.901494" y="375.748231" style="fill: #08306b; stroke: #08306b"/>
     <use xlink:href="#m359b09f3be" x="811.872193" y="377.652201" style="fill: #08306b; stroke: #08306b"/>
     <use xlink:href="#m359b09f3be" x="818.841712" y="379.555417" style="fill: #08306b; stroke: #08306b"/>
     <use xlink:href="#m359b09f3be" x="825.810141" y="381.457935" style="fill: #08306b; stroke: #08306b"/>
     <use xlink:href="#m359b09f3be" x="832.777563" y="383.359811" style="fill: #08306b; stroke: #08306b"/>
     <use xlink:href="#m359b09f3be" x="839.744056" y="385.261093" style="fill: #08306b; stroke: #08306b"/>
     <use xlink:href="#m359b09f3be" x="846.709691" y="387.161826" style="fill: #08306b; stroke: #08306b"/>
     <use xlink:href="#m359b09f3be" x="853.674535" y="389.062054" style="fill: #08306b; stroke: #08306b"/>
     <use xlink:href="#m359b09f3be" x="860.638647" y="390.961814" style="fill: #08306b; stroke: #08306b"/>
     <use xlink:href="#m359b09f3be" x="867.602084" y="392.861143" style="fill: #08306b; stroke: #08306b"/>
     <use xlink:href="#m359b09f3be" x="874.564898" y="394.760074" style="fill: #08306b; stroke: #08306b"/>
     <use xlink:href="#m359b09f3be" x="881.527136" y="396.658638" style="fill: #08306b; stroke: #08306b"/>
     <use xlink:href="#m359b09f3be" x="888.488843" y="398.556862" style="fill: #08306b; stroke: #08306b"/>
     <use xlink:href="#m359b09f3be" x="895.450059" y="400.454773" style="fill: #08306b; stroke: #08306b"/>
     <use xlink:href="#m359b09f3be" x="902.410822" y="402.352394" style="fill: #08306b; stroke: #08306b"/>
     <use xlink:href="#m359b09f3be" x="909.371166" y="404.249748" style="fill: #08306b; stroke: #08306b"/>
     <use xlink:href="#m359b09f3be" x="916.331124" y="406.146856" style="fill: #08306b; stroke: #08306b"/>
     <use xlink:href="#m359b09f3be" x="923.290726" y="408.043735" style="fill: #08306b; stroke: #08306b"/>
     <use xlink:href="#m359b09f3be" x="930.249998" y="409.940405" style="fill: #08306b; stroke: #08306b"/>
     <use xlink:href="#m359b09f3be" x="937.208966" y="411.83688" style="fill: #08306b; stroke: #08306b"/>
     <use xlink:href="#m359b09f3be" x="944.167654" y="413.733176" style="fill: #08306b; stroke: #08306b"/>
     <use xlink:href="#m359b09f3be" x="951.126081" y="415.629307" style="fill: #08306b; stroke: #08306b"/>
     <use xlink:href="#m359b09f3be" x="958.08427" y="417.525284" style="fill: #08306b; stroke: #08306b"/>
     <use xlink:href="#m359b09f3be" x="965.042237" y="419.421121" style="fill: #08306b; stroke: #08306b"/>
     <use xlink:href="#m359b09f3be" x="972" y="421.316827" style="fill: #08306b; stroke: #08306b"/>
    </g>
   </g>
   <g id="line2d_55">
    <path d="M 135 152.028716 
L 169.882319 161.528204 
L 196.519391 168.782268 
L 218.398526 174.740604 
L 237.184628 179.856615 
L 253.803447 184.382412 
L 268.823174 188.472728 
L 282.617698 192.229385 
L 295.446158 195.722954 
L 307.495529 199.004355 
L 318.90512 202.111524 
L 329.781481 205.073479 
L 340.207897 207.912901 
L 350.25068 210.647848 
L 359.963458 213.292925 
L 369.390196 215.860105 
L 378.567359 218.359318 
L 387.525513 220.798888 
L 396.290506 223.185855 
L 404.884378 225.526221 
L 413.326057 227.82514 
L 421.631902 230.087068 
L 429.816135 232.315876 
L 437.891184 234.514951 
L 445.867961 236.687264 
L 453.756089 238.835434 
L 461.564083 240.961782 
L 469.299508 243.068368 
L 476.969107 245.157026 
L 484.578903 247.229399 
L 492.134296 249.286956 
L 499.640134 251.331018 
L 507.100785 253.362774 
L 514.520186 255.383297 
L 521.901897 257.393555 
L 529.24914 259.394427 
L 536.564839 261.386708 
L 543.851646 263.371121 
L 551.111973 265.348323 
L 558.348019 267.318913 
L 565.561784 269.283434 
L 572.755094 271.242386 
L 579.929619 273.196221 
L 587.086882 275.145356 
L 594.228277 277.090169 
L 601.355082 279.031009 
L 608.468465 280.968194 
L 615.569498 282.902015 
L 622.659165 284.832742 
L 629.738368 286.760618 
L 636.807933 288.68587 
L 643.868623 290.608705 
L 650.921136 292.529313 
L 657.966115 294.447869 
L 665.00415 296.364534 
L 672.035784 298.279457 
L 679.061519 300.192772 
L 686.081814 302.104606 
L 693.097092 304.015074 
L 700.107745 305.924282 
L 707.114131 307.832329 
L 714.116582 309.739303 
L 721.115402 311.645289 
L 728.110873 313.550363 
L 735.103253 315.454595 
L 742.092782 317.358051 
L 749.079681 319.26079 
L 756.064151 321.162868 
L 763.04638 323.064336 
L 770.026542 324.96524 
L 777.004795 326.865625 
L 783.981286 328.76553 
L 790.956151 330.664992 
L 797.929515 332.564046 
L 804.901494 334.462722 
L 811.872193 336.36105 
L 818.841712 338.259056 
L 825.810141 340.156765 
L 832.777563 342.054201 
L 839.744056 343.951383 
L 846.709691 345.848332 
L 853.674535 347.745065 
L 860.638647 349.641598 
L 867.602084 351.537949 
L 874.564898 353.434129 
L 881.527136 355.330152 
L 888.488843 357.226031 
L 895.450059 359.121776 
L 902.410822 361.017398 
L 909.371166 362.912906 
L 916.331124 364.808309 
L 923.290726 366.703614 
L 930.249998 368.59883 
L 937.208966 370.493963 
L 944.167654 372.389019 
L 951.126081 374.284005 
L 958.08427 376.178926 
L 965.042237 378.073786 
L 972 379.968591 
" clip-path="url(#p2db2493ef2)" style="fill: none; stroke: #d0e1f2; stroke-width: 1.5; stroke-linecap: square"/>
   </g>
   <g id="patch_3">
    <path d="M 135 640.8 
L 135 86.4 
" style="fill: none; stroke: #000000; stroke-width: 0.8; stroke-linejoin: miter; stroke-linecap: square"/>
   </g>
   <g id="patch_4">
    <path d="M 972 640.8 
L 972 86.4 
" style="fill: none; stroke: #000000; stroke-width: 0.8; stroke-linejoin: miter; stroke-linecap: square"/>
   </g>
   <g id="patch_5">
    <path d="M 135 640.8 
L 972 640.8 
" style="fill: none; stroke: #000000; stroke-width: 0.8; stroke-linejoin: miter; stroke-linecap: square"/>
   </g>
   <g id="patch_6">
    <path d="M 135 86.4 
L 972 86.4 
" style="fill: none; stroke: #000000; stroke-width: 0.8; stroke-linejoin: miter; stroke-linecap: square"/>
   </g>
   <g id="legend_1">
    <g id="patch_7">
     <path d="M 882.078125 154.65625 
L 965 154.65625 
Q 967 154.65625 967 152.65625 
L 967 93.4 
Q 967 91.4 965 91.4 
L 882.078125 91.4 
Q 880.078125 91.4 880.078125 93.4 
L 880.078125 152.65625 
Q 880.078125 154.65625 882.078125 154.65625 
z
" style="fill: #ffffff; opacity: 0.8; stroke: #cccccc; stroke-linejoin: miter"/>
    </g>
    <g id="line2d_56">
     <path d="M 884.078125 99.498438 
L 894.078125 99.498438 
L 904.078125 99.498438 
" style="fill: none; stroke: #4a98c9; stroke-width: 1.5; stroke-linecap: square"/>
     <g>
      <use xlink:href="#m5aa27eb527" x="894.078125" y="99.498438" style="fill: #4a98c9; stroke: #4a98c9"/>
     </g>
    </g>
    <g id="text_12">
     <!-- sensitivity -->
     <g transform="translate(912.078125 102.998438)scale(0.1 -0.1)">
      <use xlink:href="#DejaVuSans-73"/>
      <use xlink:href="#DejaVuSans-65" x="52.099609"/>
      <use xlink:href="#DejaVuSans-6e" x="113.623047"/>
      <use xlink:href="#DejaVuSans-73" x="177.001953"/>
      <use xlink:href="#DejaVuSans-69" x="229.101562"/>
      <use xlink:href="#DejaVuSans-74" x="256.884766"/>
      <use xlink:href="#DejaVuSans-69" x="296.09375"/>
      <use xlink:href="#DejaVuSans-76" x="323.876953"/>
      <use xlink:href="#DejaVuSans-69" x="383.056641"/>
      <use xlink:href="#DejaVuSans-74" x="410.839844"/>
      <use xlink:href="#DejaVuSans-79" x="450.048828"/>
     </g>
    </g>
    <g id="line2d_57">
     <path d="M 884.078125 114.998438 
L 894.078125 114.998438 
L 904.078125 114.998438 
" style="fill: none; stroke: #d0e1f2; stroke-width: 1.5; stroke-linecap: square"/>
    </g>
    <g id="text_13">
     <!-- $\mathcal{O}(\kappa^{-2})$ -->
     <g transform="translate(912.078125 118.498438)scale(0.1 -0.1)">
      <defs>
       <path id="STIXNonUnicode-Italic-e23b" d="M 2304 4237 
L 2342 4090 
Q 1773 3923 1350 3158 
Q 928 2394 928 1472 
Q 928 838 1216 515 
Q 1504 192 1984 192 
Q 2349 192 2739 435 
Q 3130 678 3430 1101 
Q 3968 1862 3968 2944 
Q 3968 3398 3744 3660 
Q 3520 3923 3219 3923 
Q 2918 3923 2691 3728 
Q 2464 3533 2464 3232 
Q 2464 2995 2694 2995 
Q 2714 2995 2784 3011 
Q 2854 3027 2918 3027 
Q 3104 3027 3104 2816 
Q 3104 2637 2944 2496 
Q 2784 2355 2592 2355 
Q 2323 2355 2179 2534 
Q 2035 2714 2035 2995 
Q 2035 3475 2505 3878 
Q 2976 4282 3571 4282 
Q 4096 4282 4381 3882 
Q 4666 3482 4666 2938 
Q 4666 2400 4422 1837 
Q 4179 1274 3808 877 
Q 2931 -64 1754 -64 
Q 1101 -64 672 304 
Q 243 672 243 1363 
Q 243 1933 435 2457 
Q 627 2982 931 3347 
Q 1235 3712 1596 3949 
Q 1958 4186 2304 4237 
z
" transform="scale(0.015625)"/>
      </defs>
      <use xlink:href="#STIXNonUnicode-Italic-e23b" transform="translate(0 0.765625)"/>
      <use xlink:href="#DejaVuSans-28" transform="translate(73.699982 0.765625)"/>
      <use xlink:href="#DejaVuSans-Oblique-3ba" transform="translate(112.713654 0.765625)"/>
      <use xlink:href="#DejaVuSans-2212" transform="translate(176.115346 39.046875)scale(0.7)"/>
      <use xlink:href="#DejaVuSans-32" transform="translate(234.76769 39.046875)scale(0.7)"/>
      <use xlink:href="#DejaVuSans-29" transform="translate(282.038198 0.765625)"/>
     </g>
    </g>
    <g id="line2d_58">
     <path d="M 884.078125 129.676563 
L 894.078125 129.676563 
L 904.078125 129.676563 
" style="fill: none; stroke: #08306b; stroke-width: 1.5; stroke-linecap: square"/>
     <g>
      <use xlink:href="#m359b09f3be" x="894.078125" y="129.676563" style="fill: #08306b; stroke: #08306b"/>
     </g>
    </g>
    <g id="text_14">
     <!-- elasticity -->
     <g transform="translate(912.078125 133.176563)scale(0.1 -0.1)">
      <use xlink:href="#DejaVuSans-65"/>
      <use xlink:href="#DejaVuSans-6c" x="61.523438"/>
      <use xlink:href="#DejaVuSans-61" x="89.306641"/>
      <use xlink:href="#DejaVuSans-73" x="150.585938"/>
      <use xlink:href="#DejaVuSans-74" x="202.685547"/>
      <use xlink:href="#DejaVuSans-69" x="241.894531"/>
      <use xlink:href="#DejaVuSans-63" x="269.677734"/>
      <use xlink:href="#DejaVuSans-69" x="324.658203"/>
      <use xlink:href="#DejaVuSans-74" x="352.441406"/>
      <use xlink:href="#DejaVuSans-79" x="391.650391"/>
     </g>
    </g>
    <g id="line2d_59">
     <path d="M 884.078125 145.076563 
L 894.078125 145.076563 
L 904.078125 145.076563 
" style="fill: none; stroke: #d0e1f2; stroke-width: 1.5; stroke-linecap: square"/>
    </g>
    <g id="text_15">
     <!-- $\mathcal{O}(\kappa^{-1})$ -->
     <g transform="translate(912.078125 148.576563)scale(0.1 -0.1)">
      <use xlink:href="#STIXNonUnicode-Italic-e23b" transform="translate(0 0.684375)"/>
      <use xlink:href="#DejaVuSans-28" transform="translate(73.699982 0.684375)"/>
      <use xlink:href="#DejaVuSans-Oblique-3ba" transform="translate(112.713654 0.684375)"/>
      <use xlink:href="#DejaVuSans-2212" transform="translate(176.115346 38.965625)scale(0.7)"/>
      <use xlink:href="#DejaVuSans-31" transform="translate(234.76769 38.965625)scale(0.7)"/>
      <use xlink:href="#DejaVuSans-29" transform="translate(282.038198 0.684375)"/>
     </g>
    </g>
   </g>
  </g>
 </g>
 <defs>
  <clipPath id="p2db2493ef2">
   <rect x="135" y="86.4" width="837" height="554.4"/>
  </clipPath>
 </defs>
</svg>
