<?xml version="1.0" encoding="utf-8" standalone="no"?>
<!DOCTYPE svg PUBLIC "-//W3C//DTD SVG 1.1//EN"
  "http://www.w3.org/Graphics/SVG/1.1/DTD/svg11.dtd">
<svg xmlns:xlink="http://www.w3.org/1999/xlink" width="1080pt" height="580.032pt" viewBox="0 0 1080 580.032" xmlns="http://www.w3.org/2000/svg" version="1.1">
 <metadata>
  <rdf:RDF xmlns:dc="http://purl.org/dc/elements/1.1/" xmlns:cc="http://creativecommons.org/ns#" xmlns:rdf="http://www.w3.org/1999/02/22-rdf-syntax-ns#">
   <cc:Work>
    <dc:type rdf:resource="http://purl.org/dc/dcmitype/StillImage"/>
    <dc:date>2026-03-15T07:46:49.601655</dc:date>
    <dc:format>image/svg+xml</dc:format>
    <dc:creator>
     <cc:Agent>
      <dc:title>Matplotlib v3.5.3, https://matplotlib.org/</dc:title>
     </cc:Agent>
    </dc:creator>
   </cc:Work>
  </rdf:RDF>
 </metadata>
 <defs>
  <style type="text/css">*{stroke-linejoin: round; stroke-linecap: butt}</style>
 </defs>
 <g id="figure_1">
  <g id="patch_1">
   <path d="M 0 580.032 
L 1080 580.032 
L 1080 0 
L 0 0 
z
" style="fill: #ffffff"/>
  </g>
  <g id="axes_1">
   <g id="patch_2">
    <path d="M 135 516.22848 
L 972 516.22848 
L 972 69.60384 
L 135 69.60384 
z
" style="fill: #ffffff"/>
   </g>
   <g id="matplotlib.axis_1">
    <g id="xtick_1">
     <g id="line2d_1">
      <path d="M 135 516.22848 
L 135 69.60384 
" clip-path="url(#p328391b5a7)" style="fill: none; stroke: #b0b0b0; stroke-width: 0.25; stroke-linecap: square"/>
     </g>
     <g id="line2d_2">
      <defs>
       <path id="med9bac7f6b" d="M 0 0 
L 0 3.5 
" style="stroke: #000000; stroke-width: 0.8"/>
      </defs>
      <g>
       <use xlink:href="#med9bac7f6b" x="135" y="516.22848" style="stroke: #000000; stroke-width: 0.8"/>
      </g>
     </g>
     <g id="text_1">
      <!-- 0.0 -->
      <g transform="translate(127.048438 530.826917)scale(0.1 -0.1)">
       <defs>
        <path id="DejaVuSans-30" d="M 2034 4250 
Q 1547 4250 1301 3770 
Q 1056 3291 1056 2328 
Q 1056 1369 1301 889 
Q 1547 409 2034 409 
Q 2525 409 2770 889 
Q 3016 1369 3016 2328 
Q 3016 3291 2770 3770 
Q 2525 4250 2034 4250 
z
M 2034 4750 
Q 2819 4750 3233 4129 
Q 3647 3509 3647 2328 
Q 3647 1150 3233 529 
Q 2819 -91 2034 -91 
Q 1250 -91 836 529 
Q 422 1150 422 2328 
Q 422 3509 836 4129 
Q 1250 4750 2034 4750 
z
" transform="scale(0.015625)"/>
        <path id="DejaVuSans-2e" d="M 684 794 
L 1344 794 
L 1344 0 
L 684 0 
L 684 794 
z
" transform="scale(0.015625)"/>
       </defs>
       <use xlink:href="#DejaVuSans-30"/>
       <use xlink:href="#DejaVuSans-2e" x="63.623047"/>
       <use xlink:href="#DejaVuSans-30" x="95.410156"/>
      </g>
     </g>
    </g>
    <g id="xtick_2">
     <g id="line2d_3">
      <path d="M 302.4 516.22848 
L 302.4 69.60384 
" clip-path="url(#p328391b5a7)" style="fill: none; stroke: #b0b0b0; stroke-width: 0.25; stroke-linecap: square"/>
     </g>
     <g id="line2d_4">
      <g>
       <use xlink:href="#med9bac7f6b" x="302.4" y="516.22848" style="stroke: #000000; stroke-width: 0.8"/>
      </g>
     </g>
     <g id="text_2">
      <!-- 0.2 -->
      <g transform="translate(294.448437 530.826917)scale(0.1 -0.1)">
       <defs>
        <path id="DejaVuSans-32" d="M 1228 531 
L 3431 531 
L 3431 0 
L 469 0 
L 469 531 
Q 828 903 1448 1529 
Q 2069 2156 2228 2338 
Q 2531 2678 2651 2914 
Q 2772 3150 2772 3378 
Q 2772 3750 2511 3984 
Q 2250 4219 1831 4219 
Q 1534 4219 1204 4116 
Q 875 4013 500 3803 
L 500 4441 
Q 881 4594 1212 4672 
Q 1544 4750 1819 4750 
Q 2544 4750 2975 4387 
Q 3406 4025 3406 3419 
Q 3406 3131 3298 2873 
Q 3191 2616 2906 2266 
Q 2828 2175 2409 1742 
Q 1991 1309 1228 531 
z
" transform="scale(0.015625)"/>
       </defs>
       <use xlink:href="#DejaVuSans-30"/>
       <use xlink:href="#DejaVuSans-2e" x="63.623047"/>
       <use xlink:href="#DejaVuSans-32" x="95.410156"/>
      </g>
     </g>
    </g>
    <g id="xtick_3">
     <g id="line2d_5">
      <path d="M 469.8 516.22848 
L 469.8 69.60384 
" clip-path="url(#p328391b5a7)" style="fill: none; stroke: #b0b0b0; stroke-width: 0.25; stroke-linecap: square"/>
     </g>
     <g id="line2d_6">
      <g>
       <use xlink:href="#med9bac7f6b" x="469.8" y="516.22848" style="stroke: #000000; stroke-width: 0.8"/>
      </g>
     </g>
     <g id="text_3">
      <!-- 0.4 -->
      <g transform="translate(461.848437 530.826917)scale(0.1 -0.1)">
       <defs>
        <path id="DejaVuSans-34" d="M 2419 4116 
L 825 1625 
L 2419 1625 
L 2419 4116 
z
M 2253 4666 
L 3047 4666 
L 3047 1625 
L 3713 1625 
L 3713 1100 
L 3047 1100 
L 3047 0 
L 2419 0 
L 2419 1100 
L 313 1100 
L 313 1709 
L 2253 4666 
z
" transform="scale(0.015625)"/>
       </defs>
       <use xlink:href="#DejaVuSans-30"/>
       <use xlink:href="#DejaVuSans-2e" x="63.623047"/>
       <use xlink:href="#DejaVuSans-34" x="95.410156"/>
      </g>
     </g>
    </g>
    <g id="xtick_4">
     <g id="line2d_7">
      <path d="M 637.2 516.22848 
L 637.2 69.60384 
" clip-path="url(#p328391b5a7)" style="fill: none; stroke: #b0b0b0; stroke-width: 0.25; stroke-linecap: square"/>
     </g>
     <g id="line2d_8">
      <g>
       <use xlink:href="#med9bac7f6b" x="637.2" y="516.22848" style="stroke: #000000; stroke-width: 0.8"/>
      </g>
     </g>
     <g id="text_4">
      <!-- 0.6 -->
      <g transform="translate(629.248438 530.826917)scale(0.1 -0.1)">
       <defs>
        <path id="DejaVuSans-36" d="M 2113 2584 
Q 1688 2584 1439 2293 
Q 1191 2003 1191 1497 
Q 1191 994 1439 701 
Q 1688 409 2113 409 
Q 2538 409 2786 701 
Q 3034 994 3034 1497 
Q 3034 2003 2786 2293 
Q 2538 2584 2113 2584 
z
M 3366 4563 
L 3366 3988 
Q 3128 4100 2886 4159 
Q 2644 4219 2406 4219 
Q 1781 4219 1451 3797 
Q 1122 3375 1075 2522 
Q 1259 2794 1537 2939 
Q 1816 3084 2150 3084 
Q 2853 3084 3261 2657 
Q 3669 2231 3669 1497 
Q 3669 778 3244 343 
Q 2819 -91 2113 -91 
Q 1303 -91 875 529 
Q 447 1150 447 2328 
Q 447 3434 972 4092 
Q 1497 4750 2381 4750 
Q 2619 4750 2861 4703 
Q 3103 4656 3366 4563 
z
" transform="scale(0.015625)"/>
       </defs>
       <use xlink:href="#DejaVuSans-30"/>
       <use xlink:href="#DejaVuSans-2e" x="63.623047"/>
       <use xlink:href="#DejaVuSans-36" x="95.410156"/>
      </g>
     </g>
    </g>
    <g id="xtick_5">
     <g id="line2d_9">
      <path d="M 804.6 516.22848 
L 804.6 69.60384 
" clip-path="url(#p328391b5a7)" style="fill: none; stroke: #b0b0b0; stroke-width: 0.25; stroke-linecap: square"/>
     </g>
     <g id="line2d_10">
      <g>
       <use xlink:href="#med9bac7f6b" x="804.6" y="516.22848" style="stroke: #000000; stroke-width: 0.8"/>
      </g>
     </g>
     <g id="text_5">
      <!-- 0.8 -->
      <g transform="translate(796.648438 530.826917)scale(0.1 -0.1)">
       <defs>
        <path id="DejaVuSans-38" d="M 2034 2216 
Q 1584 2216 1326 1975 
Q 1069 1734 1069 1313 
Q 1069 891 1326 650 
Q 1584 409 2034 409 
Q 2484 409 2743 651 
Q 3003 894 3003 1313 
Q 3003 1734 2745 1975 
Q 2488 2216 2034 2216 
z
M 1403 2484 
Q 997 2584 770 2862 
Q 544 3141 544 3541 
Q 544 4100 942 4425 
Q 1341 4750 2034 4750 
Q 2731 4750 3128 4425 
Q 3525 4100 3525 3541 
Q 3525 3141 3298 2862 
Q 3072 2584 2669 2484 
Q 3125 2378 3379 2068 
Q 3634 1759 3634 1313 
Q 3634 634 3220 271 
Q 2806 -91 2034 -91 
Q 1263 -91 848 271 
Q 434 634 434 1313 
Q 434 1759 690 2068 
Q 947 2378 1403 2484 
z
M 1172 3481 
Q 1172 3119 1398 2916 
Q 1625 2713 2034 2713 
Q 2441 2713 2670 2916 
Q 2900 3119 2900 3481 
Q 2900 3844 2670 4047 
Q 2441 4250 2034 4250 
Q 1625 4250 1398 4047 
Q 1172 3844 1172 3481 
z
" transform="scale(0.015625)"/>
       </defs>
       <use xlink:href="#DejaVuSans-30"/>
       <use xlink:href="#DejaVuSans-2e" x="63.623047"/>
       <use xlink:href="#DejaVuSans-38" x="95.410156"/>
      </g>
     </g>
    </g>
    <g id="xtick_6">
     <g id="line2d_11">
      <path d="M 972 516.22848 
L 972 69.60384 
" clip-path="url(#p328391b5a7)" style="fill: none; stroke: #b0b0b0; stroke-width: 0.25; stroke-linecap: square"/>
     </g>
     <g id="line2d_12">
      <g>
       <use xlink:href="#med9bac7f6b" x="972" y="516.22848" style="stroke: #000000; stroke-width: 0.8"/>
      </g>
     </g>
     <g id="text_6">
      <!-- 1.0 -->
      <g transform="translate(964.048437 530.826917)scale(0.1 -0.1)">
       <defs>
        <path id="DejaVuSans-31" d="M 794 531 
L 1825 531 
L 1825 4091 
L 703 3866 
L 703 4441 
L 1819 4666 
L 2450 4666 
L 2450 531 
L 3481 531 
L 3481 0 
L 794 0 
L 794 531 
z
" transform="scale(0.015625)"/>
       </defs>
       <use xlink:href="#DejaVuSans-31"/>
       <use xlink:href="#DejaVuSans-2e" x="63.623047"/>
       <use xlink:href="#DejaVuSans-30" x="95.410156"/>
      </g>
     </g>
    </g>
    <g id="text_7">
     <!-- parameter $\mu$ -->
     <g transform="translate(522.3 544.48473)scale(0.1 -0.1)">
      <defs>
       <path id="DejaVuSans-70" d="M 1159 525 
L 1159 -1331 
L 581 -1331 
L 581 3500 
L 1159 3500 
L 1159 2969 
Q 1341 3281 1617 3432 
Q 1894 3584 2278 3584 
Q 2916 3584 3314 3078 
Q 3713 2572 3713 1747 
Q 3713 922 3314 415 
Q 2916 -91 2278 -91 
Q 1894 -91 1617 61 
Q 1341 213 1159 525 
z
M 3116 1747 
Q 3116 2381 2855 2742 
Q 2594 3103 2138 3103 
Q 1681 3103 1420 2742 
Q 1159 2381 1159 1747 
Q 1159 1113 1420 752 
Q 1681 391 2138 391 
Q 2594 391 2855 752 
Q 3116 1113 3116 1747 
z
" transform="scale(0.015625)"/>
       <path id="DejaVuSans-61" d="M 2194 1759 
Q 1497 1759 1228 1600 
Q 959 1441 959 1056 
Q 959 750 1161 570 
Q 1363 391 1709 391 
Q 2188 391 2477 730 
Q 2766 1069 2766 1631 
L 2766 1759 
L 2194 1759 
z
M 3341 1997 
L 3341 0 
L 2766 0 
L 2766 531 
Q 2569 213 2275 61 
Q 1981 -91 1556 -91 
Q 1019 -91 701 211 
Q 384 513 384 1019 
Q 384 1609 779 1909 
Q 1175 2209 1959 2209 
L 2766 2209 
L 2766 2266 
Q 2766 2663 2505 2880 
Q 2244 3097 1772 3097 
Q 1472 3097 1187 3025 
Q 903 2953 641 2809 
L 641 3341 
Q 956 3463 1253 3523 
Q 1550 3584 1831 3584 
Q 2591 3584 2966 3190 
Q 3341 2797 3341 1997 
z
" transform="scale(0.015625)"/>
       <path id="DejaVuSans-72" d="M 2631 2963 
Q 2534 3019 2420 3045 
Q 2306 3072 2169 3072 
Q 1681 3072 1420 2755 
Q 1159 2438 1159 1844 
L 1159 0 
L 581 0 
L 581 3500 
L 1159 3500 
L 1159 2956 
Q 1341 3275 1631 3429 
Q 1922 3584 2338 3584 
Q 2397 3584 2469 3576 
Q 2541 3569 2628 3553 
L 2631 2963 
z
" transform="scale(0.015625)"/>
       <path id="DejaVuSans-6d" d="M 3328 2828 
Q 3544 3216 3844 3400 
Q 4144 3584 4550 3584 
Q 5097 3584 5394 3201 
Q 5691 2819 5691 2113 
L 5691 0 
L 5113 0 
L 5113 2094 
Q 5113 2597 4934 2840 
Q 4756 3084 4391 3084 
Q 3944 3084 3684 2787 
Q 3425 2491 3425 1978 
L 3425 0 
L 2847 0 
L 2847 2094 
Q 2847 2600 2669 2842 
Q 2491 3084 2119 3084 
Q 1678 3084 1418 2786 
Q 1159 2488 1159 1978 
L 1159 0 
L 581 0 
L 581 3500 
L 1159 3500 
L 1159 2956 
Q 1356 3278 1631 3431 
Q 1906 3584 2284 3584 
Q 2666 3584 2933 3390 
Q 3200 3197 3328 2828 
z
" transform="scale(0.015625)"/>
       <path id="DejaVuSans-65" d="M 3597 1894 
L 3597 1613 
L 953 1613 
Q 991 1019 1311 708 
Q 1631 397 2203 397 
Q 2534 397 2845 478 
Q 3156 559 3463 722 
L 3463 178 
Q 3153 47 2828 -22 
Q 2503 -91 2169 -91 
Q 1331 -91 842 396 
Q 353 884 353 1716 
Q 353 2575 817 3079 
Q 1281 3584 2069 3584 
Q 2775 3584 3186 3129 
Q 3597 2675 3597 1894 
z
M 3022 2063 
Q 3016 2534 2758 2815 
Q 2500 3097 2075 3097 
Q 1594 3097 1305 2825 
Q 1016 2553 972 2059 
L 3022 2063 
z
" transform="scale(0.015625)"/>
       <path id="DejaVuSans-74" d="M 1172 4494 
L 1172 3500 
L 2356 3500 
L 2356 3053 
L 1172 3053 
L 1172 1153 
Q 1172 725 1289 603 
Q 1406 481 1766 481 
L 2356 481 
L 2356 0 
L 1766 0 
Q 1100 0 847 248 
Q 594 497 594 1153 
L 594 3053 
L 172 3053 
L 172 3500 
L 594 3500 
L 594 4494 
L 1172 4494 
z
" transform="scale(0.015625)"/>
       <path id="DejaVuSans-20" transform="scale(0.015625)"/>
       <path id="DejaVuSans-Oblique-3bc" d="M -84 -1331 
L 856 3500 
L 1434 3500 
L 1009 1322 
Q 997 1256 987 1175 
Q 978 1094 978 1013 
Q 978 722 1161 565 
Q 1344 409 1684 409 
Q 2147 409 2431 671 
Q 2716 934 2816 1459 
L 3213 3500 
L 3788 3500 
L 3266 809 
Q 3253 750 3248 706 
Q 3244 663 3244 628 
Q 3244 531 3283 486 
Q 3322 441 3406 441 
Q 3438 441 3492 456 
Q 3547 472 3647 513 
L 3559 50 
Q 3422 -19 3297 -55 
Q 3172 -91 3053 -91 
Q 2847 -91 2730 40 
Q 2613 172 2613 403 
Q 2438 153 2195 31 
Q 1953 -91 1625 -91 
Q 1334 -91 1117 43 
Q 900 178 831 397 
L 494 -1331 
L -84 -1331 
z
" transform="scale(0.015625)"/>
      </defs>
      <use xlink:href="#DejaVuSans-70" transform="translate(0 0.78125)"/>
      <use xlink:href="#DejaVuSans-61" transform="translate(63.476562 0.78125)"/>
      <use xlink:href="#DejaVuSans-72" transform="translate(124.755859 0.78125)"/>
      <use xlink:href="#DejaVuSans-61" transform="translate(165.869141 0.78125)"/>
      <use xlink:href="#DejaVuSans-6d" transform="translate(227.148438 0.78125)"/>
      <use xlink:href="#DejaVuSans-65" transform="translate(324.560547 0.78125)"/>
      <use xlink:href="#DejaVuSans-74" transform="translate(386.083984 0.78125)"/>
      <use xlink:href="#DejaVuSans-65" transform="translate(425.292969 0.78125)"/>
      <use xlink:href="#DejaVuSans-72" transform="translate(486.816406 0.78125)"/>
      <use xlink:href="#DejaVuSans-20" transform="translate(527.929688 0.78125)"/>
      <use xlink:href="#DejaVuSans-Oblique-3bc" transform="translate(559.716797 0.78125)"/>
     </g>
    </g>
   </g>
   <g id="matplotlib.axis_2">
    <g id="ytick_1">
     <g id="line2d_13">
      <path d="M 135 495.92736 
L 972 495.92736 
" clip-path="url(#p328391b5a7)" style="fill: none; stroke: #b0b0b0; stroke-width: 0.25; stroke-linecap: square"/>
     </g>
     <g id="line2d_14">
      <defs>
       <path id="m1711405ca0" d="M 0 0 
L -3.5 0 
" style="stroke: #000000; stroke-width: 0.8"/>
      </defs>
      <g>
       <use xlink:href="#m1711405ca0" x="135" y="495.92736" style="stroke: #000000; stroke-width: 0.8"/>
      </g>
     </g>
     <g id="text_8">
      <!-- 0.0 -->
      <g transform="translate(112.096875 499.726579)scale(0.1 -0.1)">
       <use xlink:href="#DejaVuSans-30"/>
       <use xlink:href="#DejaVuSans-2e" x="63.623047"/>
       <use xlink:href="#DejaVuSans-30" x="95.410156"/>
      </g>
     </g>
    </g>
    <g id="ytick_2">
     <g id="line2d_15">
      <path d="M 135 442.41098 
L 972 442.41098 
" clip-path="url(#p328391b5a7)" style="fill: none; stroke: #b0b0b0; stroke-width: 0.25; stroke-linecap: square"/>
     </g>
     <g id="line2d_16">
      <g>
       <use xlink:href="#m1711405ca0" x="135" y="442.41098" style="stroke: #000000; stroke-width: 0.8"/>
      </g>
     </g>
     <g id="text_9">
      <!-- 0.5 -->
      <g transform="translate(112.096875 446.210199)scale(0.1 -0.1)">
       <defs>
        <path id="DejaVuSans-35" d="M 691 4666 
L 3169 4666 
L 3169 4134 
L 1269 4134 
L 1269 2991 
Q 1406 3038 1543 3061 
Q 1681 3084 1819 3084 
Q 2600 3084 3056 2656 
Q 3513 2228 3513 1497 
Q 3513 744 3044 326 
Q 2575 -91 1722 -91 
Q 1428 -91 1123 -41 
Q 819 9 494 109 
L 494 744 
Q 775 591 1075 516 
Q 1375 441 1709 441 
Q 2250 441 2565 725 
Q 2881 1009 2881 1497 
Q 2881 1984 2565 2268 
Q 2250 2553 1709 2553 
Q 1456 2553 1204 2497 
Q 953 2441 691 2322 
L 691 4666 
z
" transform="scale(0.015625)"/>
       </defs>
       <use xlink:href="#DejaVuSans-30"/>
       <use xlink:href="#DejaVuSans-2e" x="63.623047"/>
       <use xlink:href="#DejaVuSans-35" x="95.410156"/>
      </g>
     </g>
    </g>
    <g id="ytick_3">
     <g id="line2d_17">
      <path d="M 135 388.8946 
L 972 388.8946 
" clip-path="url(#p328391b5a7)" style="fill: none; stroke: #b0b0b0; stroke-width: 0.25; stroke-linecap: square"/>
     </g>
     <g id="line2d_18">
      <g>
       <use xlink:href="#m1711405ca0" x="135" y="388.8946" style="stroke: #000000; stroke-width: 0.8"/>
      </g>
     </g>
     <g id="text_10">
      <!-- 1.0 -->
      <g transform="translate(112.096875 392.693819)scale(0.1 -0.1)">
       <use xlink:href="#DejaVuSans-31"/>
       <use xlink:href="#DejaVuSans-2e" x="63.623047"/>
       <use xlink:href="#DejaVuSans-30" x="95.410156"/>
      </g>
     </g>
    </g>
    <g id="ytick_4">
     <g id="line2d_19">
      <path d="M 135 335.37822 
L 972 335.37822 
" clip-path="url(#p328391b5a7)" style="fill: none; stroke: #b0b0b0; stroke-width: 0.25; stroke-linecap: square"/>
     </g>
     <g id="line2d_20">
      <g>
       <use xlink:href="#m1711405ca0" x="135" y="335.37822" style="stroke: #000000; stroke-width: 0.8"/>
      </g>
     </g>
     <g id="text_11">
      <!-- 1.5 -->
      <g transform="translate(112.096875 339.177439)scale(0.1 -0.1)">
       <use xlink:href="#DejaVuSans-31"/>
       <use xlink:href="#DejaVuSans-2e" x="63.623047"/>
       <use xlink:href="#DejaVuSans-35" x="95.410156"/>
      </g>
     </g>
    </g>
    <g id="ytick_5">
     <g id="line2d_21">
      <path d="M 135 281.86184 
L 972 281.86184 
" clip-path="url(#p328391b5a7)" style="fill: none; stroke: #b0b0b0; stroke-width: 0.25; stroke-linecap: square"/>
     </g>
     <g id="line2d_22">
      <g>
       <use xlink:href="#m1711405ca0" x="135" y="281.86184" style="stroke: #000000; stroke-width: 0.8"/>
      </g>
     </g>
     <g id="text_12">
      <!-- 2.0 -->
      <g transform="translate(112.096875 285.661059)scale(0.1 -0.1)">
       <use xlink:href="#DejaVuSans-32"/>
       <use xlink:href="#DejaVuSans-2e" x="63.623047"/>
       <use xlink:href="#DejaVuSans-30" x="95.410156"/>
      </g>
     </g>
    </g>
    <g id="ytick_6">
     <g id="line2d_23">
      <path d="M 135 228.345461 
L 972 228.345461 
" clip-path="url(#p328391b5a7)" style="fill: none; stroke: #b0b0b0; stroke-width: 0.25; stroke-linecap: square"/>
     </g>
     <g id="line2d_24">
      <g>
       <use xlink:href="#m1711405ca0" x="135" y="228.345461" style="stroke: #000000; stroke-width: 0.8"/>
      </g>
     </g>
     <g id="text_13">
      <!-- 2.5 -->
      <g transform="translate(112.096875 232.144679)scale(0.1 -0.1)">
       <use xlink:href="#DejaVuSans-32"/>
       <use xlink:href="#DejaVuSans-2e" x="63.623047"/>
       <use xlink:href="#DejaVuSans-35" x="95.410156"/>
      </g>
     </g>
    </g>
    <g id="ytick_7">
     <g id="line2d_25">
      <path d="M 135 174.829081 
L 972 174.829081 
" clip-path="url(#p328391b5a7)" style="fill: none; stroke: #b0b0b0; stroke-width: 0.25; stroke-linecap: square"/>
     </g>
     <g id="line2d_26">
      <g>
       <use xlink:href="#m1711405ca0" x="135" y="174.829081" style="stroke: #000000; stroke-width: 0.8"/>
      </g>
     </g>
     <g id="text_14">
      <!-- 3.0 -->
      <g transform="translate(112.096875 178.628299)scale(0.1 -0.1)">
       <defs>
        <path id="DejaVuSans-33" d="M 2597 2516 
Q 3050 2419 3304 2112 
Q 3559 1806 3559 1356 
Q 3559 666 3084 287 
Q 2609 -91 1734 -91 
Q 1441 -91 1130 -33 
Q 819 25 488 141 
L 488 750 
Q 750 597 1062 519 
Q 1375 441 1716 441 
Q 2309 441 2620 675 
Q 2931 909 2931 1356 
Q 2931 1769 2642 2001 
Q 2353 2234 1838 2234 
L 1294 2234 
L 1294 2753 
L 1863 2753 
Q 2328 2753 2575 2939 
Q 2822 3125 2822 3475 
Q 2822 3834 2567 4026 
Q 2313 4219 1838 4219 
Q 1578 4219 1281 4162 
Q 984 4106 628 3988 
L 628 4550 
Q 988 4650 1302 4700 
Q 1616 4750 1894 4750 
Q 2613 4750 3031 4423 
Q 3450 4097 3450 3541 
Q 3450 3153 3228 2886 
Q 3006 2619 2597 2516 
z
" transform="scale(0.015625)"/>
       </defs>
       <use xlink:href="#DejaVuSans-33"/>
       <use xlink:href="#DejaVuSans-2e" x="63.623047"/>
       <use xlink:href="#DejaVuSans-30" x="95.410156"/>
      </g>
     </g>
    </g>
    <g id="ytick_8">
     <g id="line2d_27">
      <path d="M 135 121.312701 
L 972 121.312701 
" clip-path="url(#p328391b5a7)" style="fill: none; stroke: #b0b0b0; stroke-width: 0.25; stroke-linecap: square"/>
     </g>
     <g id="line2d_28">
      <g>
       <use xlink:href="#m1711405ca0" x="135" y="121.312701" style="stroke: #000000; stroke-width: 0.8"/>
      </g>
     </g>
     <g id="text_15">
      <!-- 3.5 -->
      <g transform="translate(112.096875 125.111919)scale(0.1 -0.1)">
       <use xlink:href="#DejaVuSans-33"/>
       <use xlink:href="#DejaVuSans-2e" x="63.623047"/>
       <use xlink:href="#DejaVuSans-35" x="95.410156"/>
      </g>
     </g>
    </g>
    <g id="text_16">
     <!-- sensitivity $\mathcal{S}\,(\mu)$ -->
     <g transform="translate(105.996875 331.06616)rotate(-90)scale(0.1 -0.1)">
      <defs>
       <path id="DejaVuSans-73" d="M 2834 3397 
L 2834 2853 
Q 2591 2978 2328 3040 
Q 2066 3103 1784 3103 
Q 1356 3103 1142 2972 
Q 928 2841 928 2578 
Q 928 2378 1081 2264 
Q 1234 2150 1697 2047 
L 1894 2003 
Q 2506 1872 2764 1633 
Q 3022 1394 3022 966 
Q 3022 478 2636 193 
Q 2250 -91 1575 -91 
Q 1294 -91 989 -36 
Q 684 19 347 128 
L 347 722 
Q 666 556 975 473 
Q 1284 391 1588 391 
Q 1994 391 2212 530 
Q 2431 669 2431 922 
Q 2431 1156 2273 1281 
Q 2116 1406 1581 1522 
L 1381 1569 
Q 847 1681 609 1914 
Q 372 2147 372 2553 
Q 372 3047 722 3315 
Q 1072 3584 1716 3584 
Q 2034 3584 2315 3537 
Q 2597 3491 2834 3397 
z
" transform="scale(0.015625)"/>
       <path id="DejaVuSans-6e" d="M 3513 2113 
L 3513 0 
L 2938 0 
L 2938 2094 
Q 2938 2591 2744 2837 
Q 2550 3084 2163 3084 
Q 1697 3084 1428 2787 
Q 1159 2491 1159 1978 
L 1159 0 
L 581 0 
L 581 3500 
L 1159 3500 
L 1159 2956 
Q 1366 3272 1645 3428 
Q 1925 3584 2291 3584 
Q 2894 3584 3203 3211 
Q 3513 2838 3513 2113 
z
" transform="scale(0.015625)"/>
       <path id="DejaVuSans-69" d="M 603 3500 
L 1178 3500 
L 1178 0 
L 603 0 
L 603 3500 
z
M 603 4863 
L 1178 4863 
L 1178 4134 
L 603 4134 
L 603 4863 
z
" transform="scale(0.015625)"/>
       <path id="DejaVuSans-76" d="M 191 3500 
L 800 3500 
L 1894 563 
L 2988 3500 
L 3597 3500 
L 2284 0 
L 1503 0 
L 191 3500 
z
" transform="scale(0.015625)"/>
       <path id="DejaVuSans-79" d="M 2059 -325 
Q 1816 -950 1584 -1140 
Q 1353 -1331 966 -1331 
L 506 -1331 
L 506 -850 
L 844 -850 
Q 1081 -850 1212 -737 
Q 1344 -625 1503 -206 
L 1606 56 
L 191 3500 
L 800 3500 
L 1894 763 
L 2988 3500 
L 3597 3500 
L 2059 -325 
z
" transform="scale(0.015625)"/>
       <path id="STIXNonUnicode-Italic-e23f" d="M 243 1235 
L 410 1254 
Q 518 582 1139 365 
Q 1421 262 1766 262 
Q 2304 262 2685 515 
Q 3066 768 3066 1235 
Q 3066 1427 2883 1571 
Q 2701 1715 2445 1817 
Q 2189 1920 1929 2045 
Q 1670 2170 1488 2403 
Q 1306 2637 1306 2970 
Q 1306 3290 1507 3555 
Q 1709 3821 2000 3974 
Q 2291 4128 2572 4211 
Q 2854 4294 3059 4294 
Q 3603 4294 3948 4134 
Q 4294 3974 4294 3642 
Q 4294 3462 4182 3299 
Q 4070 3136 3853 3136 
Q 3712 3136 3603 3232 
Q 3494 3328 3494 3456 
Q 3494 3603 3590 3708 
Q 3686 3814 3686 3840 
Q 3686 3917 3628 3965 
Q 3571 4013 3456 4032 
Q 3341 4051 3264 4054 
Q 3187 4058 3059 4058 
Q 2931 4058 2745 4010 
Q 2560 3962 2352 3866 
Q 2144 3770 2000 3581 
Q 1856 3392 1856 3155 
Q 1856 2931 2057 2771 
Q 2259 2611 2550 2502 
Q 2842 2394 3133 2269 
Q 3424 2144 3625 1920 
Q 3827 1696 3827 1376 
Q 3827 902 3206 451 
Q 2586 0 1805 0 
Q 992 0 617 339 
Q 243 678 243 1235 
z
" transform="scale(0.015625)"/>
       <path id="DejaVuSans-28" d="M 1984 4856 
Q 1566 4138 1362 3434 
Q 1159 2731 1159 2009 
Q 1159 1288 1364 580 
Q 1569 -128 1984 -844 
L 1484 -844 
Q 1016 -109 783 600 
Q 550 1309 550 2009 
Q 550 2706 781 3412 
Q 1013 4119 1484 4856 
L 1984 4856 
z
" transform="scale(0.015625)"/>
       <path id="DejaVuSans-29" d="M 513 4856 
L 1013 4856 
Q 1481 4119 1714 3412 
Q 1947 2706 1947 2009 
Q 1947 1309 1714 600 
Q 1481 -109 1013 -844 
L 513 -844 
Q 928 -128 1133 580 
Q 1338 1288 1338 2009 
Q 1338 2731 1133 3434 
Q 928 4138 513 4856 
z
" transform="scale(0.015625)"/>
      </defs>
      <use xlink:href="#DejaVuSans-73" transform="translate(0 0.015625)"/>
      <use xlink:href="#DejaVuSans-65" transform="translate(52.099609 0.015625)"/>
      <use xlink:href="#DejaVuSans-6e" transform="translate(113.623047 0.015625)"/>
      <use xlink:href="#DejaVuSans-73" transform="translate(177.001953 0.015625)"/>
      <use xlink:href="#DejaVuSans-69" transform="translate(229.101562 0.015625)"/>
      <use xlink:href="#DejaVuSans-74" transform="translate(256.884766 0.015625)"/>
      <use xlink:href="#DejaVuSans-69" transform="translate(296.09375 0.015625)"/>
      <use xlink:href="#DejaVuSans-76" transform="translate(323.876953 0.015625)"/>
      <use xlink:href="#DejaVuSans-69" transform="translate(383.056641 0.015625)"/>
      <use xlink:href="#DejaVuSans-74" transform="translate(410.839844 0.015625)"/>
      <use xlink:href="#DejaVuSans-79" transform="translate(450.048828 0.015625)"/>
      <use xlink:href="#DejaVuSans-20" transform="translate(509.228516 0.015625)"/>
      <use xlink:href="#STIXNonUnicode-Italic-e23f" transform="translate(541.015625 0.015625)"/>
      <use xlink:href="#DejaVuSans-28" transform="translate(620.651295 0.015625)"/>
      <use xlink:href="#DejaVuSans-Oblique-3bc" transform="translate(659.664967 0.015625)"/>
      <use xlink:href="#DejaVuSans-29" transform="translate(723.288014 0.015625)"/>
     </g>
    </g>
   </g>
   <g id="line2d_29">
    <path d="M 135 495.92736 
L 143.454545 490.776188 
L 151.909091 485.257731 
L 160.363636 479.352867 
L 168.818182 473.046139 
L 177.272727 466.327762 
L 185.727273 459.19609 
L 194.181818 451.660526 
L 202.636364 443.744718 
L 211.090909 435.489771 
L 219.545455 426.957026 
L 228 418.229761 
L 236.454545 409.413101 
L 244.909091 400.631442 
L 253.363636 392.022975 
L 261.818182 383.731436 
L 270.272727 375.895886 
L 278.727273 368.639986 
L 287.181818 362.062532 
L 295.636364 356.230893 
L 304.090909 351.178335 
L 312.545455 346.905298 
L 321 343.38392 
L 329.454545 340.564535 
L 337.909091 338.38286 
L 346.363636 336.766739 
L 354.818182 335.641795 
L 363.272727 334.935664 
L 371.727273 334.580841 
L 380.181818 334.516327 
L 388.636364 334.688345 
L 397.090909 335.050399 
L 405.545455 335.562908 
L 414 336.192602 
L 422.454545 336.911802 
L 430.909091 337.697688 
L 439.363636 338.531586 
L 447.818182 339.39832 
L 456.272727 340.285642 
L 464.727273 341.18373 
L 473.181818 342.084761 
L 481.636364 342.982557 
L 490.090909 343.872283 
L 498.545455 344.750196 
L 507 345.613443 
L 515.454545 346.459891 
L 523.909091 347.287985 
L 532.363636 348.09664 
L 540.818182 348.885143 
L 549.272727 349.653084 
L 557.727273 350.400286 
L 566.181818 351.126763 
L 574.636364 351.832675 
L 583.090909 352.518295 
L 591.545455 353.183983 
L 600 353.830167 
L 608.454545 354.45732 
L 616.909091 355.065951 
L 625.363636 355.656591 
L 633.818182 356.229785 
L 642.272727 356.786082 
L 650.727273 357.326036 
L 659.181818 357.850193 
L 667.636364 358.359095 
L 676.090909 358.853272 
L 684.545455 359.333243 
L 693 359.799513 
L 701.454545 360.252572 
L 709.909091 360.692896 
L 718.363636 361.120944 
L 726.818182 361.537161 
L 735.272727 361.941974 
L 743.727273 362.335795 
L 752.181818 362.719021 
L 760.636364 363.092033 
L 769.090909 363.455197 
L 777.545455 363.808864 
L 786 364.153372 
L 794.454545 364.489045 
L 802.909091 364.816194 
L 811.363636 365.135116 
L 819.818182 365.446097 
L 828.272727 365.749412 
L 836.727273 366.045322 
L 845.181818 366.334081 
L 853.636364 366.61593 
L 862.090909 366.891101 
L 870.545455 367.159816 
L 879 367.422288 
L 887.454545 367.678723 
L 895.909091 367.929317 
L 904.363636 368.174257 
L 912.818182 368.413726 
L 921.272727 368.647898 
L 929.727273 368.876938 
L 938.181818 369.101008 
L 946.636364 369.320262 
L 955.090909 369.534847 
L 963.545455 369.744906 
L 972 369.950577 
" clip-path="url(#p328391b5a7)" style="fill: none; stroke: #08306b; stroke-width: 1.5; stroke-linecap: square"/>
    <defs>
     <path id="m9d75098525" d="M 0 1.5 
C 0.397805 1.5 0.77937 1.341951 1.06066 1.06066 
C 1.341951 0.77937 1.5 0.397805 1.5 0 
C 1.5 -0.397805 1.341951 -0.77937 1.06066 -1.06066 
C 0.77937 -1.341951 0.397805 -1.5 0 -1.5 
C -0.397805 -1.5 -0.77937 -1.341951 -1.06066 -1.06066 
C -1.341951 -0.77937 -1.5 -0.397805 -1.5 0 
C -1.5 0.397805 -1.341951 0.77937 -1.06066 1.06066 
C -0.77937 1.341951 -0.397805 1.5 0 1.5 
z
" style="stroke: #08306b"/>
    </defs>
    <g clip-path="url(#p328391b5a7)">
     <use xlink:href="#m9d75098525" x="135" y="495.92736" style="fill: #08306b; stroke: #08306b"/>
     <use xlink:href="#m9d75098525" x="143.454545" y="490.776188" style="fill: #08306b; stroke: #08306b"/>
     <use xlink:href="#m9d75098525" x="151.909091" y="485.257731" style="fill: #08306b; stroke: #08306b"/>
     <use xlink:href="#m9d75098525" x="160.363636" y="479.352867" style="fill: #08306b; stroke: #08306b"/>
     <use xlink:href="#m9d75098525" x="168.818182" y="473.046139" style="fill: #08306b; stroke: #08306b"/>
     <use xlink:href="#m9d75098525" x="177.272727" y="466.327762" style="fill: #08306b; stroke: #08306b"/>
     <use xlink:href="#m9d75098525" x="185.727273" y="459.19609" style="fill: #08306b; stroke: #08306b"/>
     <use xlink:href="#m9d75098525" x="194.181818" y="451.660526" style="fill: #08306b; stroke: #08306b"/>
     <use xlink:href="#m9d75098525" x="202.636364" y="443.744718" style="fill: #08306b; stroke: #08306b"/>
     <use xlink:href="#m9d75098525" x="211.090909" y="435.489771" style="fill: #08306b; stroke: #08306b"/>
     <use xlink:href="#m9d75098525" x="219.545455" y="426.957026" style="fill: #08306b; stroke: #08306b"/>
     <use xlink:href="#m9d75098525" x="228" y="418.229761" style="fill: #08306b; stroke: #08306b"/>
     <use xlink:href="#m9d75098525" x="236.454545" y="409.413101" style="fill: #08306b; stroke: #08306b"/>
     <use xlink:href="#m9d75098525" x="244.909091" y="400.631442" style="fill: #08306b; stroke: #08306b"/>
     <use xlink:href="#m9d75098525" x="253.363636" y="392.022975" style="fill: #08306b; stroke: #08306b"/>
     <use xlink:href="#m9d75098525" x="261.818182" y="383.731436" style="fill: #08306b; stroke: #08306b"/>
     <use xlink:href="#m9d75098525" x="270.272727" y="375.895886" style="fill: #08306b; stroke: #08306b"/>
     <use xlink:href="#m9d75098525" x="278.727273" y="368.639986" style="fill: #08306b; stroke: #08306b"/>
     <use xlink:href="#m9d75098525" x="287.181818" y="362.062532" style="fill: #08306b; stroke: #08306b"/>
     <use xlink:href="#m9d75098525" x="295.636364" y="356.230893" style="fill: #08306b; stroke: #08306b"/>
     <use xlink:href="#m9d75098525" x="304.090909" y="351.178335" style="fill: #08306b; stroke: #08306b"/>
     <use xlink:href="#m9d75098525" x="312.545455" y="346.905298" style="fill: #08306b; stroke: #08306b"/>
     <use xlink:href="#m9d75098525" x="321" y="343.38392" style="fill: #08306b; stroke: #08306b"/>
     <use xlink:href="#m9d75098525" x="329.454545" y="340.564535" style="fill: #08306b; stroke: #08306b"/>
     <use xlink:href="#m9d75098525" x="337.909091" y="338.38286" style="fill: #08306b; stroke: #08306b"/>
     <use xlink:href="#m9d75098525" x="346.363636" y="336.766739" style="fill: #08306b; stroke: #08306b"/>
     <use xlink:href="#m9d75098525" x="354.818182" y="335.641795" style="fill: #08306b; stroke: #08306b"/>
     <use xlink:href="#m9d75098525" x="363.272727" y="334.935664" style="fill: #08306b; stroke: #08306b"/>
     <use xlink:href="#m9d75098525" x="371.727273" y="334.580841" style="fill: #08306b; stroke: #08306b"/>
     <use xlink:href="#m9d75098525" x="380.181818" y="334.516327" style="fill: #08306b; stroke: #08306b"/>
     <use xlink:href="#m9d75098525" x="388.636364" y="334.688345" style="fill: #08306b; stroke: #08306b"/>
     <use xlink:href="#m9d75098525" x="397.090909" y="335.050399" style="fill: #08306b; stroke: #08306b"/>
     <use xlink:href="#m9d75098525" x="405.545455" y="335.562908" style="fill: #08306b; stroke: #08306b"/>
     <use xlink:href="#m9d75098525" x="414" y="336.192602" style="fill: #08306b; stroke: #08306b"/>
     <use xlink:href="#m9d75098525" x="422.454545" y="336.911802" style="fill: #08306b; stroke: #08306b"/>
     <use xlink:href="#m9d75098525" x="430.909091" y="337.697688" style="fill: #08306b; stroke: #08306b"/>
     <use xlink:href="#m9d75098525" x="439.363636" y="338.531586" style="fill: #08306b; stroke: #08306b"/>
     <use xlink:href="#m9d75098525" x="447.818182" y="339.39832" style="fill: #08306b; stroke: #08306b"/>
     <use xlink:href="#m9d75098525" x="456.272727" y="340.285642" style="fill: #08306b; stroke: #08306b"/>
     <use xlink:href="#m9d75098525" x="464.727273" y="341.18373" style="fill: #08306b; stroke: #08306b"/>
     <use xlink:href="#m9d75098525" x="473.181818" y="342.084761" style="fill: #08306b; stroke: #08306b"/>
     <use xlink:href="#m9d75098525" x="481.636364" y="342.982557" style="fill: #08306b; stroke: #08306b"/>
     <use xlink:href="#m9d75098525" x="490.090909" y="343.872283" style="fill: #08306b; stroke: #08306b"/>
     <use xlink:href="#m9d75098525" x="498.545455" y="344.750196" style="fill: #08306b; stroke: #08306b"/>
     <use xlink:href="#m9d75098525" x="507" y="345.613443" style="fill: #08306b; stroke: #08306b"/>
     <use xlink:href="#m9d75098525" x="515.454545" y="346.459891" style="fill: #08306b; stroke: #08306b"/>
     <use xlink:href="#m9d75098525" x="523.909091" y="347.287985" style="fill: #08306b; stroke: #08306b"/>
     <use xlink:href="#m9d75098525" x="532.363636" y="348.09664" style="fill: #08306b; stroke: #08306b"/>
     <use xlink:href="#m9d75098525" x="540.818182" y="348.885143" style="fill: #08306b; stroke: #08306b"/>
     <use xlink:href="#m9d75098525" x="549.272727" y="349.653084" style="fill: #08306b; stroke: #08306b"/>
     <use xlink:href="#m9d75098525" x="557.727273" y="350.400286" style="fill: #08306b; stroke: #08306b"/>
     <use xlink:href="#m9d75098525" x="566.181818" y="351.126763" style="fill: #08306b; stroke: #08306b"/>
     <use xlink:href="#m9d75098525" x="574.636364" y="351.832675" style="fill: #08306b; stroke: #08306b"/>
     <use xlink:href="#m9d75098525" x="583.090909" y="352.518295" style="fill: #08306b; stroke: #08306b"/>
     <use xlink:href="#m9d75098525" x="591.545455" y="353.183983" style="fill: #08306b; stroke: #08306b"/>
     <use xlink:href="#m9d75098525" x="600" y="353.830167" style="fill: #08306b; stroke: #08306b"/>
     <use xlink:href="#m9d75098525" x="608.454545" y="354.45732" style="fill: #08306b; stroke: #08306b"/>
     <use xlink:href="#m9d75098525" x="616.909091" y="355.065951" style="fill: #08306b; stroke: #08306b"/>
     <use xlink:href="#m9d75098525" x="625.363636" y="355.656591" style="fill: #08306b; stroke: #08306b"/>
     <use xlink:href="#m9d75098525" x="633.818182" y="356.229785" style="fill: #08306b; stroke: #08306b"/>
     <use xlink:href="#m9d75098525" x="642.272727" y="356.786082" style="fill: #08306b; stroke: #08306b"/>
     <use xlink:href="#m9d75098525" x="650.727273" y="357.326036" style="fill: #08306b; stroke: #08306b"/>
     <use xlink:href="#m9d75098525" x="659.181818" y="357.850193" style="fill: #08306b; stroke: #08306b"/>
     <use xlink:href="#m9d75098525" x="667.636364" y="358.359095" style="fill: #08306b; stroke: #08306b"/>
     <use xlink:href="#m9d75098525" x="676.090909" y="358.853272" style="fill: #08306b; stroke: #08306b"/>
     <use xlink:href="#m9d75098525" x="684.545455" y="359.333243" style="fill: #08306b; stroke: #08306b"/>
     <use xlink:href="#m9d75098525" x="693" y="359.799513" style="fill: #08306b; stroke: #08306b"/>
     <use xlink:href="#m9d75098525" x="701.454545" y="360.252572" style="fill: #08306b; stroke: #08306b"/>
     <use xlink:href="#m9d75098525" x="709.909091" y="360.692896" style="fill: #08306b; stroke: #08306b"/>
     <use xlink:href="#m9d75098525" x="718.363636" y="361.120944" style="fill: #08306b; stroke: #08306b"/>
     <use xlink:href="#m9d75098525" x="726.818182" y="361.537161" style="fill: #08306b; stroke: #08306b"/>
     <use xlink:href="#m9d75098525" x="735.272727" y="361.941974" style="fill: #08306b; stroke: #08306b"/>
     <use xlink:href="#m9d75098525" x="743.727273" y="362.335795" style="fill: #08306b; stroke: #08306b"/>
     <use xlink:href="#m9d75098525" x="752.181818" y="362.719021" style="fill: #08306b; stroke: #08306b"/>
     <use xlink:href="#m9d75098525" x="760.636364" y="363.092033" style="fill: #08306b; stroke: #08306b"/>
     <use xlink:href="#m9d75098525" x="769.090909" y="363.455197" style="fill: #08306b; stroke: #08306b"/>
     <use xlink:href="#m9d75098525" x="777.545455" y="363.808864" style="fill: #08306b; stroke: #08306b"/>
     <use xlink:href="#m9d75098525" x="786" y="364.153372" style="fill: #08306b; stroke: #08306b"/>
     <use xlink:href="#m9d75098525" x="794.454545" y="364.489045" style="fill: #08306b; stroke: #08306b"/>
     <use xlink:href="#m9d75098525" x="802.909091" y="364.816194" style="fill: #08306b; stroke: #08306b"/>
     <use xlink:href="#m9d75098525" x="811.363636" y="365.135116" style="fill: #08306b; stroke: #08306b"/>
     <use xlink:href="#m9d75098525" x="819.818182" y="365.446097" style="fill: #08306b; stroke: #08306b"/>
     <use xlink:href="#m9d75098525" x="828.272727" y="365.749412" style="fill: #08306b; stroke: #08306b"/>
     <use xlink:href="#m9d75098525" x="836.727273" y="366.045322" style="fill: #08306b; stroke: #08306b"/>
     <use xlink:href="#m9d75098525" x="845.181818" y="366.334081" style="fill: #08306b; stroke: #08306b"/>
     <use xlink:href="#m9d75098525" x="853.636364" y="366.61593" style="fill: #08306b; stroke: #08306b"/>
     <use xlink:href="#m9d75098525" x="862.090909" y="366.891101" style="fill: #08306b; stroke: #08306b"/>
     <use xlink:href="#m9d75098525" x="870.545455" y="367.159816" style="fill: #08306b; stroke: #08306b"/>
     <use xlink:href="#m9d75098525" x="879" y="367.422288" style="fill: #08306b; stroke: #08306b"/>
     <use xlink:href="#m9d75098525" x="887.454545" y="367.678723" style="fill: #08306b; stroke: #08306b"/>
     <use xlink:href="#m9d75098525" x="895.909091" y="367.929317" style="fill: #08306b; stroke: #08306b"/>
     <use xlink:href="#m9d75098525" x="904.363636" y="368.174257" style="fill: #08306b; stroke: #08306b"/>
     <use xlink:href="#m9d75098525" x="912.818182" y="368.413726" style="fill: #08306b; stroke: #08306b"/>
     <use xlink:href="#m9d75098525" x="921.272727" y="368.647898" style="fill: #08306b; stroke: #08306b"/>
     <use xlink:href="#m9d75098525" x="929.727273" y="368.876938" style="fill: #08306b; stroke: #08306b"/>
     <use xlink:href="#m9d75098525" x="938.181818" y="369.101008" style="fill: #08306b; stroke: #08306b"/>
     <use xlink:href="#m9d75098525" x="946.636364" y="369.320262" style="fill: #08306b; stroke: #08306b"/>
     <use xlink:href="#m9d75098525" x="955.090909" y="369.534847" style="fill: #08306b; stroke: #08306b"/>
     <use xlink:href="#m9d75098525" x="963.545455" y="369.744906" style="fill: #08306b; stroke: #08306b"/>
     <use xlink:href="#m9d75098525" x="972" y="369.950577" style="fill: #08306b; stroke: #08306b"/>
    </g>
   </g>
   <g id="LineCollection_1">
    <path d="M 135 89.90496 
L 972 89.90496 
" clip-path="url(#p328391b5a7)" style="fill: none; stroke: #d0e1f2; stroke-width: 1.5"/>
   </g>
   <g id="patch_3">
    <path d="M 135 516.22848 
L 135 69.60384 
" style="fill: none; stroke: #000000; stroke-width: 0.8; stroke-linejoin: miter; stroke-linecap: square"/>
   </g>
   <g id="patch_4">
    <path d="M 972 516.22848 
L 972 69.60384 
" style="fill: none; stroke: #000000; stroke-width: 0.8; stroke-linejoin: miter; stroke-linecap: square"/>
   </g>
   <g id="patch_5">
    <path d="M 135 516.22848 
L 972 516.22848 
" style="fill: none; stroke: #000000; stroke-width: 0.8; stroke-linejoin: miter; stroke-linecap: square"/>
   </g>
   <g id="patch_6">
    <path d="M 135 69.60384 
L 972 69.60384 
" style="fill: none; stroke: #000000; stroke-width: 0.8; stroke-linejoin: miter; stroke-linecap: square"/>
   </g>
   <g id="legend_1">
    <g id="patch_7">
     <path d="M 882.078125 106.96009 
L 965 106.96009 
Q 967 106.96009 967 104.96009 
L 967 76.60384 
Q 967 74.60384 965 74.60384 
L 882.078125 74.60384 
Q 880.078125 74.60384 880.078125 76.60384 
L 880.078125 104.96009 
Q 880.078125 106.96009 882.078125 106.96009 
z
" style="fill: #ffffff; opacity: 0.8; stroke: #cccccc; stroke-linejoin: miter"/>
    </g>
    <g id="line2d_30">
     <path d="M 884.078125 82.702277 
L 894.078125 82.702277 
L 904.078125 82.702277 
" style="fill: none; stroke: #08306b; stroke-width: 1.5; stroke-linecap: square"/>
     <g>
      <use xlink:href="#m9d75098525" x="894.078125" y="82.702277" style="fill: #08306b; stroke: #08306b"/>
     </g>
    </g>
    <g id="text_17">
     <!-- elasticity -->
     <g transform="translate(912.078125 86.202277)scale(0.1 -0.1)">
      <defs>
       <path id="DejaVuSans-6c" d="M 603 4863 
L 1178 4863 
L 1178 0 
L 603 0 
L 603 4863 
z
" transform="scale(0.015625)"/>
       <path id="DejaVuSans-63" d="M 3122 3366 
L 3122 2828 
Q 2878 2963 2633 3030 
Q 2388 3097 2138 3097 
Q 1578 3097 1268 2742 
Q 959 2388 959 1747 
Q 959 1106 1268 751 
Q 1578 397 2138 397 
Q 2388 397 2633 464 
Q 2878 531 3122 666 
L 3122 134 
Q 2881 22 2623 -34 
Q 2366 -91 2075 -91 
Q 1284 -91 818 406 
Q 353 903 353 1747 
Q 353 2603 823 3093 
Q 1294 3584 2113 3584 
Q 2378 3584 2631 3529 
Q 2884 3475 3122 3366 
z
" transform="scale(0.015625)"/>
      </defs>
      <use xlink:href="#DejaVuSans-65"/>
      <use xlink:href="#DejaVuSans-6c" x="61.523438"/>
      <use xlink:href="#DejaVuSans-61" x="89.306641"/>
      <use xlink:href="#DejaVuSans-73" x="150.585938"/>
      <use xlink:href="#DejaVuSans-74" x="202.685547"/>
      <use xlink:href="#DejaVuSans-69" x="241.894531"/>
      <use xlink:href="#DejaVuSans-63" x="269.677734"/>
      <use xlink:href="#DejaVuSans-69" x="324.658203"/>
      <use xlink:href="#DejaVuSans-74" x="352.441406"/>
      <use xlink:href="#DejaVuSans-79" x="391.650391"/>
     </g>
    </g>
    <g id="line2d_31">
     <path d="M 884.078125 97.380403 
L 904.078125 97.380403 
" style="fill: none; stroke: #d0e1f2; stroke-width: 1.5"/>
    </g>
    <g id="text_18">
     <!-- sensitivity -->
     <g transform="translate(912.078125 100.880403)scale(0.1 -0.1)">
      <use xlink:href="#DejaVuSans-73"/>
      <use xlink:href="#DejaVuSans-65" x="52.099609"/>
      <use xlink:href="#DejaVuSans-6e" x="113.623047"/>
      <use xlink:href="#DejaVuSans-73" x="177.001953"/>
      <use xlink:href="#DejaVuSans-69" x="229.101562"/>
      <use xlink:href="#DejaVuSans-74" x="256.884766"/>
      <use xlink:href="#DejaVuSans-69" x="296.09375"/>
      <use xlink:href="#DejaVuSans-76" x="323.876953"/>
      <use xlink:href="#DejaVuSans-69" x="383.056641"/>
      <use xlink:href="#DejaVuSans-74" x="410.839844"/>
      <use xlink:href="#DejaVuSans-79" x="450.048828"/>
     </g>
    </g>
   </g>
  </g>
 </g>
 <defs>
  <clipPath id="p328391b5a7">
   <rect x="135" y="69.60384" width="837" height="446.62464"/>
  </clipPath>
 </defs>
</svg>
