<?xml version="1.0" encoding="utf-8" standalone="no"?>
<!DOCTYPE svg PUBLIC "-//W3C//DTD SVG 1.1//EN"
  "http://www.w3.org/Graphics/SVG/1.1/DTD/svg11.dtd">
<svg xmlns:xlink="http://www.w3.org/1999/xlink" width="1080pt" height="580.032pt" viewBox="0 0 1080 580.032" xmlns="http://www.w3.org/2000/svg" version="1.1">
 <metadata>
  <rdf:RDF xmlns:dc="http://purl.org/dc/elements/1.1/" xmlns:cc="http://creativecommons.org/ns#" xmlns:rdf="http://www.w3.org/1999/02/22-rdf-syntax-ns#">
   <cc:Work>
    <dc:type rdf:resource="http://purl.org/dc/dcmitype/StillImage"/>
    <dc:date>2026-04-26T22:46:41.684453</dc:date>
    <dc:format>image/svg+xml</dc:format>
    <dc:creator>
     <cc:Agent>
      <dc:title>Matplotlib v3.5.3, https://matplotlib.org/</dc:title>
     </cc:Agent>
    </dc:creator>
   </cc:Work>
  </rdf:RDF>
 </metadata>
 <defs>
  <style type="text/css">*{stroke-linejoin: round; stroke-linecap: butt}</style>
 </defs>
 <g id="figure_1">
  <g id="patch_1">
   <path d="M 0 580.032 
L 1080 580.032 
L 1080 0 
L 0 0 
z
" style="fill: #ffffff"/>
  </g>
  <g id="axes_1">
   <g id="patch_2">
    <path d="M 135 516.22848 
L 972 516.22848 
L 972 69.60384 
L 135 69.60384 
z
" style="fill: #ffffff"/>
   </g>
   <g id="matplotlib.axis_1">
    <g id="xtick_1">
     <g id="line2d_1">
      <path d="M 135 516.22848 
L 135 69.60384 
" clip-path="url(#p4e000d3c0a)" style="fill: none; stroke: #b0b0b0; stroke-width: 0.25; stroke-linecap: square"/>
     </g>
     <g id="line2d_2">
      <defs>
       <path id="m662ce39944" d="M 0 0 
L 0 3.5 
" style="stroke: #000000; stroke-width: 0.8"/>
      </defs>
      <g>
       <use xlink:href="#m662ce39944" x="135" y="516.22848" style="stroke: #000000; stroke-width: 0.8"/>
      </g>
     </g>
     <g id="text_1">
      <!-- 0.00 -->
      <g transform="translate(123.867188 530.826917)scale(0.1 -0.1)">
       <defs>
        <path id="DejaVuSans-30" d="M 2034 4250 
Q 1547 4250 1301 3770 
Q 1056 3291 1056 2328 
Q 1056 1369 1301 889 
Q 1547 409 2034 409 
Q 2525 409 2770 889 
Q 3016 1369 3016 2328 
Q 3016 3291 2770 3770 
Q 2525 4250 2034 4250 
z
M 2034 4750 
Q 2819 4750 3233 4129 
Q 3647 3509 3647 2328 
Q 3647 1150 3233 529 
Q 2819 -91 2034 -91 
Q 1250 -91 836 529 
Q 422 1150 422 2328 
Q 422 3509 836 4129 
Q 1250 4750 2034 4750 
z
" transform="scale(0.015625)"/>
        <path id="DejaVuSans-2e" d="M 684 794 
L 1344 794 
L 1344 0 
L 684 0 
L 684 794 
z
" transform="scale(0.015625)"/>
       </defs>
       <use xlink:href="#DejaVuSans-30"/>
       <use xlink:href="#DejaVuSans-2e" x="63.623047"/>
       <use xlink:href="#DejaVuSans-30" x="95.410156"/>
       <use xlink:href="#DejaVuSans-30" x="159.033203"/>
      </g>
     </g>
    </g>
    <g id="xtick_2">
     <g id="line2d_3">
      <path d="M 239.625 516.22848 
L 239.625 69.60384 
" clip-path="url(#p4e000d3c0a)" style="fill: none; stroke: #b0b0b0; stroke-width: 0.25; stroke-linecap: square"/>
     </g>
     <g id="line2d_4">
      <g>
       <use xlink:href="#m662ce39944" x="239.625" y="516.22848" style="stroke: #000000; stroke-width: 0.8"/>
      </g>
     </g>
     <g id="text_2">
      <!-- 0.05 -->
      <g transform="translate(228.492188 530.826917)scale(0.1 -0.1)">
       <defs>
        <path id="DejaVuSans-35" d="M 691 4666 
L 3169 4666 
L 3169 4134 
L 1269 4134 
L 1269 2991 
Q 1406 3038 1543 3061 
Q 1681 3084 1819 3084 
Q 2600 3084 3056 2656 
Q 3513 2228 3513 1497 
Q 3513 744 3044 326 
Q 2575 -91 1722 -91 
Q 1428 -91 1123 -41 
Q 819 9 494 109 
L 494 744 
Q 775 591 1075 516 
Q 1375 441 1709 441 
Q 2250 441 2565 725 
Q 2881 1009 2881 1497 
Q 2881 1984 2565 2268 
Q 2250 2553 1709 2553 
Q 1456 2553 1204 2497 
Q 953 2441 691 2322 
L 691 4666 
z
" transform="scale(0.015625)"/>
       </defs>
       <use xlink:href="#DejaVuSans-30"/>
       <use xlink:href="#DejaVuSans-2e" x="63.623047"/>
       <use xlink:href="#DejaVuSans-30" x="95.410156"/>
       <use xlink:href="#DejaVuSans-35" x="159.033203"/>
      </g>
     </g>
    </g>
    <g id="xtick_3">
     <g id="line2d_5">
      <path d="M 344.25 516.22848 
L 344.25 69.60384 
" clip-path="url(#p4e000d3c0a)" style="fill: none; stroke: #b0b0b0; stroke-width: 0.25; stroke-linecap: square"/>
     </g>
     <g id="line2d_6">
      <g>
       <use xlink:href="#m662ce39944" x="344.25" y="516.22848" style="stroke: #000000; stroke-width: 0.8"/>
      </g>
     </g>
     <g id="text_3">
      <!-- 0.10 -->
      <g transform="translate(333.117188 530.826917)scale(0.1 -0.1)">
       <defs>
        <path id="DejaVuSans-31" d="M 794 531 
L 1825 531 
L 1825 4091 
L 703 3866 
L 703 4441 
L 1819 4666 
L 2450 4666 
L 2450 531 
L 3481 531 
L 3481 0 
L 794 0 
L 794 531 
z
" transform="scale(0.015625)"/>
       </defs>
       <use xlink:href="#DejaVuSans-30"/>
       <use xlink:href="#DejaVuSans-2e" x="63.623047"/>
       <use xlink:href="#DejaVuSans-31" x="95.410156"/>
       <use xlink:href="#DejaVuSans-30" x="159.033203"/>
      </g>
     </g>
    </g>
    <g id="xtick_4">
     <g id="line2d_7">
      <path d="M 448.875 516.22848 
L 448.875 69.60384 
" clip-path="url(#p4e000d3c0a)" style="fill: none; stroke: #b0b0b0; stroke-width: 0.25; stroke-linecap: square"/>
     </g>
     <g id="line2d_8">
      <g>
       <use xlink:href="#m662ce39944" x="448.875" y="516.22848" style="stroke: #000000; stroke-width: 0.8"/>
      </g>
     </g>
     <g id="text_4">
      <!-- 0.15 -->
      <g transform="translate(437.742188 530.826917)scale(0.1 -0.1)">
       <use xlink:href="#DejaVuSans-30"/>
       <use xlink:href="#DejaVuSans-2e" x="63.623047"/>
       <use xlink:href="#DejaVuSans-31" x="95.410156"/>
       <use xlink:href="#DejaVuSans-35" x="159.033203"/>
      </g>
     </g>
    </g>
    <g id="xtick_5">
     <g id="line2d_9">
      <path d="M 553.5 516.22848 
L 553.5 69.60384 
" clip-path="url(#p4e000d3c0a)" style="fill: none; stroke: #b0b0b0; stroke-width: 0.25; stroke-linecap: square"/>
     </g>
     <g id="line2d_10">
      <g>
       <use xlink:href="#m662ce39944" x="553.5" y="516.22848" style="stroke: #000000; stroke-width: 0.8"/>
      </g>
     </g>
     <g id="text_5">
      <!-- 0.20 -->
      <g transform="translate(542.367188 530.826917)scale(0.1 -0.1)">
       <defs>
        <path id="DejaVuSans-32" d="M 1228 531 
L 3431 531 
L 3431 0 
L 469 0 
L 469 531 
Q 828 903 1448 1529 
Q 2069 2156 2228 2338 
Q 2531 2678 2651 2914 
Q 2772 3150 2772 3378 
Q 2772 3750 2511 3984 
Q 2250 4219 1831 4219 
Q 1534 4219 1204 4116 
Q 875 4013 500 3803 
L 500 4441 
Q 881 4594 1212 4672 
Q 1544 4750 1819 4750 
Q 2544 4750 2975 4387 
Q 3406 4025 3406 3419 
Q 3406 3131 3298 2873 
Q 3191 2616 2906 2266 
Q 2828 2175 2409 1742 
Q 1991 1309 1228 531 
z
" transform="scale(0.015625)"/>
       </defs>
       <use xlink:href="#DejaVuSans-30"/>
       <use xlink:href="#DejaVuSans-2e" x="63.623047"/>
       <use xlink:href="#DejaVuSans-32" x="95.410156"/>
       <use xlink:href="#DejaVuSans-30" x="159.033203"/>
      </g>
     </g>
    </g>
    <g id="xtick_6">
     <g id="line2d_11">
      <path d="M 658.125 516.22848 
L 658.125 69.60384 
" clip-path="url(#p4e000d3c0a)" style="fill: none; stroke: #b0b0b0; stroke-width: 0.25; stroke-linecap: square"/>
     </g>
     <g id="line2d_12">
      <g>
       <use xlink:href="#m662ce39944" x="658.125" y="516.22848" style="stroke: #000000; stroke-width: 0.8"/>
      </g>
     </g>
     <g id="text_6">
      <!-- 0.25 -->
      <g transform="translate(646.992188 530.826917)scale(0.1 -0.1)">
       <use xlink:href="#DejaVuSans-30"/>
       <use xlink:href="#DejaVuSans-2e" x="63.623047"/>
       <use xlink:href="#DejaVuSans-32" x="95.410156"/>
       <use xlink:href="#DejaVuSans-35" x="159.033203"/>
      </g>
     </g>
    </g>
    <g id="xtick_7">
     <g id="line2d_13">
      <path d="M 762.75 516.22848 
L 762.75 69.60384 
" clip-path="url(#p4e000d3c0a)" style="fill: none; stroke: #b0b0b0; stroke-width: 0.25; stroke-linecap: square"/>
     </g>
     <g id="line2d_14">
      <g>
       <use xlink:href="#m662ce39944" x="762.75" y="516.22848" style="stroke: #000000; stroke-width: 0.8"/>
      </g>
     </g>
     <g id="text_7">
      <!-- 0.30 -->
      <g transform="translate(751.617188 530.826917)scale(0.1 -0.1)">
       <defs>
        <path id="DejaVuSans-33" d="M 2597 2516 
Q 3050 2419 3304 2112 
Q 3559 1806 3559 1356 
Q 3559 666 3084 287 
Q 2609 -91 1734 -91 
Q 1441 -91 1130 -33 
Q 819 25 488 141 
L 488 750 
Q 750 597 1062 519 
Q 1375 441 1716 441 
Q 2309 441 2620 675 
Q 2931 909 2931 1356 
Q 2931 1769 2642 2001 
Q 2353 2234 1838 2234 
L 1294 2234 
L 1294 2753 
L 1863 2753 
Q 2328 2753 2575 2939 
Q 2822 3125 2822 3475 
Q 2822 3834 2567 4026 
Q 2313 4219 1838 4219 
Q 1578 4219 1281 4162 
Q 984 4106 628 3988 
L 628 4550 
Q 988 4650 1302 4700 
Q 1616 4750 1894 4750 
Q 2613 4750 3031 4423 
Q 3450 4097 3450 3541 
Q 3450 3153 3228 2886 
Q 3006 2619 2597 2516 
z
" transform="scale(0.015625)"/>
       </defs>
       <use xlink:href="#DejaVuSans-30"/>
       <use xlink:href="#DejaVuSans-2e" x="63.623047"/>
       <use xlink:href="#DejaVuSans-33" x="95.410156"/>
       <use xlink:href="#DejaVuSans-30" x="159.033203"/>
      </g>
     </g>
    </g>
    <g id="xtick_8">
     <g id="line2d_15">
      <path d="M 867.375 516.22848 
L 867.375 69.60384 
" clip-path="url(#p4e000d3c0a)" style="fill: none; stroke: #b0b0b0; stroke-width: 0.25; stroke-linecap: square"/>
     </g>
     <g id="line2d_16">
      <g>
       <use xlink:href="#m662ce39944" x="867.375" y="516.22848" style="stroke: #000000; stroke-width: 0.8"/>
      </g>
     </g>
     <g id="text_8">
      <!-- 0.35 -->
      <g transform="translate(856.242188 530.826917)scale(0.1 -0.1)">
       <use xlink:href="#DejaVuSans-30"/>
       <use xlink:href="#DejaVuSans-2e" x="63.623047"/>
       <use xlink:href="#DejaVuSans-33" x="95.410156"/>
       <use xlink:href="#DejaVuSans-35" x="159.033203"/>
      </g>
     </g>
    </g>
    <g id="xtick_9">
     <g id="line2d_17">
      <path d="M 972 516.22848 
L 972 69.60384 
" clip-path="url(#p4e000d3c0a)" style="fill: none; stroke: #b0b0b0; stroke-width: 0.25; stroke-linecap: square"/>
     </g>
     <g id="line2d_18">
      <g>
       <use xlink:href="#m662ce39944" x="972" y="516.22848" style="stroke: #000000; stroke-width: 0.8"/>
      </g>
     </g>
     <g id="text_9">
      <!-- 0.40 -->
      <g transform="translate(960.867188 530.826917)scale(0.1 -0.1)">
       <defs>
        <path id="DejaVuSans-34" d="M 2419 4116 
L 825 1625 
L 2419 1625 
L 2419 4116 
z
M 2253 4666 
L 3047 4666 
L 3047 1625 
L 3713 1625 
L 3713 1100 
L 3047 1100 
L 3047 0 
L 2419 0 
L 2419 1100 
L 313 1100 
L 313 1709 
L 2253 4666 
z
" transform="scale(0.015625)"/>
       </defs>
       <use xlink:href="#DejaVuSans-30"/>
       <use xlink:href="#DejaVuSans-2e" x="63.623047"/>
       <use xlink:href="#DejaVuSans-34" x="95.410156"/>
       <use xlink:href="#DejaVuSans-30" x="159.033203"/>
      </g>
     </g>
    </g>
    <g id="text_10">
     <!-- parameter $\mu$ -->
     <g transform="translate(522.3 544.48473)scale(0.1 -0.1)">
      <defs>
       <path id="DejaVuSans-70" d="M 1159 525 
L 1159 -1331 
L 581 -1331 
L 581 3500 
L 1159 3500 
L 1159 2969 
Q 1341 3281 1617 3432 
Q 1894 3584 2278 3584 
Q 2916 3584 3314 3078 
Q 3713 2572 3713 1747 
Q 3713 922 3314 415 
Q 2916 -91 2278 -91 
Q 1894 -91 1617 61 
Q 1341 213 1159 525 
z
M 3116 1747 
Q 3116 2381 2855 2742 
Q 2594 3103 2138 3103 
Q 1681 3103 1420 2742 
Q 1159 2381 1159 1747 
Q 1159 1113 1420 752 
Q 1681 391 2138 391 
Q 2594 391 2855 752 
Q 3116 1113 3116 1747 
z
" transform="scale(0.015625)"/>
       <path id="DejaVuSans-61" d="M 2194 1759 
Q 1497 1759 1228 1600 
Q 959 1441 959 1056 
Q 959 750 1161 570 
Q 1363 391 1709 391 
Q 2188 391 2477 730 
Q 2766 1069 2766 1631 
L 2766 1759 
L 2194 1759 
z
M 3341 1997 
L 3341 0 
L 2766 0 
L 2766 531 
Q 2569 213 2275 61 
Q 1981 -91 1556 -91 
Q 1019 -91 701 211 
Q 384 513 384 1019 
Q 384 1609 779 1909 
Q 1175 2209 1959 2209 
L 2766 2209 
L 2766 2266 
Q 2766 2663 2505 2880 
Q 2244 3097 1772 3097 
Q 1472 3097 1187 3025 
Q 903 2953 641 2809 
L 641 3341 
Q 956 3463 1253 3523 
Q 1550 3584 1831 3584 
Q 2591 3584 2966 3190 
Q 3341 2797 3341 1997 
z
" transform="scale(0.015625)"/>
       <path id="DejaVuSans-72" d="M 2631 2963 
Q 2534 3019 2420 3045 
Q 2306 3072 2169 3072 
Q 1681 3072 1420 2755 
Q 1159 2438 1159 1844 
L 1159 0 
L 581 0 
L 581 3500 
L 1159 3500 
L 1159 2956 
Q 1341 3275 1631 3429 
Q 1922 3584 2338 3584 
Q 2397 3584 2469 3576 
Q 2541 3569 2628 3553 
L 2631 2963 
z
" transform="scale(0.015625)"/>
       <path id="DejaVuSans-6d" d="M 3328 2828 
Q 3544 3216 3844 3400 
Q 4144 3584 4550 3584 
Q 5097 3584 5394 3201 
Q 5691 2819 5691 2113 
L 5691 0 
L 5113 0 
L 5113 2094 
Q 5113 2597 4934 2840 
Q 4756 3084 4391 3084 
Q 3944 3084 3684 2787 
Q 3425 2491 3425 1978 
L 3425 0 
L 2847 0 
L 2847 2094 
Q 2847 2600 2669 2842 
Q 2491 3084 2119 3084 
Q 1678 3084 1418 2786 
Q 1159 2488 1159 1978 
L 1159 0 
L 581 0 
L 581 3500 
L 1159 3500 
L 1159 2956 
Q 1356 3278 1631 3431 
Q 1906 3584 2284 3584 
Q 2666 3584 2933 3390 
Q 3200 3197 3328 2828 
z
" transform="scale(0.015625)"/>
       <path id="DejaVuSans-65" d="M 3597 1894 
L 3597 1613 
L 953 1613 
Q 991 1019 1311 708 
Q 1631 397 2203 397 
Q 2534 397 2845 478 
Q 3156 559 3463 722 
L 3463 178 
Q 3153 47 2828 -22 
Q 2503 -91 2169 -91 
Q 1331 -91 842 396 
Q 353 884 353 1716 
Q 353 2575 817 3079 
Q 1281 3584 2069 3584 
Q 2775 3584 3186 3129 
Q 3597 2675 3597 1894 
z
M 3022 2063 
Q 3016 2534 2758 2815 
Q 2500 3097 2075 3097 
Q 1594 3097 1305 2825 
Q 1016 2553 972 2059 
L 3022 2063 
z
" transform="scale(0.015625)"/>
       <path id="DejaVuSans-74" d="M 1172 4494 
L 1172 3500 
L 2356 3500 
L 2356 3053 
L 1172 3053 
L 1172 1153 
Q 1172 725 1289 603 
Q 1406 481 1766 481 
L 2356 481 
L 2356 0 
L 1766 0 
Q 1100 0 847 248 
Q 594 497 594 1153 
L 594 3053 
L 172 3053 
L 172 3500 
L 594 3500 
L 594 4494 
L 1172 4494 
z
" transform="scale(0.015625)"/>
       <path id="DejaVuSans-20" transform="scale(0.015625)"/>
       <path id="DejaVuSans-Oblique-3bc" d="M -84 -1331 
L 856 3500 
L 1434 3500 
L 1009 1322 
Q 997 1256 987 1175 
Q 978 1094 978 1013 
Q 978 722 1161 565 
Q 1344 409 1684 409 
Q 2147 409 2431 671 
Q 2716 934 2816 1459 
L 3213 3500 
L 3788 3500 
L 3266 809 
Q 3253 750 3248 706 
Q 3244 663 3244 628 
Q 3244 531 3283 486 
Q 3322 441 3406 441 
Q 3438 441 3492 456 
Q 3547 472 3647 513 
L 3559 50 
Q 3422 -19 3297 -55 
Q 3172 -91 3053 -91 
Q 2847 -91 2730 40 
Q 2613 172 2613 403 
Q 2438 153 2195 31 
Q 1953 -91 1625 -91 
Q 1334 -91 1117 43 
Q 900 178 831 397 
L 494 -1331 
L -84 -1331 
z
" transform="scale(0.015625)"/>
      </defs>
      <use xlink:href="#DejaVuSans-70" transform="translate(0 0.78125)"/>
      <use xlink:href="#DejaVuSans-61" transform="translate(63.476562 0.78125)"/>
      <use xlink:href="#DejaVuSans-72" transform="translate(124.755859 0.78125)"/>
      <use xlink:href="#DejaVuSans-61" transform="translate(165.869141 0.78125)"/>
      <use xlink:href="#DejaVuSans-6d" transform="translate(227.148438 0.78125)"/>
      <use xlink:href="#DejaVuSans-65" transform="translate(324.560547 0.78125)"/>
      <use xlink:href="#DejaVuSans-74" transform="translate(386.083984 0.78125)"/>
      <use xlink:href="#DejaVuSans-65" transform="translate(425.292969 0.78125)"/>
      <use xlink:href="#DejaVuSans-72" transform="translate(486.816406 0.78125)"/>
      <use xlink:href="#DejaVuSans-20" transform="translate(527.929688 0.78125)"/>
      <use xlink:href="#DejaVuSans-Oblique-3bc" transform="translate(559.716797 0.78125)"/>
     </g>
    </g>
   </g>
   <g id="matplotlib.axis_2">
    <g id="ytick_1">
     <g id="line2d_19">
      <path d="M 135 495.92736 
L 972 495.92736 
" clip-path="url(#p4e000d3c0a)" style="fill: none; stroke: #b0b0b0; stroke-width: 0.25; stroke-linecap: square"/>
     </g>
     <g id="line2d_20">
      <defs>
       <path id="m7b7de2311c" d="M 0 0 
L -3.5 0 
" style="stroke: #000000; stroke-width: 0.8"/>
      </defs>
      <g>
       <use xlink:href="#m7b7de2311c" x="135" y="495.92736" style="stroke: #000000; stroke-width: 0.8"/>
      </g>
     </g>
     <g id="text_11">
      <!-- 0 -->
      <g transform="translate(121.6375 499.726579)scale(0.1 -0.1)">
       <use xlink:href="#DejaVuSans-30"/>
      </g>
     </g>
    </g>
    <g id="ytick_2">
     <g id="line2d_21">
      <path d="M 135 426.421611 
L 972 426.421611 
" clip-path="url(#p4e000d3c0a)" style="fill: none; stroke: #b0b0b0; stroke-width: 0.25; stroke-linecap: square"/>
     </g>
     <g id="line2d_22">
      <g>
       <use xlink:href="#m7b7de2311c" x="135" y="426.421611" style="stroke: #000000; stroke-width: 0.8"/>
      </g>
     </g>
     <g id="text_12">
      <!-- 1 -->
      <g transform="translate(121.6375 430.220829)scale(0.1 -0.1)">
       <use xlink:href="#DejaVuSans-31"/>
      </g>
     </g>
    </g>
    <g id="ytick_3">
     <g id="line2d_23">
      <path d="M 135 356.915861 
L 972 356.915861 
" clip-path="url(#p4e000d3c0a)" style="fill: none; stroke: #b0b0b0; stroke-width: 0.25; stroke-linecap: square"/>
     </g>
     <g id="line2d_24">
      <g>
       <use xlink:href="#m7b7de2311c" x="135" y="356.915861" style="stroke: #000000; stroke-width: 0.8"/>
      </g>
     </g>
     <g id="text_13">
      <!-- 2 -->
      <g transform="translate(121.6375 360.71508)scale(0.1 -0.1)">
       <use xlink:href="#DejaVuSans-32"/>
      </g>
     </g>
    </g>
    <g id="ytick_4">
     <g id="line2d_25">
      <path d="M 135 287.410112 
L 972 287.410112 
" clip-path="url(#p4e000d3c0a)" style="fill: none; stroke: #b0b0b0; stroke-width: 0.25; stroke-linecap: square"/>
     </g>
     <g id="line2d_26">
      <g>
       <use xlink:href="#m7b7de2311c" x="135" y="287.410112" style="stroke: #000000; stroke-width: 0.8"/>
      </g>
     </g>
     <g id="text_14">
      <!-- 3 -->
      <g transform="translate(121.6375 291.209331)scale(0.1 -0.1)">
       <use xlink:href="#DejaVuSans-33"/>
      </g>
     </g>
    </g>
    <g id="ytick_5">
     <g id="line2d_27">
      <path d="M 135 217.904363 
L 972 217.904363 
" clip-path="url(#p4e000d3c0a)" style="fill: none; stroke: #b0b0b0; stroke-width: 0.25; stroke-linecap: square"/>
     </g>
     <g id="line2d_28">
      <g>
       <use xlink:href="#m7b7de2311c" x="135" y="217.904363" style="stroke: #000000; stroke-width: 0.8"/>
      </g>
     </g>
     <g id="text_15">
      <!-- 4 -->
      <g transform="translate(121.6375 221.703582)scale(0.1 -0.1)">
       <use xlink:href="#DejaVuSans-34"/>
      </g>
     </g>
    </g>
    <g id="ytick_6">
     <g id="line2d_29">
      <path d="M 135 148.398614 
L 972 148.398614 
" clip-path="url(#p4e000d3c0a)" style="fill: none; stroke: #b0b0b0; stroke-width: 0.25; stroke-linecap: square"/>
     </g>
     <g id="line2d_30">
      <g>
       <use xlink:href="#m7b7de2311c" x="135" y="148.398614" style="stroke: #000000; stroke-width: 0.8"/>
      </g>
     </g>
     <g id="text_16">
      <!-- 5 -->
      <g transform="translate(121.6375 152.197832)scale(0.1 -0.1)">
       <use xlink:href="#DejaVuSans-35"/>
      </g>
     </g>
    </g>
    <g id="ytick_7">
     <g id="line2d_31">
      <path d="M 135 78.892864 
L 972 78.892864 
" clip-path="url(#p4e000d3c0a)" style="fill: none; stroke: #b0b0b0; stroke-width: 0.25; stroke-linecap: square"/>
     </g>
     <g id="line2d_32">
      <g>
       <use xlink:href="#m7b7de2311c" x="135" y="78.892864" style="stroke: #000000; stroke-width: 0.8"/>
      </g>
     </g>
     <g id="text_17">
      <!-- 6 -->
      <g transform="translate(121.6375 82.692083)scale(0.1 -0.1)">
       <defs>
        <path id="DejaVuSans-36" d="M 2113 2584 
Q 1688 2584 1439 2293 
Q 1191 2003 1191 1497 
Q 1191 994 1439 701 
Q 1688 409 2113 409 
Q 2538 409 2786 701 
Q 3034 994 3034 1497 
Q 3034 2003 2786 2293 
Q 2538 2584 2113 2584 
z
M 3366 4563 
L 3366 3988 
Q 3128 4100 2886 4159 
Q 2644 4219 2406 4219 
Q 1781 4219 1451 3797 
Q 1122 3375 1075 2522 
Q 1259 2794 1537 2939 
Q 1816 3084 2150 3084 
Q 2853 3084 3261 2657 
Q 3669 2231 3669 1497 
Q 3669 778 3244 343 
Q 2819 -91 2113 -91 
Q 1303 -91 875 529 
Q 447 1150 447 2328 
Q 447 3434 972 4092 
Q 1497 4750 2381 4750 
Q 2619 4750 2861 4703 
Q 3103 4656 3366 4563 
z
" transform="scale(0.015625)"/>
       </defs>
       <use xlink:href="#DejaVuSans-36"/>
      </g>
     </g>
    </g>
    <g id="text_18">
     <!-- sensitivity $\mathcal{S}\,(\mu)$ -->
     <g transform="translate(104.3175 331.06616)rotate(-90)scale(0.1 -0.1)">
      <defs>
       <path id="DejaVuSans-73" d="M 2834 3397 
L 2834 2853 
Q 2591 2978 2328 3040 
Q 2066 3103 1784 3103 
Q 1356 3103 1142 2972 
Q 928 2841 928 2578 
Q 928 2378 1081 2264 
Q 1234 2150 1697 2047 
L 1894 2003 
Q 2506 1872 2764 1633 
Q 3022 1394 3022 966 
Q 3022 478 2636 193 
Q 2250 -91 1575 -91 
Q 1294 -91 989 -36 
Q 684 19 347 128 
L 347 722 
Q 666 556 975 473 
Q 1284 391 1588 391 
Q 1994 391 2212 530 
Q 2431 669 2431 922 
Q 2431 1156 2273 1281 
Q 2116 1406 1581 1522 
L 1381 1569 
Q 847 1681 609 1914 
Q 372 2147 372 2553 
Q 372 3047 722 3315 
Q 1072 3584 1716 3584 
Q 2034 3584 2315 3537 
Q 2597 3491 2834 3397 
z
" transform="scale(0.015625)"/>
       <path id="DejaVuSans-6e" d="M 3513 2113 
L 3513 0 
L 2938 0 
L 2938 2094 
Q 2938 2591 2744 2837 
Q 2550 3084 2163 3084 
Q 1697 3084 1428 2787 
Q 1159 2491 1159 1978 
L 1159 0 
L 581 0 
L 581 3500 
L 1159 3500 
L 1159 2956 
Q 1366 3272 1645 3428 
Q 1925 3584 2291 3584 
Q 2894 3584 3203 3211 
Q 3513 2838 3513 2113 
z
" transform="scale(0.015625)"/>
       <path id="DejaVuSans-69" d="M 603 3500 
L 1178 3500 
L 1178 0 
L 603 0 
L 603 3500 
z
M 603 4863 
L 1178 4863 
L 1178 4134 
L 603 4134 
L 603 4863 
z
" transform="scale(0.015625)"/>
       <path id="DejaVuSans-76" d="M 191 3500 
L 800 3500 
L 1894 563 
L 2988 3500 
L 3597 3500 
L 2284 0 
L 1503 0 
L 191 3500 
z
" transform="scale(0.015625)"/>
       <path id="DejaVuSans-79" d="M 2059 -325 
Q 1816 -950 1584 -1140 
Q 1353 -1331 966 -1331 
L 506 -1331 
L 506 -850 
L 844 -850 
Q 1081 -850 1212 -737 
Q 1344 -625 1503 -206 
L 1606 56 
L 191 3500 
L 800 3500 
L 1894 763 
L 2988 3500 
L 3597 3500 
L 2059 -325 
z
" transform="scale(0.015625)"/>
       <path id="STIXNonUnicode-Italic-e23f" d="M 243 1235 
L 410 1254 
Q 518 582 1139 365 
Q 1421 262 1766 262 
Q 2304 262 2685 515 
Q 3066 768 3066 1235 
Q 3066 1427 2883 1571 
Q 2701 1715 2445 1817 
Q 2189 1920 1929 2045 
Q 1670 2170 1488 2403 
Q 1306 2637 1306 2970 
Q 1306 3290 1507 3555 
Q 1709 3821 2000 3974 
Q 2291 4128 2572 4211 
Q 2854 4294 3059 4294 
Q 3603 4294 3948 4134 
Q 4294 3974 4294 3642 
Q 4294 3462 4182 3299 
Q 4070 3136 3853 3136 
Q 3712 3136 3603 3232 
Q 3494 3328 3494 3456 
Q 3494 3603 3590 3708 
Q 3686 3814 3686 3840 
Q 3686 3917 3628 3965 
Q 3571 4013 3456 4032 
Q 3341 4051 3264 4054 
Q 3187 4058 3059 4058 
Q 2931 4058 2745 4010 
Q 2560 3962 2352 3866 
Q 2144 3770 2000 3581 
Q 1856 3392 1856 3155 
Q 1856 2931 2057 2771 
Q 2259 2611 2550 2502 
Q 2842 2394 3133 2269 
Q 3424 2144 3625 1920 
Q 3827 1696 3827 1376 
Q 3827 902 3206 451 
Q 2586 0 1805 0 
Q 992 0 617 339 
Q 243 678 243 1235 
z
" transform="scale(0.015625)"/>
       <path id="DejaVuSans-28" d="M 1984 4856 
Q 1566 4138 1362 3434 
Q 1159 2731 1159 2009 
Q 1159 1288 1364 580 
Q 1569 -128 1984 -844 
L 1484 -844 
Q 1016 -109 783 600 
Q 550 1309 550 2009 
Q 550 2706 781 3412 
Q 1013 4119 1484 4856 
L 1984 4856 
z
" transform="scale(0.015625)"/>
       <path id="DejaVuSans-29" d="M 513 4856 
L 1013 4856 
Q 1481 4119 1714 3412 
Q 1947 2706 1947 2009 
Q 1947 1309 1714 600 
Q 1481 -109 1013 -844 
L 513 -844 
Q 928 -128 1133 580 
Q 1338 1288 1338 2009 
Q 1338 2731 1133 3434 
Q 928 4138 513 4856 
z
" transform="scale(0.015625)"/>
      </defs>
      <use xlink:href="#DejaVuSans-73" transform="translate(0 0.015625)"/>
      <use xlink:href="#DejaVuSans-65" transform="translate(52.099609 0.015625)"/>
      <use xlink:href="#DejaVuSans-6e" transform="translate(113.623047 0.015625)"/>
      <use xlink:href="#DejaVuSans-73" transform="translate(177.001953 0.015625)"/>
      <use xlink:href="#DejaVuSans-69" transform="translate(229.101562 0.015625)"/>
      <use xlink:href="#DejaVuSans-74" transform="translate(256.884766 0.015625)"/>
      <use xlink:href="#DejaVuSans-69" transform="translate(296.09375 0.015625)"/>
      <use xlink:href="#DejaVuSans-76" transform="translate(323.876953 0.015625)"/>
      <use xlink:href="#DejaVuSans-69" transform="translate(383.056641 0.015625)"/>
      <use xlink:href="#DejaVuSans-74" transform="translate(410.839844 0.015625)"/>
      <use xlink:href="#DejaVuSans-79" transform="translate(450.048828 0.015625)"/>
      <use xlink:href="#DejaVuSans-20" transform="translate(509.228516 0.015625)"/>
      <use xlink:href="#STIXNonUnicode-Italic-e23f" transform="translate(541.015625 0.015625)"/>
      <use xlink:href="#DejaVuSans-28" transform="translate(620.651295 0.015625)"/>
      <use xlink:href="#DejaVuSans-Oblique-3bc" transform="translate(659.664967 0.015625)"/>
      <use xlink:href="#DejaVuSans-29" transform="translate(723.288014 0.015625)"/>
     </g>
     <!-- elasticity $\mathcal{E}\,(\mu)$ -->
     <g transform="translate(115.5375 327.71616)rotate(-90)scale(0.1 -0.1)">
      <defs>
       <path id="DejaVuSans-6c" d="M 603 4863 
L 1178 4863 
L 1178 0 
L 603 0 
L 603 4863 
z
" transform="scale(0.015625)"/>
       <path id="DejaVuSans-63" d="M 3122 3366 
L 3122 2828 
Q 2878 2963 2633 3030 
Q 2388 3097 2138 3097 
Q 1578 3097 1268 2742 
Q 959 2388 959 1747 
Q 959 1106 1268 751 
Q 1578 397 2138 397 
Q 2388 397 2633 464 
Q 2878 531 3122 666 
L 3122 134 
Q 2881 22 2623 -34 
Q 2366 -91 2075 -91 
Q 1284 -91 818 406 
Q 353 903 353 1747 
Q 353 2603 823 3093 
Q 1294 3584 2113 3584 
Q 2378 3584 2631 3529 
Q 2884 3475 3122 3366 
z
" transform="scale(0.015625)"/>
       <path id="STIXNonUnicode-Italic-e231" d="M 3270 973 
L 3373 858 
Q 2893 346 2272 128 
Q 1856 -26 1331 -26 
Q 896 -26 576 169 
Q 256 365 256 736 
Q 256 1267 659 1651 
Q 1062 2035 1619 2259 
Q 1485 2323 1414 2368 
Q 1344 2413 1257 2493 
Q 1171 2573 1132 2688 
Q 1094 2803 1094 2963 
Q 1094 3309 1401 3629 
Q 1709 3949 2112 4118 
Q 2515 4288 2848 4288 
Q 3296 4288 3565 4128 
Q 3834 3968 3834 3654 
Q 3834 3514 3718 3338 
Q 3603 3162 3373 3162 
Q 3238 3162 3132 3251 
Q 3027 3341 3027 3475 
Q 3027 3622 3123 3731 
Q 3219 3840 3219 3859 
Q 3219 3981 3148 4029 
Q 3078 4077 2918 4077 
Q 2432 4077 2038 3792 
Q 1645 3507 1645 3155 
Q 1645 2893 1881 2742 
Q 2118 2592 2502 2592 
L 2938 2592 
L 2880 2349 
Q 2605 2349 2275 2243 
Q 1946 2138 1645 1958 
Q 1344 1779 1142 1494 
Q 941 1210 941 896 
Q 941 614 1155 467 
Q 1370 320 1741 320 
Q 2131 320 2576 515 
Q 3021 710 3270 973 
z
" transform="scale(0.015625)"/>
      </defs>
      <use xlink:href="#DejaVuSans-65" transform="translate(0 0.015625)"/>
      <use xlink:href="#DejaVuSans-6c" transform="translate(61.523438 0.015625)"/>
      <use xlink:href="#DejaVuSans-61" transform="translate(89.306641 0.015625)"/>
      <use xlink:href="#DejaVuSans-73" transform="translate(150.585938 0.015625)"/>
      <use xlink:href="#DejaVuSans-74" transform="translate(202.685547 0.015625)"/>
      <use xlink:href="#DejaVuSans-69" transform="translate(241.894531 0.015625)"/>
      <use xlink:href="#DejaVuSans-63" transform="translate(269.677734 0.015625)"/>
      <use xlink:href="#DejaVuSans-69" transform="translate(324.658203 0.015625)"/>
      <use xlink:href="#DejaVuSans-74" transform="translate(352.441406 0.015625)"/>
      <use xlink:href="#DejaVuSans-79" transform="translate(391.650391 0.015625)"/>
      <use xlink:href="#DejaVuSans-20" transform="translate(450.830078 0.015625)"/>
      <use xlink:href="#STIXNonUnicode-Italic-e231" transform="translate(482.617188 0.015625)"/>
      <use xlink:href="#DejaVuSans-28" transform="translate(554.152852 0.015625)"/>
      <use xlink:href="#DejaVuSans-Oblique-3bc" transform="translate(593.166523 0.015625)"/>
      <use xlink:href="#DejaVuSans-29" transform="translate(656.78957 0.015625)"/>
     </g>
    </g>
   </g>
   <g id="line2d_33">
    <path d="M 135 495.92736 
L 143.454545 495.92736 
L 151.909091 495.92736 
L 160.363636 495.92736 
L 168.818182 495.92736 
L 177.272727 495.92736 
L 185.727273 495.92736 
L 194.181818 495.92736 
L 202.636364 495.92736 
L 211.090909 495.92736 
L 219.545455 495.92736 
L 228 495.92736 
L 236.454545 495.92736 
L 244.909091 495.92736 
L 253.363636 495.92736 
L 261.818182 447.983757 
L 270.272727 311.910738 
L 278.727273 175.83772 
L 287.181818 159.146639 
L 295.636364 159.146639 
L 304.090909 159.146639 
L 312.545455 159.146639 
L 321 159.146639 
L 329.454545 172.015132 
L 337.909091 152.259176 
L 346.363636 89.90496 
L 354.818182 89.90496 
L 363.272727 89.90496 
L 371.727273 89.90496 
L 380.181818 89.90496 
L 388.636364 89.90496 
L 397.090909 89.90496 
L 405.545455 89.90496 
L 414 89.90496 
L 422.454545 89.90496 
L 430.909091 89.90496 
L 439.363636 89.90496 
L 447.818182 89.90496 
L 456.272727 89.90496 
L 464.727273 89.90496 
L 473.181818 89.90496 
L 481.636364 89.90496 
L 490.090909 89.90496 
L 498.545455 89.90496 
L 507 89.90496 
L 515.454545 89.90496 
L 523.909091 89.90496 
L 532.363636 89.90496 
L 540.818182 89.90496 
L 549.272727 89.90496 
L 557.727273 89.90496 
L 566.181818 89.90496 
L 574.636364 89.90496 
L 583.090909 89.90496 
L 591.545455 89.90496 
L 600 103.808432 
L 608.454545 176.235795 
L 616.909091 134.199355 
L 625.363636 94.970595 
L 633.818182 94.970595 
L 642.272727 94.970595 
L 650.727273 94.970595 
L 659.181818 107.460172 
L 667.636364 196.636791 
L 676.090909 143.622849 
L 684.545455 91.764156 
L 693 91.764156 
L 701.454545 91.764156 
L 709.909091 91.764156 
L 718.363636 91.764156 
L 726.818182 91.764156 
L 735.272727 91.764156 
L 743.727273 91.764156 
L 752.181818 91.764156 
L 760.636364 91.764156 
L 769.090909 91.764156 
L 777.545455 91.764156 
L 786 91.764156 
L 794.454545 91.764156 
L 802.909091 91.764156 
L 811.363636 91.764156 
L 819.818182 91.764156 
L 828.272727 91.764156 
L 836.727273 91.764156 
L 845.181818 91.764156 
L 853.636364 91.764156 
L 862.090909 91.764156 
L 870.545455 91.764156 
L 879 91.764156 
L 887.454545 91.764156 
L 895.909091 91.764156 
L 904.363636 91.764156 
L 912.818182 91.764156 
L 921.272727 91.764156 
L 929.727273 91.764156 
L 938.181818 91.764156 
L 946.636364 91.764156 
L 955.090909 91.764156 
L 963.545455 91.764156 
L 972 91.764156 
" clip-path="url(#p4e000d3c0a)" style="fill: none; stroke: #1e90ff; stroke-width: 1.5; stroke-linecap: square"/>
    <defs>
     <path id="m5e9cfb6483" d="M 0 1.5 
C 0.397805 1.5 0.77937 1.341951 1.06066 1.06066 
C 1.341951 0.77937 1.5 0.397805 1.5 0 
C 1.5 -0.397805 1.341951 -0.77937 1.06066 -1.06066 
C 0.77937 -1.341951 0.397805 -1.5 0 -1.5 
C -0.397805 -1.5 -0.77937 -1.341951 -1.06066 -1.06066 
C -1.341951 -0.77937 -1.5 -0.397805 -1.5 0 
C -1.5 0.397805 -1.341951 0.77937 -1.06066 1.06066 
C -0.77937 1.341951 -0.397805 1.5 0 1.5 
z
" style="stroke: #1e90ff"/>
    </defs>
    <g clip-path="url(#p4e000d3c0a)">
     <use xlink:href="#m5e9cfb6483" x="135" y="495.92736" style="fill: #1e90ff; stroke: #1e90ff"/>
     <use xlink:href="#m5e9cfb6483" x="143.454545" y="495.92736" style="fill: #1e90ff; stroke: #1e90ff"/>
     <use xlink:href="#m5e9cfb6483" x="151.909091" y="495.92736" style="fill: #1e90ff; stroke: #1e90ff"/>
     <use xlink:href="#m5e9cfb6483" x="160.363636" y="495.92736" style="fill: #1e90ff; stroke: #1e90ff"/>
     <use xlink:href="#m5e9cfb6483" x="168.818182" y="495.92736" style="fill: #1e90ff; stroke: #1e90ff"/>
     <use xlink:href="#m5e9cfb6483" x="177.272727" y="495.92736" style="fill: #1e90ff; stroke: #1e90ff"/>
     <use xlink:href="#m5e9cfb6483" x="185.727273" y="495.92736" style="fill: #1e90ff; stroke: #1e90ff"/>
     <use xlink:href="#m5e9cfb6483" x="194.181818" y="495.92736" style="fill: #1e90ff; stroke: #1e90ff"/>
     <use xlink:href="#m5e9cfb6483" x="202.636364" y="495.92736" style="fill: #1e90ff; stroke: #1e90ff"/>
     <use xlink:href="#m5e9cfb6483" x="211.090909" y="495.92736" style="fill: #1e90ff; stroke: #1e90ff"/>
     <use xlink:href="#m5e9cfb6483" x="219.545455" y="495.92736" style="fill: #1e90ff; stroke: #1e90ff"/>
     <use xlink:href="#m5e9cfb6483" x="228" y="495.92736" style="fill: #1e90ff; stroke: #1e90ff"/>
     <use xlink:href="#m5e9cfb6483" x="236.454545" y="495.92736" style="fill: #1e90ff; stroke: #1e90ff"/>
     <use xlink:href="#m5e9cfb6483" x="244.909091" y="495.92736" style="fill: #1e90ff; stroke: #1e90ff"/>
     <use xlink:href="#m5e9cfb6483" x="253.363636" y="495.92736" style="fill: #1e90ff; stroke: #1e90ff"/>
     <use xlink:href="#m5e9cfb6483" x="261.818182" y="447.983757" style="fill: #1e90ff; stroke: #1e90ff"/>
     <use xlink:href="#m5e9cfb6483" x="270.272727" y="311.910738" style="fill: #1e90ff; stroke: #1e90ff"/>
     <use xlink:href="#m5e9cfb6483" x="278.727273" y="175.83772" style="fill: #1e90ff; stroke: #1e90ff"/>
     <use xlink:href="#m5e9cfb6483" x="287.181818" y="159.146639" style="fill: #1e90ff; stroke: #1e90ff"/>
     <use xlink:href="#m5e9cfb6483" x="295.636364" y="159.146639" style="fill: #1e90ff; stroke: #1e90ff"/>
     <use xlink:href="#m5e9cfb6483" x="304.090909" y="159.146639" style="fill: #1e90ff; stroke: #1e90ff"/>
     <use xlink:href="#m5e9cfb6483" x="312.545455" y="159.146639" style="fill: #1e90ff; stroke: #1e90ff"/>
     <use xlink:href="#m5e9cfb6483" x="321" y="159.146639" style="fill: #1e90ff; stroke: #1e90ff"/>
     <use xlink:href="#m5e9cfb6483" x="329.454545" y="172.015132" style="fill: #1e90ff; stroke: #1e90ff"/>
     <use xlink:href="#m5e9cfb6483" x="337.909091" y="152.259176" style="fill: #1e90ff; stroke: #1e90ff"/>
     <use xlink:href="#m5e9cfb6483" x="346.363636" y="89.90496" style="fill: #1e90ff; stroke: #1e90ff"/>
     <use xlink:href="#m5e9cfb6483" x="354.818182" y="89.90496" style="fill: #1e90ff; stroke: #1e90ff"/>
     <use xlink:href="#m5e9cfb6483" x="363.272727" y="89.90496" style="fill: #1e90ff; stroke: #1e90ff"/>
     <use xlink:href="#m5e9cfb6483" x="371.727273" y="89.90496" style="fill: #1e90ff; stroke: #1e90ff"/>
     <use xlink:href="#m5e9cfb6483" x="380.181818" y="89.90496" style="fill: #1e90ff; stroke: #1e90ff"/>
     <use xlink:href="#m5e9cfb6483" x="388.636364" y="89.90496" style="fill: #1e90ff; stroke: #1e90ff"/>
     <use xlink:href="#m5e9cfb6483" x="397.090909" y="89.90496" style="fill: #1e90ff; stroke: #1e90ff"/>
     <use xlink:href="#m5e9cfb6483" x="405.545455" y="89.90496" style="fill: #1e90ff; stroke: #1e90ff"/>
     <use xlink:href="#m5e9cfb6483" x="414" y="89.90496" style="fill: #1e90ff; stroke: #1e90ff"/>
     <use xlink:href="#m5e9cfb6483" x="422.454545" y="89.90496" style="fill: #1e90ff; stroke: #1e90ff"/>
     <use xlink:href="#m5e9cfb6483" x="430.909091" y="89.90496" style="fill: #1e90ff; stroke: #1e90ff"/>
     <use xlink:href="#m5e9cfb6483" x="439.363636" y="89.90496" style="fill: #1e90ff; stroke: #1e90ff"/>
     <use xlink:href="#m5e9cfb6483" x="447.818182" y="89.90496" style="fill: #1e90ff; stroke: #1e90ff"/>
     <use xlink:href="#m5e9cfb6483" x="456.272727" y="89.90496" style="fill: #1e90ff; stroke: #1e90ff"/>
     <use xlink:href="#m5e9cfb6483" x="464.727273" y="89.90496" style="fill: #1e90ff; stroke: #1e90ff"/>
     <use xlink:href="#m5e9cfb6483" x="473.181818" y="89.90496" style="fill: #1e90ff; stroke: #1e90ff"/>
     <use xlink:href="#m5e9cfb6483" x="481.636364" y="89.90496" style="fill: #1e90ff; stroke: #1e90ff"/>
     <use xlink:href="#m5e9cfb6483" x="490.090909" y="89.90496" style="fill: #1e90ff; stroke: #1e90ff"/>
     <use xlink:href="#m5e9cfb6483" x="498.545455" y="89.90496" style="fill: #1e90ff; stroke: #1e90ff"/>
     <use xlink:href="#m5e9cfb6483" x="507" y="89.90496" style="fill: #1e90ff; stroke: #1e90ff"/>
     <use xlink:href="#m5e9cfb6483" x="515.454545" y="89.90496" style="fill: #1e90ff; stroke: #1e90ff"/>
     <use xlink:href="#m5e9cfb6483" x="523.909091" y="89.90496" style="fill: #1e90ff; stroke: #1e90ff"/>
     <use xlink:href="#m5e9cfb6483" x="532.363636" y="89.90496" style="fill: #1e90ff; stroke: #1e90ff"/>
     <use xlink:href="#m5e9cfb6483" x="540.818182" y="89.90496" style="fill: #1e90ff; stroke: #1e90ff"/>
     <use xlink:href="#m5e9cfb6483" x="549.272727" y="89.90496" style="fill: #1e90ff; stroke: #1e90ff"/>
     <use xlink:href="#m5e9cfb6483" x="557.727273" y="89.90496" style="fill: #1e90ff; stroke: #1e90ff"/>
     <use xlink:href="#m5e9cfb6483" x="566.181818" y="89.90496" style="fill: #1e90ff; stroke: #1e90ff"/>
     <use xlink:href="#m5e9cfb6483" x="574.636364" y="89.90496" style="fill: #1e90ff; stroke: #1e90ff"/>
     <use xlink:href="#m5e9cfb6483" x="583.090909" y="89.90496" style="fill: #1e90ff; stroke: #1e90ff"/>
     <use xlink:href="#m5e9cfb6483" x="591.545455" y="89.90496" style="fill: #1e90ff; stroke: #1e90ff"/>
     <use xlink:href="#m5e9cfb6483" x="600" y="103.808432" style="fill: #1e90ff; stroke: #1e90ff"/>
     <use xlink:href="#m5e9cfb6483" x="608.454545" y="176.235795" style="fill: #1e90ff; stroke: #1e90ff"/>
     <use xlink:href="#m5e9cfb6483" x="616.909091" y="134.199355" style="fill: #1e90ff; stroke: #1e90ff"/>
     <use xlink:href="#m5e9cfb6483" x="625.363636" y="94.970595" style="fill: #1e90ff; stroke: #1e90ff"/>
     <use xlink:href="#m5e9cfb6483" x="633.818182" y="94.970595" style="fill: #1e90ff; stroke: #1e90ff"/>
     <use xlink:href="#m5e9cfb6483" x="642.272727" y="94.970595" style="fill: #1e90ff; stroke: #1e90ff"/>
     <use xlink:href="#m5e9cfb6483" x="650.727273" y="94.970595" style="fill: #1e90ff; stroke: #1e90ff"/>
     <use xlink:href="#m5e9cfb6483" x="659.181818" y="107.460172" style="fill: #1e90ff; stroke: #1e90ff"/>
     <use xlink:href="#m5e9cfb6483" x="667.636364" y="196.636791" style="fill: #1e90ff; stroke: #1e90ff"/>
     <use xlink:href="#m5e9cfb6483" x="676.090909" y="143.622849" style="fill: #1e90ff; stroke: #1e90ff"/>
     <use xlink:href="#m5e9cfb6483" x="684.545455" y="91.764156" style="fill: #1e90ff; stroke: #1e90ff"/>
     <use xlink:href="#m5e9cfb6483" x="693" y="91.764156" style="fill: #1e90ff; stroke: #1e90ff"/>
     <use xlink:href="#m5e9cfb6483" x="701.454545" y="91.764156" style="fill: #1e90ff; stroke: #1e90ff"/>
     <use xlink:href="#m5e9cfb6483" x="709.909091" y="91.764156" style="fill: #1e90ff; stroke: #1e90ff"/>
     <use xlink:href="#m5e9cfb6483" x="718.363636" y="91.764156" style="fill: #1e90ff; stroke: #1e90ff"/>
     <use xlink:href="#m5e9cfb6483" x="726.818182" y="91.764156" style="fill: #1e90ff; stroke: #1e90ff"/>
     <use xlink:href="#m5e9cfb6483" x="735.272727" y="91.764156" style="fill: #1e90ff; stroke: #1e90ff"/>
     <use xlink:href="#m5e9cfb6483" x="743.727273" y="91.764156" style="fill: #1e90ff; stroke: #1e90ff"/>
     <use xlink:href="#m5e9cfb6483" x="752.181818" y="91.764156" style="fill: #1e90ff; stroke: #1e90ff"/>
     <use xlink:href="#m5e9cfb6483" x="760.636364" y="91.764156" style="fill: #1e90ff; stroke: #1e90ff"/>
     <use xlink:href="#m5e9cfb6483" x="769.090909" y="91.764156" style="fill: #1e90ff; stroke: #1e90ff"/>
     <use xlink:href="#m5e9cfb6483" x="777.545455" y="91.764156" style="fill: #1e90ff; stroke: #1e90ff"/>
     <use xlink:href="#m5e9cfb6483" x="786" y="91.764156" style="fill: #1e90ff; stroke: #1e90ff"/>
     <use xlink:href="#m5e9cfb6483" x="794.454545" y="91.764156" style="fill: #1e90ff; stroke: #1e90ff"/>
     <use xlink:href="#m5e9cfb6483" x="802.909091" y="91.764156" style="fill: #1e90ff; stroke: #1e90ff"/>
     <use xlink:href="#m5e9cfb6483" x="811.363636" y="91.764156" style="fill: #1e90ff; stroke: #1e90ff"/>
     <use xlink:href="#m5e9cfb6483" x="819.818182" y="91.764156" style="fill: #1e90ff; stroke: #1e90ff"/>
     <use xlink:href="#m5e9cfb6483" x="828.272727" y="91.764156" style="fill: #1e90ff; stroke: #1e90ff"/>
     <use xlink:href="#m5e9cfb6483" x="836.727273" y="91.764156" style="fill: #1e90ff; stroke: #1e90ff"/>
     <use xlink:href="#m5e9cfb6483" x="845.181818" y="91.764156" style="fill: #1e90ff; stroke: #1e90ff"/>
     <use xlink:href="#m5e9cfb6483" x="853.636364" y="91.764156" style="fill: #1e90ff; stroke: #1e90ff"/>
     <use xlink:href="#m5e9cfb6483" x="862.090909" y="91.764156" style="fill: #1e90ff; stroke: #1e90ff"/>
     <use xlink:href="#m5e9cfb6483" x="870.545455" y="91.764156" style="fill: #1e90ff; stroke: #1e90ff"/>
     <use xlink:href="#m5e9cfb6483" x="879" y="91.764156" style="fill: #1e90ff; stroke: #1e90ff"/>
     <use xlink:href="#m5e9cfb6483" x="887.454545" y="91.764156" style="fill: #1e90ff; stroke: #1e90ff"/>
     <use xlink:href="#m5e9cfb6483" x="895.909091" y="91.764156" style="fill: #1e90ff; stroke: #1e90ff"/>
     <use xlink:href="#m5e9cfb6483" x="904.363636" y="91.764156" style="fill: #1e90ff; stroke: #1e90ff"/>
     <use xlink:href="#m5e9cfb6483" x="912.818182" y="91.764156" style="fill: #1e90ff; stroke: #1e90ff"/>
     <use xlink:href="#m5e9cfb6483" x="921.272727" y="91.764156" style="fill: #1e90ff; stroke: #1e90ff"/>
     <use xlink:href="#m5e9cfb6483" x="929.727273" y="91.764156" style="fill: #1e90ff; stroke: #1e90ff"/>
     <use xlink:href="#m5e9cfb6483" x="938.181818" y="91.764156" style="fill: #1e90ff; stroke: #1e90ff"/>
     <use xlink:href="#m5e9cfb6483" x="946.636364" y="91.764156" style="fill: #1e90ff; stroke: #1e90ff"/>
     <use xlink:href="#m5e9cfb6483" x="955.090909" y="91.764156" style="fill: #1e90ff; stroke: #1e90ff"/>
     <use xlink:href="#m5e9cfb6483" x="963.545455" y="91.764156" style="fill: #1e90ff; stroke: #1e90ff"/>
     <use xlink:href="#m5e9cfb6483" x="972" y="91.764156" style="fill: #1e90ff; stroke: #1e90ff"/>
    </g>
   </g>
   <g id="line2d_34">
    <path d="M 135 495.92736 
L 143.454545 495.92736 
L 151.909091 495.92736 
L 160.363636 495.92736 
L 168.818182 495.92736 
L 177.272727 495.92736 
L 185.727273 495.92736 
L 194.181818 495.92736 
L 202.636364 495.92736 
L 211.090909 495.92736 
L 219.545455 495.92736 
L 228 495.92736 
L 236.454545 495.92736 
L 244.909091 495.92736 
L 253.363636 495.92736 
L 261.818182 491.736991 
L 270.272727 478.771704 
L 278.727273 464.220675 
L 287.181818 460.362424 
L 295.636364 458.117367 
L 304.090909 455.871086 
L 312.545455 453.629475 
L 321 451.398619 
L 329.454545 450.970774 
L 337.909091 445.993306 
L 346.363636 434.256313 
L 354.818182 430.454417 
L 363.272727 426.554474 
L 371.727273 422.565576 
L 380.181818 418.499176 
L 388.636364 414.369257 
L 397.090909 410.192448 
L 405.545455 405.988047 
L 414 401.777958 
L 422.454545 397.586486 
L 430.909091 393.440013 
L 439.363636 389.366508 
L 447.818182 385.394909 
L 456.272727 381.554373 
L 464.727273 377.873437 
L 473.181818 374.379129 
L 481.636364 371.09609 
L 490.090909 368.045768 
L 498.545455 365.245736 
L 507 362.709192 
L 515.454545 360.444663 
L 523.909091 358.45594 
L 532.363636 356.742222 
L 540.818182 355.298465 
L 549.272727 354.115866 
L 557.727273 353.182467 
L 566.181818 352.483811 
L 574.636364 352.003605 
L 583.090909 351.724363 
L 591.545455 351.627978 
L 600 356.635161 
L 608.454545 382.532776 
L 616.909091 367.929334 
L 625.363636 353.764833 
L 633.818182 353.225013 
L 642.272727 352.84363 
L 650.727273 352.609343 
L 659.181818 356.977874 
L 667.636364 388.893781 
L 676.090909 370.055266 
L 684.545455 349.568541 
L 693 346.315255 
L 701.454545 343.175393 
L 709.909091 340.163467 
L 718.363636 337.293233 
L 726.818182 334.577423 
L 735.272727 332.027495 
L 743.727273 329.653409 
L 752.181818 327.463438 
L 760.636364 325.464025 
L 769.090909 323.659693 
L 777.545455 322.053002 
L 786 320.644563 
L 794.454545 319.433106 
L 802.909091 318.415588 
L 811.363636 317.58734 
L 819.818182 316.942252 
L 828.272727 316.47297 
L 836.727273 316.171108 
L 845.181818 316.027469 
L 853.636364 316.032252 
L 862.090909 316.175259 
L 870.545455 316.446075 
L 879 316.83424 
L 887.454545 317.329395 
L 895.909091 317.9214 
L 904.363636 318.600443 
L 912.818182 319.357114 
L 921.272727 320.182469 
L 929.727273 321.068073 
L 938.181818 322.006025 
L 946.636364 322.988973 
L 955.090909 324.010117 
L 963.545455 325.063202 
L 972 326.142503 
" clip-path="url(#p4e000d3c0a)" style="fill: none; stroke: #191970; stroke-width: 1.5; stroke-linecap: square"/>
    <defs>
     <path id="m8496f1f4a0" d="M 0 1.5 
C 0.397805 1.5 0.77937 1.341951 1.06066 1.06066 
C 1.341951 0.77937 1.5 0.397805 1.5 0 
C 1.5 -0.397805 1.341951 -0.77937 1.06066 -1.06066 
C 0.77937 -1.341951 0.397805 -1.5 0 -1.5 
C -0.397805 -1.5 -0.77937 -1.341951 -1.06066 -1.06066 
C -1.341951 -0.77937 -1.5 -0.397805 -1.5 0 
C -1.5 0.397805 -1.341951 0.77937 -1.06066 1.06066 
C -0.77937 1.341951 -0.397805 1.5 0 1.5 
z
" style="stroke: #191970"/>
    </defs>
    <g clip-path="url(#p4e000d3c0a)">
     <use xlink:href="#m8496f1f4a0" x="135" y="495.92736" style="fill: #191970; stroke: #191970"/>
     <use xlink:href="#m8496f1f4a0" x="143.454545" y="495.92736" style="fill: #191970; stroke: #191970"/>
     <use xlink:href="#m8496f1f4a0" x="151.909091" y="495.92736" style="fill: #191970; stroke: #191970"/>
     <use xlink:href="#m8496f1f4a0" x="160.363636" y="495.92736" style="fill: #191970; stroke: #191970"/>
     <use xlink:href="#m8496f1f4a0" x="168.818182" y="495.92736" style="fill: #191970; stroke: #191970"/>
     <use xlink:href="#m8496f1f4a0" x="177.272727" y="495.92736" style="fill: #191970; stroke: #191970"/>
     <use xlink:href="#m8496f1f4a0" x="185.727273" y="495.92736" style="fill: #191970; stroke: #191970"/>
     <use xlink:href="#m8496f1f4a0" x="194.181818" y="495.92736" style="fill: #191970; stroke: #191970"/>
     <use xlink:href="#m8496f1f4a0" x="202.636364" y="495.92736" style="fill: #191970; stroke: #191970"/>
     <use xlink:href="#m8496f1f4a0" x="211.090909" y="495.92736" style="fill: #191970; stroke: #191970"/>
     <use xlink:href="#m8496f1f4a0" x="219.545455" y="495.92736" style="fill: #191970; stroke: #191970"/>
     <use xlink:href="#m8496f1f4a0" x="228" y="495.92736" style="fill: #191970; stroke: #191970"/>
     <use xlink:href="#m8496f1f4a0" x="236.454545" y="495.92736" style="fill: #191970; stroke: #191970"/>
     <use xlink:href="#m8496f1f4a0" x="244.909091" y="495.92736" style="fill: #191970; stroke: #191970"/>
     <use xlink:href="#m8496f1f4a0" x="253.363636" y="495.92736" style="fill: #191970; stroke: #191970"/>
     <use xlink:href="#m8496f1f4a0" x="261.818182" y="491.736991" style="fill: #191970; stroke: #191970"/>
     <use xlink:href="#m8496f1f4a0" x="270.272727" y="478.771704" style="fill: #191970; stroke: #191970"/>
     <use xlink:href="#m8496f1f4a0" x="278.727273" y="464.220675" style="fill: #191970; stroke: #191970"/>
     <use xlink:href="#m8496f1f4a0" x="287.181818" y="460.362424" style="fill: #191970; stroke: #191970"/>
     <use xlink:href="#m8496f1f4a0" x="295.636364" y="458.117367" style="fill: #191970; stroke: #191970"/>
     <use xlink:href="#m8496f1f4a0" x="304.090909" y="455.871086" style="fill: #191970; stroke: #191970"/>
     <use xlink:href="#m8496f1f4a0" x="312.545455" y="453.629475" style="fill: #191970; stroke: #191970"/>
     <use xlink:href="#m8496f1f4a0" x="321" y="451.398619" style="fill: #191970; stroke: #191970"/>
     <use xlink:href="#m8496f1f4a0" x="329.454545" y="450.970774" style="fill: #191970; stroke: #191970"/>
     <use xlink:href="#m8496f1f4a0" x="337.909091" y="445.993306" style="fill: #191970; stroke: #191970"/>
     <use xlink:href="#m8496f1f4a0" x="346.363636" y="434.256313" style="fill: #191970; stroke: #191970"/>
     <use xlink:href="#m8496f1f4a0" x="354.818182" y="430.454417" style="fill: #191970; stroke: #191970"/>
     <use xlink:href="#m8496f1f4a0" x="363.272727" y="426.554474" style="fill: #191970; stroke: #191970"/>
     <use xlink:href="#m8496f1f4a0" x="371.727273" y="422.565576" style="fill: #191970; stroke: #191970"/>
     <use xlink:href="#m8496f1f4a0" x="380.181818" y="418.499176" style="fill: #191970; stroke: #191970"/>
     <use xlink:href="#m8496f1f4a0" x="388.636364" y="414.369257" style="fill: #191970; stroke: #191970"/>
     <use xlink:href="#m8496f1f4a0" x="397.090909" y="410.192448" style="fill: #191970; stroke: #191970"/>
     <use xlink:href="#m8496f1f4a0" x="405.545455" y="405.988047" style="fill: #191970; stroke: #191970"/>
     <use xlink:href="#m8496f1f4a0" x="414" y="401.777958" style="fill: #191970; stroke: #191970"/>
     <use xlink:href="#m8496f1f4a0" x="422.454545" y="397.586486" style="fill: #191970; stroke: #191970"/>
     <use xlink:href="#m8496f1f4a0" x="430.909091" y="393.440013" style="fill: #191970; stroke: #191970"/>
     <use xlink:href="#m8496f1f4a0" x="439.363636" y="389.366508" style="fill: #191970; stroke: #191970"/>
     <use xlink:href="#m8496f1f4a0" x="447.818182" y="385.394909" style="fill: #191970; stroke: #191970"/>
     <use xlink:href="#m8496f1f4a0" x="456.272727" y="381.554373" style="fill: #191970; stroke: #191970"/>
     <use xlink:href="#m8496f1f4a0" x="464.727273" y="377.873437" style="fill: #191970; stroke: #191970"/>
     <use xlink:href="#m8496f1f4a0" x="473.181818" y="374.379129" style="fill: #191970; stroke: #191970"/>
     <use xlink:href="#m8496f1f4a0" x="481.636364" y="371.09609" style="fill: #191970; stroke: #191970"/>
     <use xlink:href="#m8496f1f4a0" x="490.090909" y="368.045768" style="fill: #191970; stroke: #191970"/>
     <use xlink:href="#m8496f1f4a0" x="498.545455" y="365.245736" style="fill: #191970; stroke: #191970"/>
     <use xlink:href="#m8496f1f4a0" x="507" y="362.709192" style="fill: #191970; stroke: #191970"/>
     <use xlink:href="#m8496f1f4a0" x="515.454545" y="360.444663" style="fill: #191970; stroke: #191970"/>
     <use xlink:href="#m8496f1f4a0" x="523.909091" y="358.45594" style="fill: #191970; stroke: #191970"/>
     <use xlink:href="#m8496f1f4a0" x="532.363636" y="356.742222" style="fill: #191970; stroke: #191970"/>
     <use xlink:href="#m8496f1f4a0" x="540.818182" y="355.298465" style="fill: #191970; stroke: #191970"/>
     <use xlink:href="#m8496f1f4a0" x="549.272727" y="354.115866" style="fill: #191970; stroke: #191970"/>
     <use xlink:href="#m8496f1f4a0" x="557.727273" y="353.182467" style="fill: #191970; stroke: #191970"/>
     <use xlink:href="#m8496f1f4a0" x="566.181818" y="352.483811" style="fill: #191970; stroke: #191970"/>
     <use xlink:href="#m8496f1f4a0" x="574.636364" y="352.003605" style="fill: #191970; stroke: #191970"/>
     <use xlink:href="#m8496f1f4a0" x="583.090909" y="351.724363" style="fill: #191970; stroke: #191970"/>
     <use xlink:href="#m8496f1f4a0" x="591.545455" y="351.627978" style="fill: #191970; stroke: #191970"/>
     <use xlink:href="#m8496f1f4a0" x="600" y="356.635161" style="fill: #191970; stroke: #191970"/>
     <use xlink:href="#m8496f1f4a0" x="608.454545" y="382.532776" style="fill: #191970; stroke: #191970"/>
     <use xlink:href="#m8496f1f4a0" x="616.909091" y="367.929334" style="fill: #191970; stroke: #191970"/>
     <use xlink:href="#m8496f1f4a0" x="625.363636" y="353.764833" style="fill: #191970; stroke: #191970"/>
     <use xlink:href="#m8496f1f4a0" x="633.818182" y="353.225013" style="fill: #191970; stroke: #191970"/>
     <use xlink:href="#m8496f1f4a0" x="642.272727" y="352.84363" style="fill: #191970; stroke: #191970"/>
     <use xlink:href="#m8496f1f4a0" x="650.727273" y="352.609343" style="fill: #191970; stroke: #191970"/>
     <use xlink:href="#m8496f1f4a0" x="659.181818" y="356.977874" style="fill: #191970; stroke: #191970"/>
     <use xlink:href="#m8496f1f4a0" x="667.636364" y="388.893781" style="fill: #191970; stroke: #191970"/>
     <use xlink:href="#m8496f1f4a0" x="676.090909" y="370.055266" style="fill: #191970; stroke: #191970"/>
     <use xlink:href="#m8496f1f4a0" x="684.545455" y="349.568541" style="fill: #191970; stroke: #191970"/>
     <use xlink:href="#m8496f1f4a0" x="693" y="346.315255" style="fill: #191970; stroke: #191970"/>
     <use xlink:href="#m8496f1f4a0" x="701.454545" y="343.175393" style="fill: #191970; stroke: #191970"/>
     <use xlink:href="#m8496f1f4a0" x="709.909091" y="340.163467" style="fill: #191970; stroke: #191970"/>
     <use xlink:href="#m8496f1f4a0" x="718.363636" y="337.293233" style="fill: #191970; stroke: #191970"/>
     <use xlink:href="#m8496f1f4a0" x="726.818182" y="334.577423" style="fill: #191970; stroke: #191970"/>
     <use xlink:href="#m8496f1f4a0" x="735.272727" y="332.027495" style="fill: #191970; stroke: #191970"/>
     <use xlink:href="#m8496f1f4a0" x="743.727273" y="329.653409" style="fill: #191970; stroke: #191970"/>
     <use xlink:href="#m8496f1f4a0" x="752.181818" y="327.463438" style="fill: #191970; stroke: #191970"/>
     <use xlink:href="#m8496f1f4a0" x="760.636364" y="325.464025" style="fill: #191970; stroke: #191970"/>
     <use xlink:href="#m8496f1f4a0" x="769.090909" y="323.659693" style="fill: #191970; stroke: #191970"/>
     <use xlink:href="#m8496f1f4a0" x="777.545455" y="322.053002" style="fill: #191970; stroke: #191970"/>
     <use xlink:href="#m8496f1f4a0" x="786" y="320.644563" style="fill: #191970; stroke: #191970"/>
     <use xlink:href="#m8496f1f4a0" x="794.454545" y="319.433106" style="fill: #191970; stroke: #191970"/>
     <use xlink:href="#m8496f1f4a0" x="802.909091" y="318.415588" style="fill: #191970; stroke: #191970"/>
     <use xlink:href="#m8496f1f4a0" x="811.363636" y="317.58734" style="fill: #191970; stroke: #191970"/>
     <use xlink:href="#m8496f1f4a0" x="819.818182" y="316.942252" style="fill: #191970; stroke: #191970"/>
     <use xlink:href="#m8496f1f4a0" x="828.272727" y="316.47297" style="fill: #191970; stroke: #191970"/>
     <use xlink:href="#m8496f1f4a0" x="836.727273" y="316.171108" style="fill: #191970; stroke: #191970"/>
     <use xlink:href="#m8496f1f4a0" x="845.181818" y="316.027469" style="fill: #191970; stroke: #191970"/>
     <use xlink:href="#m8496f1f4a0" x="853.636364" y="316.032252" style="fill: #191970; stroke: #191970"/>
     <use xlink:href="#m8496f1f4a0" x="862.090909" y="316.175259" style="fill: #191970; stroke: #191970"/>
     <use xlink:href="#m8496f1f4a0" x="870.545455" y="316.446075" style="fill: #191970; stroke: #191970"/>
     <use xlink:href="#m8496f1f4a0" x="879" y="316.83424" style="fill: #191970; stroke: #191970"/>
     <use xlink:href="#m8496f1f4a0" x="887.454545" y="317.329395" style="fill: #191970; stroke: #191970"/>
     <use xlink:href="#m8496f1f4a0" x="895.909091" y="317.9214" style="fill: #191970; stroke: #191970"/>
     <use xlink:href="#m8496f1f4a0" x="904.363636" y="318.600443" style="fill: #191970; stroke: #191970"/>
     <use xlink:href="#m8496f1f4a0" x="912.818182" y="319.357114" style="fill: #191970; stroke: #191970"/>
     <use xlink:href="#m8496f1f4a0" x="921.272727" y="320.182469" style="fill: #191970; stroke: #191970"/>
     <use xlink:href="#m8496f1f4a0" x="929.727273" y="321.068073" style="fill: #191970; stroke: #191970"/>
     <use xlink:href="#m8496f1f4a0" x="938.181818" y="322.006025" style="fill: #191970; stroke: #191970"/>
     <use xlink:href="#m8496f1f4a0" x="946.636364" y="322.988973" style="fill: #191970; stroke: #191970"/>
     <use xlink:href="#m8496f1f4a0" x="955.090909" y="324.010117" style="fill: #191970; stroke: #191970"/>
     <use xlink:href="#m8496f1f4a0" x="963.545455" y="325.063202" style="fill: #191970; stroke: #191970"/>
     <use xlink:href="#m8496f1f4a0" x="972" y="326.142503" style="fill: #191970; stroke: #191970"/>
    </g>
   </g>
   <g id="patch_3">
    <path d="M 135 516.22848 
L 135 69.60384 
" style="fill: none; stroke: #000000; stroke-width: 0.8; stroke-linejoin: miter; stroke-linecap: square"/>
   </g>
   <g id="patch_4">
    <path d="M 972 516.22848 
L 972 69.60384 
" style="fill: none; stroke: #000000; stroke-width: 0.8; stroke-linejoin: miter; stroke-linecap: square"/>
   </g>
   <g id="patch_5">
    <path d="M 135 516.22848 
L 972 516.22848 
" style="fill: none; stroke: #000000; stroke-width: 0.8; stroke-linejoin: miter; stroke-linecap: square"/>
   </g>
   <g id="patch_6">
    <path d="M 135 69.60384 
L 972 69.60384 
" style="fill: none; stroke: #000000; stroke-width: 0.8; stroke-linejoin: miter; stroke-linecap: square"/>
   </g>
   <g id="legend_1">
    <g id="patch_7">
     <path d="M 142 106.96009 
L 224.921875 106.96009 
Q 226.921875 106.96009 226.921875 104.96009 
L 226.921875 76.60384 
Q 226.921875 74.60384 224.921875 74.60384 
L 142 74.60384 
Q 140 74.60384 140 76.60384 
L 140 104.96009 
Q 140 106.96009 142 106.96009 
z
" style="fill: #ffffff; opacity: 0.8; stroke: #cccccc; stroke-linejoin: miter"/>
    </g>
    <g id="line2d_35">
     <path d="M 144 82.702277 
L 154 82.702277 
L 164 82.702277 
" style="fill: none; stroke: #1e90ff; stroke-width: 1.5; stroke-linecap: square"/>
     <g>
      <use xlink:href="#m5e9cfb6483" x="154" y="82.702277" style="fill: #1e90ff; stroke: #1e90ff"/>
     </g>
    </g>
    <g id="text_19">
     <!-- sensitivity -->
     <g transform="translate(172 86.202277)scale(0.1 -0.1)">
      <use xlink:href="#DejaVuSans-73"/>
      <use xlink:href="#DejaVuSans-65" x="52.099609"/>
      <use xlink:href="#DejaVuSans-6e" x="113.623047"/>
      <use xlink:href="#DejaVuSans-73" x="177.001953"/>
      <use xlink:href="#DejaVuSans-69" x="229.101562"/>
      <use xlink:href="#DejaVuSans-74" x="256.884766"/>
      <use xlink:href="#DejaVuSans-69" x="296.09375"/>
      <use xlink:href="#DejaVuSans-76" x="323.876953"/>
      <use xlink:href="#DejaVuSans-69" x="383.056641"/>
      <use xlink:href="#DejaVuSans-74" x="410.839844"/>
      <use xlink:href="#DejaVuSans-79" x="450.048828"/>
     </g>
    </g>
    <g id="line2d_36">
     <path d="M 144 97.380403 
L 154 97.380403 
L 164 97.380403 
" style="fill: none; stroke: #191970; stroke-width: 1.5; stroke-linecap: square"/>
     <g>
      <use xlink:href="#m8496f1f4a0" x="154" y="97.380403" style="fill: #191970; stroke: #191970"/>
     </g>
    </g>
    <g id="text_20">
     <!-- elasticity -->
     <g transform="translate(172 100.880403)scale(0.1 -0.1)">
      <use xlink:href="#DejaVuSans-65"/>
      <use xlink:href="#DejaVuSans-6c" x="61.523438"/>
      <use xlink:href="#DejaVuSans-61" x="89.306641"/>
      <use xlink:href="#DejaVuSans-73" x="150.585938"/>
      <use xlink:href="#DejaVuSans-74" x="202.685547"/>
      <use xlink:href="#DejaVuSans-69" x="241.894531"/>
      <use xlink:href="#DejaVuSans-63" x="269.677734"/>
      <use xlink:href="#DejaVuSans-69" x="324.658203"/>
      <use xlink:href="#DejaVuSans-74" x="352.441406"/>
      <use xlink:href="#DejaVuSans-79" x="391.650391"/>
     </g>
    </g>
   </g>
  </g>
 </g>
 <defs>
  <clipPath id="p4e000d3c0a">
   <rect x="135" y="69.60384" width="837" height="446.62464"/>
  </clipPath>
 </defs>
</svg>
