<?xml version="1.0" encoding="utf-8" standalone="no"?>
<!DOCTYPE svg PUBLIC "-//W3C//DTD SVG 1.1//EN"
  "http://www.w3.org/Graphics/SVG/1.1/DTD/svg11.dtd">
<svg xmlns:xlink="http://www.w3.org/1999/xlink" width="1080pt" height="720pt" viewBox="0 0 1080 720" xmlns="http://www.w3.org/2000/svg" version="1.1">
 <metadata>
  <rdf:RDF xmlns:dc="http://purl.org/dc/elements/1.1/" xmlns:cc="http://creativecommons.org/ns#" xmlns:rdf="http://www.w3.org/1999/02/22-rdf-syntax-ns#">
   <cc:Work>
    <dc:type rdf:resource="http://purl.org/dc/dcmitype/StillImage"/>
    <dc:date>2026-02-05T11:38:29.507818</dc:date>
    <dc:format>image/svg+xml</dc:format>
    <dc:creator>
     <cc:Agent>
      <dc:title>Matplotlib v3.5.3, https://matplotlib.org/</dc:title>
     </cc:Agent>
    </dc:creator>
   </cc:Work>
  </rdf:RDF>
 </metadata>
 <defs>
  <style type="text/css">*{stroke-linejoin: round; stroke-linecap: butt}</style>
 </defs>
 <g id="figure_1">
  <g id="patch_1">
   <path d="M 0 720 
L 1080 720 
L 1080 0 
L 0 0 
z
"/>
  </g>
  <g id="axes_1">
   <g id="patch_2">
    <path d="M 135 640.8 
L 972 640.8 
L 972 86.4 
L 135 86.4 
z
"/>
   </g>
   <g id="LineCollection_1">
    <path d="M 135 615.6 
L 972 615.6 
" clip-path="url(#pe118c6e74a)" style="fill: none; stroke: #c0c0c0; stroke-width: 1.5"/>
   </g>
   <g id="matplotlib.axis_1">
    <g id="xtick_1">
     <g id="line2d_1">
      <path d="M 291.9375 640.8 
L 291.9375 86.4 
" clip-path="url(#pe118c6e74a)" style="fill: none; stroke: #ffffff; stroke-width: 0.25; stroke-linecap: square"/>
     </g>
     <g id="line2d_2">
      <defs>
       <path id="mc2f72e0385" d="M 0 0 
L 0 3.5 
" style="stroke: #ffffff; stroke-width: 0.8"/>
      </defs>
      <g>
       <use xlink:href="#mc2f72e0385" x="291.9375" y="640.8" style="fill: #ffffff; stroke: #ffffff; stroke-width: 0.8"/>
      </g>
     </g>
     <g id="text_1">
      <!-- 10 -->
      <g style="fill: #ffffff" transform="translate(289.389706 662.17084)rotate(-45)scale(0.1 -0.1)">
       <defs>
        <path id="DejaVuSans-31" d="M 794 531 
L 1825 531 
L 1825 4091 
L 703 3866 
L 703 4441 
L 1819 4666 
L 2450 4666 
L 2450 531 
L 3481 531 
L 3481 0 
L 794 0 
L 794 531 
z
" transform="scale(0.015625)"/>
        <path id="DejaVuSans-30" d="M 2034 4250 
Q 1547 4250 1301 3770 
Q 1056 3291 1056 2328 
Q 1056 1369 1301 889 
Q 1547 409 2034 409 
Q 2525 409 2770 889 
Q 3016 1369 3016 2328 
Q 3016 3291 2770 3770 
Q 2525 4250 2034 4250 
z
M 2034 4750 
Q 2819 4750 3233 4129 
Q 3647 3509 3647 2328 
Q 3647 1150 3233 529 
Q 2819 -91 2034 -91 
Q 1250 -91 836 529 
Q 422 1150 422 2328 
Q 422 3509 836 4129 
Q 1250 4750 2034 4750 
z
" transform="scale(0.015625)"/>
       </defs>
       <use xlink:href="#DejaVuSans-31"/>
       <use xlink:href="#DejaVuSans-30" x="63.623047"/>
      </g>
     </g>
    </g>
    <g id="xtick_2">
     <g id="line2d_3">
      <path d="M 466.3125 640.8 
L 466.3125 86.4 
" clip-path="url(#pe118c6e74a)" style="fill: none; stroke: #ffffff; stroke-width: 0.25; stroke-linecap: square"/>
     </g>
     <g id="line2d_4">
      <g>
       <use xlink:href="#mc2f72e0385" x="466.3125" y="640.8" style="fill: #ffffff; stroke: #ffffff; stroke-width: 0.8"/>
      </g>
     </g>
     <g id="text_2">
      <!-- 20 -->
      <g style="fill: #ffffff" transform="translate(463.764706 662.17084)rotate(-45)scale(0.1 -0.1)">
       <defs>
        <path id="DejaVuSans-32" d="M 1228 531 
L 3431 531 
L 3431 0 
L 469 0 
L 469 531 
Q 828 903 1448 1529 
Q 2069 2156 2228 2338 
Q 2531 2678 2651 2914 
Q 2772 3150 2772 3378 
Q 2772 3750 2511 3984 
Q 2250 4219 1831 4219 
Q 1534 4219 1204 4116 
Q 875 4013 500 3803 
L 500 4441 
Q 881 4594 1212 4672 
Q 1544 4750 1819 4750 
Q 2544 4750 2975 4387 
Q 3406 4025 3406 3419 
Q 3406 3131 3298 2873 
Q 3191 2616 2906 2266 
Q 2828 2175 2409 1742 
Q 1991 1309 1228 531 
z
" transform="scale(0.015625)"/>
       </defs>
       <use xlink:href="#DejaVuSans-32"/>
       <use xlink:href="#DejaVuSans-30" x="63.623047"/>
      </g>
     </g>
    </g>
    <g id="xtick_3">
     <g id="line2d_5">
      <path d="M 640.6875 640.8 
L 640.6875 86.4 
" clip-path="url(#pe118c6e74a)" style="fill: none; stroke: #ffffff; stroke-width: 0.25; stroke-linecap: square"/>
     </g>
     <g id="line2d_6">
      <g>
       <use xlink:href="#mc2f72e0385" x="640.6875" y="640.8" style="fill: #ffffff; stroke: #ffffff; stroke-width: 0.8"/>
      </g>
     </g>
     <g id="text_3">
      <!-- 30 -->
      <g style="fill: #ffffff" transform="translate(638.139706 662.17084)rotate(-45)scale(0.1 -0.1)">
       <defs>
        <path id="DejaVuSans-33" d="M 2597 2516 
Q 3050 2419 3304 2112 
Q 3559 1806 3559 1356 
Q 3559 666 3084 287 
Q 2609 -91 1734 -91 
Q 1441 -91 1130 -33 
Q 819 25 488 141 
L 488 750 
Q 750 597 1062 519 
Q 1375 441 1716 441 
Q 2309 441 2620 675 
Q 2931 909 2931 1356 
Q 2931 1769 2642 2001 
Q 2353 2234 1838 2234 
L 1294 2234 
L 1294 2753 
L 1863 2753 
Q 2328 2753 2575 2939 
Q 2822 3125 2822 3475 
Q 2822 3834 2567 4026 
Q 2313 4219 1838 4219 
Q 1578 4219 1281 4162 
Q 984 4106 628 3988 
L 628 4550 
Q 988 4650 1302 4700 
Q 1616 4750 1894 4750 
Q 2613 4750 3031 4423 
Q 3450 4097 3450 3541 
Q 3450 3153 3228 2886 
Q 3006 2619 2597 2516 
z
" transform="scale(0.015625)"/>
       </defs>
       <use xlink:href="#DejaVuSans-33"/>
       <use xlink:href="#DejaVuSans-30" x="63.623047"/>
      </g>
     </g>
    </g>
    <g id="xtick_4">
     <g id="line2d_7">
      <path d="M 815.0625 640.8 
L 815.0625 86.4 
" clip-path="url(#pe118c6e74a)" style="fill: none; stroke: #ffffff; stroke-width: 0.25; stroke-linecap: square"/>
     </g>
     <g id="line2d_8">
      <g>
       <use xlink:href="#mc2f72e0385" x="815.0625" y="640.8" style="fill: #ffffff; stroke: #ffffff; stroke-width: 0.8"/>
      </g>
     </g>
     <g id="text_4">
      <!-- 40 -->
      <g style="fill: #ffffff" transform="translate(812.514706 662.17084)rotate(-45)scale(0.1 -0.1)">
       <defs>
        <path id="DejaVuSans-34" d="M 2419 4116 
L 825 1625 
L 2419 1625 
L 2419 4116 
z
M 2253 4666 
L 3047 4666 
L 3047 1625 
L 3713 1625 
L 3713 1100 
L 3047 1100 
L 3047 0 
L 2419 0 
L 2419 1100 
L 313 1100 
L 313 1709 
L 2253 4666 
z
" transform="scale(0.015625)"/>
       </defs>
       <use xlink:href="#DejaVuSans-34"/>
       <use xlink:href="#DejaVuSans-30" x="63.623047"/>
      </g>
     </g>
    </g>
    <g id="text_5">
     <!-- kappa -->
     <g style="fill: #ffffff" transform="translate(538.215625 675.239839)scale(0.1 -0.1)">
      <defs>
       <path id="DejaVuSans-6b" d="M 581 4863 
L 1159 4863 
L 1159 1991 
L 2875 3500 
L 3609 3500 
L 1753 1863 
L 3688 0 
L 2938 0 
L 1159 1709 
L 1159 0 
L 581 0 
L 581 4863 
z
" transform="scale(0.015625)"/>
       <path id="DejaVuSans-61" d="M 2194 1759 
Q 1497 1759 1228 1600 
Q 959 1441 959 1056 
Q 959 750 1161 570 
Q 1363 391 1709 391 
Q 2188 391 2477 730 
Q 2766 1069 2766 1631 
L 2766 1759 
L 2194 1759 
z
M 3341 1997 
L 3341 0 
L 2766 0 
L 2766 531 
Q 2569 213 2275 61 
Q 1981 -91 1556 -91 
Q 1019 -91 701 211 
Q 384 513 384 1019 
Q 384 1609 779 1909 
Q 1175 2209 1959 2209 
L 2766 2209 
L 2766 2266 
Q 2766 2663 2505 2880 
Q 2244 3097 1772 3097 
Q 1472 3097 1187 3025 
Q 903 2953 641 2809 
L 641 3341 
Q 956 3463 1253 3523 
Q 1550 3584 1831 3584 
Q 2591 3584 2966 3190 
Q 3341 2797 3341 1997 
z
" transform="scale(0.015625)"/>
       <path id="DejaVuSans-70" d="M 1159 525 
L 1159 -1331 
L 581 -1331 
L 581 3500 
L 1159 3500 
L 1159 2969 
Q 1341 3281 1617 3432 
Q 1894 3584 2278 3584 
Q 2916 3584 3314 3078 
Q 3713 2572 3713 1747 
Q 3713 922 3314 415 
Q 2916 -91 2278 -91 
Q 1894 -91 1617 61 
Q 1341 213 1159 525 
z
M 3116 1747 
Q 3116 2381 2855 2742 
Q 2594 3103 2138 3103 
Q 1681 3103 1420 2742 
Q 1159 2381 1159 1747 
Q 1159 1113 1420 752 
Q 1681 391 2138 391 
Q 2594 391 2855 752 
Q 3116 1113 3116 1747 
z
" transform="scale(0.015625)"/>
      </defs>
      <use xlink:href="#DejaVuSans-6b"/>
      <use xlink:href="#DejaVuSans-61" x="56.160156"/>
      <use xlink:href="#DejaVuSans-70" x="117.439453"/>
      <use xlink:href="#DejaVuSans-70" x="180.916016"/>
      <use xlink:href="#DejaVuSans-61" x="244.392578"/>
     </g>
    </g>
   </g>
   <g id="matplotlib.axis_2">
    <g id="ytick_1">
     <g id="line2d_9">
      <path d="M 135 615.6 
L 972 615.6 
" clip-path="url(#pe118c6e74a)" style="fill: none; stroke: #ffffff; stroke-width: 0.25; stroke-linecap: square"/>
     </g>
     <g id="line2d_10">
      <defs>
       <path id="mf03ddcf470" d="M 0 0 
L -3.5 0 
" style="stroke: #ffffff; stroke-width: 0.8"/>
      </defs>
      <g>
       <use xlink:href="#mf03ddcf470" x="135" y="615.6" style="fill: #ffffff; stroke: #ffffff; stroke-width: 0.8"/>
      </g>
     </g>
     <g id="text_6">
      <!-- 0.0 -->
      <g style="fill: #ffffff" transform="translate(112.096875 619.399219)scale(0.1 -0.1)">
       <defs>
        <path id="DejaVuSans-2e" d="M 684 794 
L 1344 794 
L 1344 0 
L 684 0 
L 684 794 
z
" transform="scale(0.015625)"/>
       </defs>
       <use xlink:href="#DejaVuSans-30"/>
       <use xlink:href="#DejaVuSans-2e" x="63.623047"/>
       <use xlink:href="#DejaVuSans-30" x="95.410156"/>
      </g>
     </g>
    </g>
    <g id="ytick_2">
     <g id="line2d_11">
      <path d="M 135 565.2 
L 972 565.2 
" clip-path="url(#pe118c6e74a)" style="fill: none; stroke: #ffffff; stroke-width: 0.25; stroke-linecap: square"/>
     </g>
     <g id="line2d_12">
      <g>
       <use xlink:href="#mf03ddcf470" x="135" y="565.2" style="fill: #ffffff; stroke: #ffffff; stroke-width: 0.8"/>
      </g>
     </g>
     <g id="text_7">
      <!-- 0.1 -->
      <g style="fill: #ffffff" transform="translate(112.096875 568.999219)scale(0.1 -0.1)">
       <use xlink:href="#DejaVuSans-30"/>
       <use xlink:href="#DejaVuSans-2e" x="63.623047"/>
       <use xlink:href="#DejaVuSans-31" x="95.410156"/>
      </g>
     </g>
    </g>
    <g id="ytick_3">
     <g id="line2d_13">
      <path d="M 135 514.8 
L 972 514.8 
" clip-path="url(#pe118c6e74a)" style="fill: none; stroke: #ffffff; stroke-width: 0.25; stroke-linecap: square"/>
     </g>
     <g id="line2d_14">
      <g>
       <use xlink:href="#mf03ddcf470" x="135" y="514.8" style="fill: #ffffff; stroke: #ffffff; stroke-width: 0.8"/>
      </g>
     </g>
     <g id="text_8">
      <!-- 0.2 -->
      <g style="fill: #ffffff" transform="translate(112.096875 518.599219)scale(0.1 -0.1)">
       <use xlink:href="#DejaVuSans-30"/>
       <use xlink:href="#DejaVuSans-2e" x="63.623047"/>
       <use xlink:href="#DejaVuSans-32" x="95.410156"/>
      </g>
     </g>
    </g>
    <g id="ytick_4">
     <g id="line2d_15">
      <path d="M 135 464.4 
L 972 464.4 
" clip-path="url(#pe118c6e74a)" style="fill: none; stroke: #ffffff; stroke-width: 0.25; stroke-linecap: square"/>
     </g>
     <g id="line2d_16">
      <g>
       <use xlink:href="#mf03ddcf470" x="135" y="464.4" style="fill: #ffffff; stroke: #ffffff; stroke-width: 0.8"/>
      </g>
     </g>
     <g id="text_9">
      <!-- 0.3 -->
      <g style="fill: #ffffff" transform="translate(112.096875 468.199219)scale(0.1 -0.1)">
       <use xlink:href="#DejaVuSans-30"/>
       <use xlink:href="#DejaVuSans-2e" x="63.623047"/>
       <use xlink:href="#DejaVuSans-33" x="95.410156"/>
      </g>
     </g>
    </g>
    <g id="ytick_5">
     <g id="line2d_17">
      <path d="M 135 414 
L 972 414 
" clip-path="url(#pe118c6e74a)" style="fill: none; stroke: #ffffff; stroke-width: 0.25; stroke-linecap: square"/>
     </g>
     <g id="line2d_18">
      <g>
       <use xlink:href="#mf03ddcf470" x="135" y="414" style="fill: #ffffff; stroke: #ffffff; stroke-width: 0.8"/>
      </g>
     </g>
     <g id="text_10">
      <!-- 0.4 -->
      <g style="fill: #ffffff" transform="translate(112.096875 417.799219)scale(0.1 -0.1)">
       <use xlink:href="#DejaVuSans-30"/>
       <use xlink:href="#DejaVuSans-2e" x="63.623047"/>
       <use xlink:href="#DejaVuSans-34" x="95.410156"/>
      </g>
     </g>
    </g>
    <g id="ytick_6">
     <g id="line2d_19">
      <path d="M 135 363.6 
L 972 363.6 
" clip-path="url(#pe118c6e74a)" style="fill: none; stroke: #ffffff; stroke-width: 0.25; stroke-linecap: square"/>
     </g>
     <g id="line2d_20">
      <g>
       <use xlink:href="#mf03ddcf470" x="135" y="363.6" style="fill: #ffffff; stroke: #ffffff; stroke-width: 0.8"/>
      </g>
     </g>
     <g id="text_11">
      <!-- 0.5 -->
      <g style="fill: #ffffff" transform="translate(112.096875 367.399219)scale(0.1 -0.1)">
       <defs>
        <path id="DejaVuSans-35" d="M 691 4666 
L 3169 4666 
L 3169 4134 
L 1269 4134 
L 1269 2991 
Q 1406 3038 1543 3061 
Q 1681 3084 1819 3084 
Q 2600 3084 3056 2656 
Q 3513 2228 3513 1497 
Q 3513 744 3044 326 
Q 2575 -91 1722 -91 
Q 1428 -91 1123 -41 
Q 819 9 494 109 
L 494 744 
Q 775 591 1075 516 
Q 1375 441 1709 441 
Q 2250 441 2565 725 
Q 2881 1009 2881 1497 
Q 2881 1984 2565 2268 
Q 2250 2553 1709 2553 
Q 1456 2553 1204 2497 
Q 953 2441 691 2322 
L 691 4666 
z
" transform="scale(0.015625)"/>
       </defs>
       <use xlink:href="#DejaVuSans-30"/>
       <use xlink:href="#DejaVuSans-2e" x="63.623047"/>
       <use xlink:href="#DejaVuSans-35" x="95.410156"/>
      </g>
     </g>
    </g>
    <g id="ytick_7">
     <g id="line2d_21">
      <path d="M 135 313.2 
L 972 313.2 
" clip-path="url(#pe118c6e74a)" style="fill: none; stroke: #ffffff; stroke-width: 0.25; stroke-linecap: square"/>
     </g>
     <g id="line2d_22">
      <g>
       <use xlink:href="#mf03ddcf470" x="135" y="313.2" style="fill: #ffffff; stroke: #ffffff; stroke-width: 0.8"/>
      </g>
     </g>
     <g id="text_12">
      <!-- 0.6 -->
      <g style="fill: #ffffff" transform="translate(112.096875 316.999219)scale(0.1 -0.1)">
       <defs>
        <path id="DejaVuSans-36" d="M 2113 2584 
Q 1688 2584 1439 2293 
Q 1191 2003 1191 1497 
Q 1191 994 1439 701 
Q 1688 409 2113 409 
Q 2538 409 2786 701 
Q 3034 994 3034 1497 
Q 3034 2003 2786 2293 
Q 2538 2584 2113 2584 
z
M 3366 4563 
L 3366 3988 
Q 3128 4100 2886 4159 
Q 2644 4219 2406 4219 
Q 1781 4219 1451 3797 
Q 1122 3375 1075 2522 
Q 1259 2794 1537 2939 
Q 1816 3084 2150 3084 
Q 2853 3084 3261 2657 
Q 3669 2231 3669 1497 
Q 3669 778 3244 343 
Q 2819 -91 2113 -91 
Q 1303 -91 875 529 
Q 447 1150 447 2328 
Q 447 3434 972 4092 
Q 1497 4750 2381 4750 
Q 2619 4750 2861 4703 
Q 3103 4656 3366 4563 
z
" transform="scale(0.015625)"/>
       </defs>
       <use xlink:href="#DejaVuSans-30"/>
       <use xlink:href="#DejaVuSans-2e" x="63.623047"/>
       <use xlink:href="#DejaVuSans-36" x="95.410156"/>
      </g>
     </g>
    </g>
    <g id="ytick_8">
     <g id="line2d_23">
      <path d="M 135 262.8 
L 972 262.8 
" clip-path="url(#pe118c6e74a)" style="fill: none; stroke: #ffffff; stroke-width: 0.25; stroke-linecap: square"/>
     </g>
     <g id="line2d_24">
      <g>
       <use xlink:href="#mf03ddcf470" x="135" y="262.8" style="fill: #ffffff; stroke: #ffffff; stroke-width: 0.8"/>
      </g>
     </g>
     <g id="text_13">
      <!-- 0.7 -->
      <g style="fill: #ffffff" transform="translate(112.096875 266.599219)scale(0.1 -0.1)">
       <defs>
        <path id="DejaVuSans-37" d="M 525 4666 
L 3525 4666 
L 3525 4397 
L 1831 0 
L 1172 0 
L 2766 4134 
L 525 4134 
L 525 4666 
z
" transform="scale(0.015625)"/>
       </defs>
       <use xlink:href="#DejaVuSans-30"/>
       <use xlink:href="#DejaVuSans-2e" x="63.623047"/>
       <use xlink:href="#DejaVuSans-37" x="95.410156"/>
      </g>
     </g>
    </g>
    <g id="ytick_9">
     <g id="line2d_25">
      <path d="M 135 212.4 
L 972 212.4 
" clip-path="url(#pe118c6e74a)" style="fill: none; stroke: #ffffff; stroke-width: 0.25; stroke-linecap: square"/>
     </g>
     <g id="line2d_26">
      <g>
       <use xlink:href="#mf03ddcf470" x="135" y="212.4" style="fill: #ffffff; stroke: #ffffff; stroke-width: 0.8"/>
      </g>
     </g>
     <g id="text_14">
      <!-- 0.8 -->
      <g style="fill: #ffffff" transform="translate(112.096875 216.199219)scale(0.1 -0.1)">
       <defs>
        <path id="DejaVuSans-38" d="M 2034 2216 
Q 1584 2216 1326 1975 
Q 1069 1734 1069 1313 
Q 1069 891 1326 650 
Q 1584 409 2034 409 
Q 2484 409 2743 651 
Q 3003 894 3003 1313 
Q 3003 1734 2745 1975 
Q 2488 2216 2034 2216 
z
M 1403 2484 
Q 997 2584 770 2862 
Q 544 3141 544 3541 
Q 544 4100 942 4425 
Q 1341 4750 2034 4750 
Q 2731 4750 3128 4425 
Q 3525 4100 3525 3541 
Q 3525 3141 3298 2862 
Q 3072 2584 2669 2484 
Q 3125 2378 3379 2068 
Q 3634 1759 3634 1313 
Q 3634 634 3220 271 
Q 2806 -91 2034 -91 
Q 1263 -91 848 271 
Q 434 634 434 1313 
Q 434 1759 690 2068 
Q 947 2378 1403 2484 
z
M 1172 3481 
Q 1172 3119 1398 2916 
Q 1625 2713 2034 2713 
Q 2441 2713 2670 2916 
Q 2900 3119 2900 3481 
Q 2900 3844 2670 4047 
Q 2441 4250 2034 4250 
Q 1625 4250 1398 4047 
Q 1172 3844 1172 3481 
z
" transform="scale(0.015625)"/>
       </defs>
       <use xlink:href="#DejaVuSans-30"/>
       <use xlink:href="#DejaVuSans-2e" x="63.623047"/>
       <use xlink:href="#DejaVuSans-38" x="95.410156"/>
      </g>
     </g>
    </g>
    <g id="ytick_10">
     <g id="line2d_27">
      <path d="M 135 162 
L 972 162 
" clip-path="url(#pe118c6e74a)" style="fill: none; stroke: #ffffff; stroke-width: 0.25; stroke-linecap: square"/>
     </g>
     <g id="line2d_28">
      <g>
       <use xlink:href="#mf03ddcf470" x="135" y="162" style="fill: #ffffff; stroke: #ffffff; stroke-width: 0.8"/>
      </g>
     </g>
     <g id="text_15">
      <!-- 0.9 -->
      <g style="fill: #ffffff" transform="translate(112.096875 165.799219)scale(0.1 -0.1)">
       <defs>
        <path id="DejaVuSans-39" d="M 703 97 
L 703 672 
Q 941 559 1184 500 
Q 1428 441 1663 441 
Q 2288 441 2617 861 
Q 2947 1281 2994 2138 
Q 2813 1869 2534 1725 
Q 2256 1581 1919 1581 
Q 1219 1581 811 2004 
Q 403 2428 403 3163 
Q 403 3881 828 4315 
Q 1253 4750 1959 4750 
Q 2769 4750 3195 4129 
Q 3622 3509 3622 2328 
Q 3622 1225 3098 567 
Q 2575 -91 1691 -91 
Q 1453 -91 1209 -44 
Q 966 3 703 97 
z
M 1959 2075 
Q 2384 2075 2632 2365 
Q 2881 2656 2881 3163 
Q 2881 3666 2632 3958 
Q 2384 4250 1959 4250 
Q 1534 4250 1286 3958 
Q 1038 3666 1038 3163 
Q 1038 2656 1286 2365 
Q 1534 2075 1959 2075 
z
" transform="scale(0.015625)"/>
       </defs>
       <use xlink:href="#DejaVuSans-30"/>
       <use xlink:href="#DejaVuSans-2e" x="63.623047"/>
       <use xlink:href="#DejaVuSans-39" x="95.410156"/>
      </g>
     </g>
    </g>
    <g id="ytick_11">
     <g id="line2d_29">
      <path d="M 135 111.6 
L 972 111.6 
" clip-path="url(#pe118c6e74a)" style="fill: none; stroke: #ffffff; stroke-width: 0.25; stroke-linecap: square"/>
     </g>
     <g id="line2d_30">
      <g>
       <use xlink:href="#mf03ddcf470" x="135" y="111.6" style="fill: #ffffff; stroke: #ffffff; stroke-width: 0.8"/>
      </g>
     </g>
     <g id="text_16">
      <!-- 1.0 -->
      <g style="fill: #ffffff" transform="translate(112.096875 115.399219)scale(0.1 -0.1)">
       <use xlink:href="#DejaVuSans-31"/>
       <use xlink:href="#DejaVuSans-2e" x="63.623047"/>
       <use xlink:href="#DejaVuSans-30" x="95.410156"/>
      </g>
     </g>
    </g>
    <g id="text_17">
     <!-- allocation -->
     <g style="fill: #ffffff" transform="translate(106.017187 387.892187)rotate(-90)scale(0.1 -0.1)">
      <defs>
       <path id="DejaVuSans-6c" d="M 603 4863 
L 1178 4863 
L 1178 0 
L 603 0 
L 603 4863 
z
" transform="scale(0.015625)"/>
       <path id="DejaVuSans-6f" d="M 1959 3097 
Q 1497 3097 1228 2736 
Q 959 2375 959 1747 
Q 959 1119 1226 758 
Q 1494 397 1959 397 
Q 2419 397 2687 759 
Q 2956 1122 2956 1747 
Q 2956 2369 2687 2733 
Q 2419 3097 1959 3097 
z
M 1959 3584 
Q 2709 3584 3137 3096 
Q 3566 2609 3566 1747 
Q 3566 888 3137 398 
Q 2709 -91 1959 -91 
Q 1206 -91 779 398 
Q 353 888 353 1747 
Q 353 2609 779 3096 
Q 1206 3584 1959 3584 
z
" transform="scale(0.015625)"/>
       <path id="DejaVuSans-63" d="M 3122 3366 
L 3122 2828 
Q 2878 2963 2633 3030 
Q 2388 3097 2138 3097 
Q 1578 3097 1268 2742 
Q 959 2388 959 1747 
Q 959 1106 1268 751 
Q 1578 397 2138 397 
Q 2388 397 2633 464 
Q 2878 531 3122 666 
L 3122 134 
Q 2881 22 2623 -34 
Q 2366 -91 2075 -91 
Q 1284 -91 818 406 
Q 353 903 353 1747 
Q 353 2603 823 3093 
Q 1294 3584 2113 3584 
Q 2378 3584 2631 3529 
Q 2884 3475 3122 3366 
z
" transform="scale(0.015625)"/>
       <path id="DejaVuSans-74" d="M 1172 4494 
L 1172 3500 
L 2356 3500 
L 2356 3053 
L 1172 3053 
L 1172 1153 
Q 1172 725 1289 603 
Q 1406 481 1766 481 
L 2356 481 
L 2356 0 
L 1766 0 
Q 1100 0 847 248 
Q 594 497 594 1153 
L 594 3053 
L 172 3053 
L 172 3500 
L 594 3500 
L 594 4494 
L 1172 4494 
z
" transform="scale(0.015625)"/>
       <path id="DejaVuSans-69" d="M 603 3500 
L 1178 3500 
L 1178 0 
L 603 0 
L 603 3500 
z
M 603 4863 
L 1178 4863 
L 1178 4134 
L 603 4134 
L 603 4863 
z
" transform="scale(0.015625)"/>
       <path id="DejaVuSans-6e" d="M 3513 2113 
L 3513 0 
L 2938 0 
L 2938 2094 
Q 2938 2591 2744 2837 
Q 2550 3084 2163 3084 
Q 1697 3084 1428 2787 
Q 1159 2491 1159 1978 
L 1159 0 
L 581 0 
L 581 3500 
L 1159 3500 
L 1159 2956 
Q 1366 3272 1645 3428 
Q 1925 3584 2291 3584 
Q 2894 3584 3203 3211 
Q 3513 2838 3513 2113 
z
" transform="scale(0.015625)"/>
      </defs>
      <use xlink:href="#DejaVuSans-61"/>
      <use xlink:href="#DejaVuSans-6c" x="61.279297"/>
      <use xlink:href="#DejaVuSans-6c" x="89.0625"/>
      <use xlink:href="#DejaVuSans-6f" x="116.845703"/>
      <use xlink:href="#DejaVuSans-63" x="178.027344"/>
      <use xlink:href="#DejaVuSans-61" x="233.007812"/>
      <use xlink:href="#DejaVuSans-74" x="294.287109"/>
      <use xlink:href="#DejaVuSans-69" x="333.496094"/>
      <use xlink:href="#DejaVuSans-6f" x="361.279297"/>
      <use xlink:href="#DejaVuSans-6e" x="422.460938"/>
     </g>
    </g>
   </g>
   <g id="line2d_31">
    <path d="M 135 244.743441 
L 152.4375 410.325167 
L 169.875 465.519076 
L 187.3125 493.116031 
L 204.75 509.674203 
L 222.1875 520.712985 
L 239.625 528.597829 
L 257.0625 534.511462 
L 274.5 539.110954 
L 291.9375 542.790548 
L 309.375 545.801125 
L 326.8125 548.309939 
L 344.25 550.432782 
L 361.6875 552.252361 
L 379.125 553.82933 
L 396.5625 555.209178 
L 414 556.426691 
L 431.4375 557.508924 
L 448.875 558.477238 
L 466.3125 559.348721 
L 483.75 560.137205 
L 501.1875 560.854009 
L 518.625 561.508483 
L 536.0625 562.108416 
L 553.5 562.660355 
L 570.9375 563.169838 
L 588.375 563.641581 
L 605.8125 564.079627 
L 623.25 564.487464 
L 640.6875 564.868112 
L 658.125 565.224202 
L 675.5625 565.558036 
L 693 565.871637 
L 710.4375 566.166792 
L 727.875 566.445081 
L 745.3125 566.707909 
L 762.75 566.95653 
L 780.1875 567.192066 
L 797.625 567.415523 
L 815.0625 567.627807 
L 832.5 567.829736 
L 849.9375 568.022049 
L 867.375 568.205418 
L 884.8125 568.380451 
L 902.25 568.547706 
L 919.6875 568.707688 
L 937.125 568.860863 
L 954.5625 569.007655 
L 972 569.148456 
" clip-path="url(#pe118c6e74a)" style="fill: none; stroke: #8dd3c7; stroke-width: 1.5; stroke-linecap: square"/>
    <defs>
     <path id="mead36774b0" d="M 0 3 
C 0.795609 3 1.55874 2.683901 2.12132 2.12132 
C 2.683901 1.55874 3 0.795609 3 0 
C 3 -0.795609 2.683901 -1.55874 2.12132 -2.12132 
C 1.55874 -2.683901 0.795609 -3 0 -3 
C -0.795609 -3 -1.55874 -2.683901 -2.12132 -2.12132 
C -2.683901 -1.55874 -3 -0.795609 -3 0 
C -3 0.795609 -2.683901 1.55874 -2.12132 2.12132 
C -1.55874 2.683901 -0.795609 3 0 3 
z
" style="stroke: #8dd3c7"/>
    </defs>
    <g clip-path="url(#pe118c6e74a)">
     <use xlink:href="#mead36774b0" x="135" y="244.743441" style="fill: #8dd3c7; stroke: #8dd3c7"/>
     <use xlink:href="#mead36774b0" x="152.4375" y="410.325167" style="fill: #8dd3c7; stroke: #8dd3c7"/>
     <use xlink:href="#mead36774b0" x="169.875" y="465.519076" style="fill: #8dd3c7; stroke: #8dd3c7"/>
     <use xlink:href="#mead36774b0" x="187.3125" y="493.116031" style="fill: #8dd3c7; stroke: #8dd3c7"/>
     <use xlink:href="#mead36774b0" x="204.75" y="509.674203" style="fill: #8dd3c7; stroke: #8dd3c7"/>
     <use xlink:href="#mead36774b0" x="222.1875" y="520.712985" style="fill: #8dd3c7; stroke: #8dd3c7"/>
     <use xlink:href="#mead36774b0" x="239.625" y="528.597829" style="fill: #8dd3c7; stroke: #8dd3c7"/>
     <use xlink:href="#mead36774b0" x="257.0625" y="534.511462" style="fill: #8dd3c7; stroke: #8dd3c7"/>
     <use xlink:href="#mead36774b0" x="274.5" y="539.110954" style="fill: #8dd3c7; stroke: #8dd3c7"/>
     <use xlink:href="#mead36774b0" x="291.9375" y="542.790548" style="fill: #8dd3c7; stroke: #8dd3c7"/>
     <use xlink:href="#mead36774b0" x="309.375" y="545.801125" style="fill: #8dd3c7; stroke: #8dd3c7"/>
     <use xlink:href="#mead36774b0" x="326.8125" y="548.309939" style="fill: #8dd3c7; stroke: #8dd3c7"/>
     <use xlink:href="#mead36774b0" x="344.25" y="550.432782" style="fill: #8dd3c7; stroke: #8dd3c7"/>
     <use xlink:href="#mead36774b0" x="361.6875" y="552.252361" style="fill: #8dd3c7; stroke: #8dd3c7"/>
     <use xlink:href="#mead36774b0" x="379.125" y="553.82933" style="fill: #8dd3c7; stroke: #8dd3c7"/>
     <use xlink:href="#mead36774b0" x="396.5625" y="555.209178" style="fill: #8dd3c7; stroke: #8dd3c7"/>
     <use xlink:href="#mead36774b0" x="414" y="556.426691" style="fill: #8dd3c7; stroke: #8dd3c7"/>
     <use xlink:href="#mead36774b0" x="431.4375" y="557.508924" style="fill: #8dd3c7; stroke: #8dd3c7"/>
     <use xlink:href="#mead36774b0" x="448.875" y="558.477238" style="fill: #8dd3c7; stroke: #8dd3c7"/>
     <use xlink:href="#mead36774b0" x="466.3125" y="559.348721" style="fill: #8dd3c7; stroke: #8dd3c7"/>
     <use xlink:href="#mead36774b0" x="483.75" y="560.137205" style="fill: #8dd3c7; stroke: #8dd3c7"/>
     <use xlink:href="#mead36774b0" x="501.1875" y="560.854009" style="fill: #8dd3c7; stroke: #8dd3c7"/>
     <use xlink:href="#mead36774b0" x="518.625" y="561.508483" style="fill: #8dd3c7; stroke: #8dd3c7"/>
     <use xlink:href="#mead36774b0" x="536.0625" y="562.108416" style="fill: #8dd3c7; stroke: #8dd3c7"/>
     <use xlink:href="#mead36774b0" x="553.5" y="562.660355" style="fill: #8dd3c7; stroke: #8dd3c7"/>
     <use xlink:href="#mead36774b0" x="570.9375" y="563.169838" style="fill: #8dd3c7; stroke: #8dd3c7"/>
     <use xlink:href="#mead36774b0" x="588.375" y="563.641581" style="fill: #8dd3c7; stroke: #8dd3c7"/>
     <use xlink:href="#mead36774b0" x="605.8125" y="564.079627" style="fill: #8dd3c7; stroke: #8dd3c7"/>
     <use xlink:href="#mead36774b0" x="623.25" y="564.487464" style="fill: #8dd3c7; stroke: #8dd3c7"/>
     <use xlink:href="#mead36774b0" x="640.6875" y="564.868112" style="fill: #8dd3c7; stroke: #8dd3c7"/>
     <use xlink:href="#mead36774b0" x="658.125" y="565.224202" style="fill: #8dd3c7; stroke: #8dd3c7"/>
     <use xlink:href="#mead36774b0" x="675.5625" y="565.558036" style="fill: #8dd3c7; stroke: #8dd3c7"/>
     <use xlink:href="#mead36774b0" x="693" y="565.871637" style="fill: #8dd3c7; stroke: #8dd3c7"/>
     <use xlink:href="#mead36774b0" x="710.4375" y="566.166792" style="fill: #8dd3c7; stroke: #8dd3c7"/>
     <use xlink:href="#mead36774b0" x="727.875" y="566.445081" style="fill: #8dd3c7; stroke: #8dd3c7"/>
     <use xlink:href="#mead36774b0" x="745.3125" y="566.707909" style="fill: #8dd3c7; stroke: #8dd3c7"/>
     <use xlink:href="#mead36774b0" x="762.75" y="566.95653" style="fill: #8dd3c7; stroke: #8dd3c7"/>
     <use xlink:href="#mead36774b0" x="780.1875" y="567.192066" style="fill: #8dd3c7; stroke: #8dd3c7"/>
     <use xlink:href="#mead36774b0" x="797.625" y="567.415523" style="fill: #8dd3c7; stroke: #8dd3c7"/>
     <use xlink:href="#mead36774b0" x="815.0625" y="567.627807" style="fill: #8dd3c7; stroke: #8dd3c7"/>
     <use xlink:href="#mead36774b0" x="832.5" y="567.829736" style="fill: #8dd3c7; stroke: #8dd3c7"/>
     <use xlink:href="#mead36774b0" x="849.9375" y="568.022049" style="fill: #8dd3c7; stroke: #8dd3c7"/>
     <use xlink:href="#mead36774b0" x="867.375" y="568.205418" style="fill: #8dd3c7; stroke: #8dd3c7"/>
     <use xlink:href="#mead36774b0" x="884.8125" y="568.380451" style="fill: #8dd3c7; stroke: #8dd3c7"/>
     <use xlink:href="#mead36774b0" x="902.25" y="568.547706" style="fill: #8dd3c7; stroke: #8dd3c7"/>
     <use xlink:href="#mead36774b0" x="919.6875" y="568.707688" style="fill: #8dd3c7; stroke: #8dd3c7"/>
     <use xlink:href="#mead36774b0" x="937.125" y="568.860863" style="fill: #8dd3c7; stroke: #8dd3c7"/>
     <use xlink:href="#mead36774b0" x="954.5625" y="569.007655" style="fill: #8dd3c7; stroke: #8dd3c7"/>
     <use xlink:href="#mead36774b0" x="972" y="569.148456" style="fill: #8dd3c7; stroke: #8dd3c7"/>
    </g>
   </g>
   <g id="line2d_32">
    <path d="M 135 713.999294 
L 152.4375 643.499936 
L 169.875 620.00015 
L 187.3125 608.250257 
L 204.75 601.200322 
L 222.1875 596.500364 
L 239.625 593.143252 
L 257.0625 590.625418 
L 274.5 588.667103 
L 291.9375 587.10045 
L 309.375 585.818644 
L 326.8125 584.750472 
L 344.25 583.846634 
L 361.6875 583.071915 
L 379.125 582.400493 
L 396.5625 581.812998 
L 414 581.294621 
L 431.4375 580.833841 
L 448.875 580.421564 
L 466.3125 580.050514 
L 483.75 579.714803 
L 501.1875 579.409611 
L 518.625 579.130958 
L 536.0625 578.875525 
L 553.5 578.640527 
L 570.9375 578.423606 
L 588.375 578.222753 
L 605.8125 578.036247 
L 623.25 577.862603 
L 640.6875 577.700536 
L 658.125 577.548924 
L 675.5625 577.406789 
L 693 577.273267 
L 710.4375 577.1476 
L 727.875 577.029113 
L 745.3125 576.91721 
L 762.75 576.811355 
L 780.1875 576.711071 
L 797.625 576.61593 
L 815.0625 576.525547 
L 832.5 576.439572 
L 849.9375 576.357691 
L 867.375 576.279619 
L 884.8125 576.205095 
L 902.25 576.133883 
L 919.6875 576.065768 
L 937.125 576.000551 
L 954.5625 575.938052 
L 972 575.878103 
" clip-path="url(#pe118c6e74a)" style="fill: none; stroke: #feffb3; stroke-width: 1.5; stroke-linecap: square"/>
    <defs>
     <path id="m810a15235f" d="M 0 3 
C 0.795609 3 1.55874 2.683901 2.12132 2.12132 
C 2.683901 1.55874 3 0.795609 3 0 
C 3 -0.795609 2.683901 -1.55874 2.12132 -2.12132 
C 1.55874 -2.683901 0.795609 -3 0 -3 
C -0.795609 -3 -1.55874 -2.683901 -2.12132 -2.12132 
C -2.683901 -1.55874 -3 -0.795609 -3 0 
C -3 0.795609 -2.683901 1.55874 -2.12132 2.12132 
C -1.55874 2.683901 -0.795609 3 0 3 
z
" style="stroke: #feffb3"/>
    </defs>
    <g clip-path="url(#pe118c6e74a)">
     <use xlink:href="#m810a15235f" x="135" y="713.999294" style="fill: #feffb3; stroke: #feffb3"/>
     <use xlink:href="#m810a15235f" x="152.4375" y="643.499936" style="fill: #feffb3; stroke: #feffb3"/>
     <use xlink:href="#m810a15235f" x="169.875" y="620.00015" style="fill: #feffb3; stroke: #feffb3"/>
     <use xlink:href="#m810a15235f" x="187.3125" y="608.250257" style="fill: #feffb3; stroke: #feffb3"/>
     <use xlink:href="#m810a15235f" x="204.75" y="601.200322" style="fill: #feffb3; stroke: #feffb3"/>
     <use xlink:href="#m810a15235f" x="222.1875" y="596.500364" style="fill: #feffb3; stroke: #feffb3"/>
     <use xlink:href="#m810a15235f" x="239.625" y="593.143252" style="fill: #feffb3; stroke: #feffb3"/>
     <use xlink:href="#m810a15235f" x="257.0625" y="590.625418" style="fill: #feffb3; stroke: #feffb3"/>
     <use xlink:href="#m810a15235f" x="274.5" y="588.667103" style="fill: #feffb3; stroke: #feffb3"/>
     <use xlink:href="#m810a15235f" x="291.9375" y="587.10045" style="fill: #feffb3; stroke: #feffb3"/>
     <use xlink:href="#m810a15235f" x="309.375" y="585.818644" style="fill: #feffb3; stroke: #feffb3"/>
     <use xlink:href="#m810a15235f" x="326.8125" y="584.750472" style="fill: #feffb3; stroke: #feffb3"/>
     <use xlink:href="#m810a15235f" x="344.25" y="583.846634" style="fill: #feffb3; stroke: #feffb3"/>
     <use xlink:href="#m810a15235f" x="361.6875" y="583.071915" style="fill: #feffb3; stroke: #feffb3"/>
     <use xlink:href="#m810a15235f" x="379.125" y="582.400493" style="fill: #feffb3; stroke: #feffb3"/>
     <use xlink:href="#m810a15235f" x="396.5625" y="581.812998" style="fill: #feffb3; stroke: #feffb3"/>
     <use xlink:href="#m810a15235f" x="414" y="581.294621" style="fill: #feffb3; stroke: #feffb3"/>
     <use xlink:href="#m810a15235f" x="431.4375" y="580.833841" style="fill: #feffb3; stroke: #feffb3"/>
     <use xlink:href="#m810a15235f" x="448.875" y="580.421564" style="fill: #feffb3; stroke: #feffb3"/>
     <use xlink:href="#m810a15235f" x="466.3125" y="580.050514" style="fill: #feffb3; stroke: #feffb3"/>
     <use xlink:href="#m810a15235f" x="483.75" y="579.714803" style="fill: #feffb3; stroke: #feffb3"/>
     <use xlink:href="#m810a15235f" x="501.1875" y="579.409611" style="fill: #feffb3; stroke: #feffb3"/>
     <use xlink:href="#m810a15235f" x="518.625" y="579.130958" style="fill: #feffb3; stroke: #feffb3"/>
     <use xlink:href="#m810a15235f" x="536.0625" y="578.875525" style="fill: #feffb3; stroke: #feffb3"/>
     <use xlink:href="#m810a15235f" x="553.5" y="578.640527" style="fill: #feffb3; stroke: #feffb3"/>
     <use xlink:href="#m810a15235f" x="570.9375" y="578.423606" style="fill: #feffb3; stroke: #feffb3"/>
     <use xlink:href="#m810a15235f" x="588.375" y="578.222753" style="fill: #feffb3; stroke: #feffb3"/>
     <use xlink:href="#m810a15235f" x="605.8125" y="578.036247" style="fill: #feffb3; stroke: #feffb3"/>
     <use xlink:href="#m810a15235f" x="623.25" y="577.862603" style="fill: #feffb3; stroke: #feffb3"/>
     <use xlink:href="#m810a15235f" x="640.6875" y="577.700536" style="fill: #feffb3; stroke: #feffb3"/>
     <use xlink:href="#m810a15235f" x="658.125" y="577.548924" style="fill: #feffb3; stroke: #feffb3"/>
     <use xlink:href="#m810a15235f" x="675.5625" y="577.406789" style="fill: #feffb3; stroke: #feffb3"/>
     <use xlink:href="#m810a15235f" x="693" y="577.273267" style="fill: #feffb3; stroke: #feffb3"/>
     <use xlink:href="#m810a15235f" x="710.4375" y="577.1476" style="fill: #feffb3; stroke: #feffb3"/>
     <use xlink:href="#m810a15235f" x="727.875" y="577.029113" style="fill: #feffb3; stroke: #feffb3"/>
     <use xlink:href="#m810a15235f" x="745.3125" y="576.91721" style="fill: #feffb3; stroke: #feffb3"/>
     <use xlink:href="#m810a15235f" x="762.75" y="576.811355" style="fill: #feffb3; stroke: #feffb3"/>
     <use xlink:href="#m810a15235f" x="780.1875" y="576.711071" style="fill: #feffb3; stroke: #feffb3"/>
     <use xlink:href="#m810a15235f" x="797.625" y="576.61593" style="fill: #feffb3; stroke: #feffb3"/>
     <use xlink:href="#m810a15235f" x="815.0625" y="576.525547" style="fill: #feffb3; stroke: #feffb3"/>
     <use xlink:href="#m810a15235f" x="832.5" y="576.439572" style="fill: #feffb3; stroke: #feffb3"/>
     <use xlink:href="#m810a15235f" x="849.9375" y="576.357691" style="fill: #feffb3; stroke: #feffb3"/>
     <use xlink:href="#m810a15235f" x="867.375" y="576.279619" style="fill: #feffb3; stroke: #feffb3"/>
     <use xlink:href="#m810a15235f" x="884.8125" y="576.205095" style="fill: #feffb3; stroke: #feffb3"/>
     <use xlink:href="#m810a15235f" x="902.25" y="576.133883" style="fill: #feffb3; stroke: #feffb3"/>
     <use xlink:href="#m810a15235f" x="919.6875" y="576.065768" style="fill: #feffb3; stroke: #feffb3"/>
     <use xlink:href="#m810a15235f" x="937.125" y="576.000551" style="fill: #feffb3; stroke: #feffb3"/>
     <use xlink:href="#m810a15235f" x="954.5625" y="575.938052" style="fill: #feffb3; stroke: #feffb3"/>
     <use xlink:href="#m810a15235f" x="972" y="575.878103" style="fill: #feffb3; stroke: #feffb3"/>
    </g>
   </g>
   <g id="line2d_33">
    <path d="M 135 554.570916 
L 152.4375 549.396159 
L 169.875 547.671241 
L 187.3125 546.808781 
L 204.75 546.291306 
L 222.1875 545.946322 
L 239.625 545.699905 
L 257.0625 545.515092 
L 274.5 545.371349 
L 291.9375 545.256354 
L 309.375 545.162268 
L 326.8125 545.083862 
L 344.25 545.017519 
L 361.6875 544.960654 
L 379.125 544.911371 
L 396.5625 544.868248 
L 414 544.830198 
L 431.4375 544.796376 
L 448.875 544.766114 
L 466.3125 544.738879 
L 483.75 544.714237 
L 501.1875 544.691835 
L 518.625 544.671382 
L 536.0625 544.652633 
L 553.5 544.635384 
L 570.9375 544.619461 
L 588.375 544.604718 
L 605.8125 544.591029 
L 623.25 544.578283 
L 640.6875 544.566387 
L 658.125 544.555258 
L 675.5625 544.544825 
L 693 544.535025 
L 710.4375 544.5258 
L 727.875 544.517103 
L 745.3125 544.50889 
L 762.75 544.50112 
L 780.1875 544.493759 
L 797.625 544.486775 
L 815.0625 544.480141 
L 832.5 544.47383 
L 849.9375 544.46782 
L 867.375 544.462089 
L 884.8125 544.456619 
L 902.25 544.451392 
L 919.6875 544.446392 
L 937.125 544.441605 
L 954.5625 544.437018 
L 972 544.432618 
" clip-path="url(#pe118c6e74a)" style="fill: none; stroke: #bfbbd9; stroke-width: 1.5; stroke-linecap: square"/>
    <defs>
     <path id="m6b419c5527" d="M 0 3 
C 0.795609 3 1.55874 2.683901 2.12132 2.12132 
C 2.683901 1.55874 3 0.795609 3 0 
C 3 -0.795609 2.683901 -1.55874 2.12132 -2.12132 
C 1.55874 -2.683901 0.795609 -3 0 -3 
C -0.795609 -3 -1.55874 -2.683901 -2.12132 -2.12132 
C -2.683901 -1.55874 -3 -0.795609 -3 0 
C -3 0.795609 -2.683901 1.55874 -2.12132 2.12132 
C -1.55874 2.683901 -0.795609 3 0 3 
z
" style="stroke: #bfbbd9"/>
    </defs>
    <g clip-path="url(#pe118c6e74a)">
     <use xlink:href="#m6b419c5527" x="135" y="554.570916" style="fill: #bfbbd9; stroke: #bfbbd9"/>
     <use xlink:href="#m6b419c5527" x="152.4375" y="549.396159" style="fill: #bfbbd9; stroke: #bfbbd9"/>
     <use xlink:href="#m6b419c5527" x="169.875" y="547.671241" style="fill: #bfbbd9; stroke: #bfbbd9"/>
     <use xlink:href="#m6b419c5527" x="187.3125" y="546.808781" style="fill: #bfbbd9; stroke: #bfbbd9"/>
     <use xlink:href="#m6b419c5527" x="204.75" y="546.291306" style="fill: #bfbbd9; stroke: #bfbbd9"/>
     <use xlink:href="#m6b419c5527" x="222.1875" y="545.946322" style="fill: #bfbbd9; stroke: #bfbbd9"/>
     <use xlink:href="#m6b419c5527" x="239.625" y="545.699905" style="fill: #bfbbd9; stroke: #bfbbd9"/>
     <use xlink:href="#m6b419c5527" x="257.0625" y="545.515092" style="fill: #bfbbd9; stroke: #bfbbd9"/>
     <use xlink:href="#m6b419c5527" x="274.5" y="545.371349" style="fill: #bfbbd9; stroke: #bfbbd9"/>
     <use xlink:href="#m6b419c5527" x="291.9375" y="545.256354" style="fill: #bfbbd9; stroke: #bfbbd9"/>
     <use xlink:href="#m6b419c5527" x="309.375" y="545.162268" style="fill: #bfbbd9; stroke: #bfbbd9"/>
     <use xlink:href="#m6b419c5527" x="326.8125" y="545.083862" style="fill: #bfbbd9; stroke: #bfbbd9"/>
     <use xlink:href="#m6b419c5527" x="344.25" y="545.017519" style="fill: #bfbbd9; stroke: #bfbbd9"/>
     <use xlink:href="#m6b419c5527" x="361.6875" y="544.960654" style="fill: #bfbbd9; stroke: #bfbbd9"/>
     <use xlink:href="#m6b419c5527" x="379.125" y="544.911371" style="fill: #bfbbd9; stroke: #bfbbd9"/>
     <use xlink:href="#m6b419c5527" x="396.5625" y="544.868248" style="fill: #bfbbd9; stroke: #bfbbd9"/>
     <use xlink:href="#m6b419c5527" x="414" y="544.830198" style="fill: #bfbbd9; stroke: #bfbbd9"/>
     <use xlink:href="#m6b419c5527" x="431.4375" y="544.796376" style="fill: #bfbbd9; stroke: #bfbbd9"/>
     <use xlink:href="#m6b419c5527" x="448.875" y="544.766114" style="fill: #bfbbd9; stroke: #bfbbd9"/>
     <use xlink:href="#m6b419c5527" x="466.3125" y="544.738879" style="fill: #bfbbd9; stroke: #bfbbd9"/>
     <use xlink:href="#m6b419c5527" x="483.75" y="544.714237" style="fill: #bfbbd9; stroke: #bfbbd9"/>
     <use xlink:href="#m6b419c5527" x="501.1875" y="544.691835" style="fill: #bfbbd9; stroke: #bfbbd9"/>
     <use xlink:href="#m6b419c5527" x="518.625" y="544.671382" style="fill: #bfbbd9; stroke: #bfbbd9"/>
     <use xlink:href="#m6b419c5527" x="536.0625" y="544.652633" style="fill: #bfbbd9; stroke: #bfbbd9"/>
     <use xlink:href="#m6b419c5527" x="553.5" y="544.635384" style="fill: #bfbbd9; stroke: #bfbbd9"/>
     <use xlink:href="#m6b419c5527" x="570.9375" y="544.619461" style="fill: #bfbbd9; stroke: #bfbbd9"/>
     <use xlink:href="#m6b419c5527" x="588.375" y="544.604718" style="fill: #bfbbd9; stroke: #bfbbd9"/>
     <use xlink:href="#m6b419c5527" x="605.8125" y="544.591029" style="fill: #bfbbd9; stroke: #bfbbd9"/>
     <use xlink:href="#m6b419c5527" x="623.25" y="544.578283" style="fill: #bfbbd9; stroke: #bfbbd9"/>
     <use xlink:href="#m6b419c5527" x="640.6875" y="544.566387" style="fill: #bfbbd9; stroke: #bfbbd9"/>
     <use xlink:href="#m6b419c5527" x="658.125" y="544.555258" style="fill: #bfbbd9; stroke: #bfbbd9"/>
     <use xlink:href="#m6b419c5527" x="675.5625" y="544.544825" style="fill: #bfbbd9; stroke: #bfbbd9"/>
     <use xlink:href="#m6b419c5527" x="693" y="544.535025" style="fill: #bfbbd9; stroke: #bfbbd9"/>
     <use xlink:href="#m6b419c5527" x="710.4375" y="544.5258" style="fill: #bfbbd9; stroke: #bfbbd9"/>
     <use xlink:href="#m6b419c5527" x="727.875" y="544.517103" style="fill: #bfbbd9; stroke: #bfbbd9"/>
     <use xlink:href="#m6b419c5527" x="745.3125" y="544.50889" style="fill: #bfbbd9; stroke: #bfbbd9"/>
     <use xlink:href="#m6b419c5527" x="762.75" y="544.50112" style="fill: #bfbbd9; stroke: #bfbbd9"/>
     <use xlink:href="#m6b419c5527" x="780.1875" y="544.493759" style="fill: #bfbbd9; stroke: #bfbbd9"/>
     <use xlink:href="#m6b419c5527" x="797.625" y="544.486775" style="fill: #bfbbd9; stroke: #bfbbd9"/>
     <use xlink:href="#m6b419c5527" x="815.0625" y="544.480141" style="fill: #bfbbd9; stroke: #bfbbd9"/>
     <use xlink:href="#m6b419c5527" x="832.5" y="544.47383" style="fill: #bfbbd9; stroke: #bfbbd9"/>
     <use xlink:href="#m6b419c5527" x="849.9375" y="544.46782" style="fill: #bfbbd9; stroke: #bfbbd9"/>
     <use xlink:href="#m6b419c5527" x="867.375" y="544.462089" style="fill: #bfbbd9; stroke: #bfbbd9"/>
     <use xlink:href="#m6b419c5527" x="884.8125" y="544.456619" style="fill: #bfbbd9; stroke: #bfbbd9"/>
     <use xlink:href="#m6b419c5527" x="902.25" y="544.451392" style="fill: #bfbbd9; stroke: #bfbbd9"/>
     <use xlink:href="#m6b419c5527" x="919.6875" y="544.446392" style="fill: #bfbbd9; stroke: #bfbbd9"/>
     <use xlink:href="#m6b419c5527" x="937.125" y="544.441605" style="fill: #bfbbd9; stroke: #bfbbd9"/>
     <use xlink:href="#m6b419c5527" x="954.5625" y="544.437018" style="fill: #bfbbd9; stroke: #bfbbd9"/>
     <use xlink:href="#m6b419c5527" x="972" y="544.432618" style="fill: #bfbbd9; stroke: #bfbbd9"/>
    </g>
   </g>
   <g id="line2d_34">
    <path d="M 135 336.022406 
L 152.4375 484.437518 
L 169.875 533.909223 
L 187.3125 558.645075 
L 204.75 573.486586 
L 222.1875 583.380927 
L 239.625 590.448313 
L 257.0625 595.748853 
L 274.5 599.871495 
L 291.9375 603.169609 
L 309.375 605.868065 
L 326.8125 608.116779 
L 344.25 610.019537 
L 361.6875 611.650472 
L 379.125 613.063949 
L 396.5625 614.300742 
L 414 615.39203 
L 431.4375 616.362063 
L 448.875 617.229988 
L 466.3125 618.01112 
L 483.75 618.717859 
L 501.1875 619.360348 
L 518.625 619.946969 
L 536.0625 620.484705 
L 553.5 620.979422 
L 570.9375 621.436084 
L 588.375 621.858919 
L 605.8125 622.251552 
L 623.25 622.617106 
L 640.6875 622.95829 
L 658.125 623.277463 
L 675.5625 623.576687 
L 693 623.857776 
L 710.4375 624.12233 
L 727.875 624.371768 
L 745.3125 624.607347 
L 762.75 624.830193 
L 780.1875 625.041309 
L 797.625 625.2416 
L 815.0625 625.431876 
L 832.5 625.61287 
L 849.9375 625.785245 
L 867.375 625.949603 
L 884.8125 626.10649 
L 902.25 626.256404 
L 919.6875 626.3998 
L 937.125 626.537094 
L 954.5625 626.668668 
L 972 626.794871 
" clip-path="url(#pe118c6e74a)" style="fill: none; stroke: #fa8174; stroke-width: 1.5; stroke-linecap: square"/>
    <defs>
     <path id="m8e20de1593" d="M 0 3 
C 0.795609 3 1.55874 2.683901 2.12132 2.12132 
C 2.683901 1.55874 3 0.795609 3 0 
C 3 -0.795609 2.683901 -1.55874 2.12132 -2.12132 
C 1.55874 -2.683901 0.795609 -3 0 -3 
C -0.795609 -3 -1.55874 -2.683901 -2.12132 -2.12132 
C -2.683901 -1.55874 -3 -0.795609 -3 0 
C -3 0.795609 -2.683901 1.55874 -2.12132 2.12132 
C -1.55874 2.683901 -0.795609 3 0 3 
z
" style="stroke: #fa8174"/>
    </defs>
    <g clip-path="url(#pe118c6e74a)">
     <use xlink:href="#m8e20de1593" x="135" y="336.022406" style="fill: #fa8174; stroke: #fa8174"/>
     <use xlink:href="#m8e20de1593" x="152.4375" y="484.437518" style="fill: #fa8174; stroke: #fa8174"/>
     <use xlink:href="#m8e20de1593" x="169.875" y="533.909223" style="fill: #fa8174; stroke: #fa8174"/>
     <use xlink:href="#m8e20de1593" x="187.3125" y="558.645075" style="fill: #fa8174; stroke: #fa8174"/>
     <use xlink:href="#m8e20de1593" x="204.75" y="573.486586" style="fill: #fa8174; stroke: #fa8174"/>
     <use xlink:href="#m8e20de1593" x="222.1875" y="583.380927" style="fill: #fa8174; stroke: #fa8174"/>
     <use xlink:href="#m8e20de1593" x="239.625" y="590.448313" style="fill: #fa8174; stroke: #fa8174"/>
     <use xlink:href="#m8e20de1593" x="257.0625" y="595.748853" style="fill: #fa8174; stroke: #fa8174"/>
     <use xlink:href="#m8e20de1593" x="274.5" y="599.871495" style="fill: #fa8174; stroke: #fa8174"/>
     <use xlink:href="#m8e20de1593" x="291.9375" y="603.169609" style="fill: #fa8174; stroke: #fa8174"/>
     <use xlink:href="#m8e20de1593" x="309.375" y="605.868065" style="fill: #fa8174; stroke: #fa8174"/>
     <use xlink:href="#m8e20de1593" x="326.8125" y="608.116779" style="fill: #fa8174; stroke: #fa8174"/>
     <use xlink:href="#m8e20de1593" x="344.25" y="610.019537" style="fill: #fa8174; stroke: #fa8174"/>
     <use xlink:href="#m8e20de1593" x="361.6875" y="611.650472" style="fill: #fa8174; stroke: #fa8174"/>
     <use xlink:href="#m8e20de1593" x="379.125" y="613.063949" style="fill: #fa8174; stroke: #fa8174"/>
     <use xlink:href="#m8e20de1593" x="396.5625" y="614.300742" style="fill: #fa8174; stroke: #fa8174"/>
     <use xlink:href="#m8e20de1593" x="414" y="615.39203" style="fill: #fa8174; stroke: #fa8174"/>
     <use xlink:href="#m8e20de1593" x="431.4375" y="616.362063" style="fill: #fa8174; stroke: #fa8174"/>
     <use xlink:href="#m8e20de1593" x="448.875" y="617.229988" style="fill: #fa8174; stroke: #fa8174"/>
     <use xlink:href="#m8e20de1593" x="466.3125" y="618.01112" style="fill: #fa8174; stroke: #fa8174"/>
     <use xlink:href="#m8e20de1593" x="483.75" y="618.717859" style="fill: #fa8174; stroke: #fa8174"/>
     <use xlink:href="#m8e20de1593" x="501.1875" y="619.360348" style="fill: #fa8174; stroke: #fa8174"/>
     <use xlink:href="#m8e20de1593" x="518.625" y="619.946969" style="fill: #fa8174; stroke: #fa8174"/>
     <use xlink:href="#m8e20de1593" x="536.0625" y="620.484705" style="fill: #fa8174; stroke: #fa8174"/>
     <use xlink:href="#m8e20de1593" x="553.5" y="620.979422" style="fill: #fa8174; stroke: #fa8174"/>
     <use xlink:href="#m8e20de1593" x="570.9375" y="621.436084" style="fill: #fa8174; stroke: #fa8174"/>
     <use xlink:href="#m8e20de1593" x="588.375" y="621.858919" style="fill: #fa8174; stroke: #fa8174"/>
     <use xlink:href="#m8e20de1593" x="605.8125" y="622.251552" style="fill: #fa8174; stroke: #fa8174"/>
     <use xlink:href="#m8e20de1593" x="623.25" y="622.617106" style="fill: #fa8174; stroke: #fa8174"/>
     <use xlink:href="#m8e20de1593" x="640.6875" y="622.95829" style="fill: #fa8174; stroke: #fa8174"/>
     <use xlink:href="#m8e20de1593" x="658.125" y="623.277463" style="fill: #fa8174; stroke: #fa8174"/>
     <use xlink:href="#m8e20de1593" x="675.5625" y="623.576687" style="fill: #fa8174; stroke: #fa8174"/>
     <use xlink:href="#m8e20de1593" x="693" y="623.857776" style="fill: #fa8174; stroke: #fa8174"/>
     <use xlink:href="#m8e20de1593" x="710.4375" y="624.12233" style="fill: #fa8174; stroke: #fa8174"/>
     <use xlink:href="#m8e20de1593" x="727.875" y="624.371768" style="fill: #fa8174; stroke: #fa8174"/>
     <use xlink:href="#m8e20de1593" x="745.3125" y="624.607347" style="fill: #fa8174; stroke: #fa8174"/>
     <use xlink:href="#m8e20de1593" x="762.75" y="624.830193" style="fill: #fa8174; stroke: #fa8174"/>
     <use xlink:href="#m8e20de1593" x="780.1875" y="625.041309" style="fill: #fa8174; stroke: #fa8174"/>
     <use xlink:href="#m8e20de1593" x="797.625" y="625.2416" style="fill: #fa8174; stroke: #fa8174"/>
     <use xlink:href="#m8e20de1593" x="815.0625" y="625.431876" style="fill: #fa8174; stroke: #fa8174"/>
     <use xlink:href="#m8e20de1593" x="832.5" y="625.61287" style="fill: #fa8174; stroke: #fa8174"/>
     <use xlink:href="#m8e20de1593" x="849.9375" y="625.785245" style="fill: #fa8174; stroke: #fa8174"/>
     <use xlink:href="#m8e20de1593" x="867.375" y="625.949603" style="fill: #fa8174; stroke: #fa8174"/>
     <use xlink:href="#m8e20de1593" x="884.8125" y="626.10649" style="fill: #fa8174; stroke: #fa8174"/>
     <use xlink:href="#m8e20de1593" x="902.25" y="626.256404" style="fill: #fa8174; stroke: #fa8174"/>
     <use xlink:href="#m8e20de1593" x="919.6875" y="626.3998" style="fill: #fa8174; stroke: #fa8174"/>
     <use xlink:href="#m8e20de1593" x="937.125" y="626.537094" style="fill: #fa8174; stroke: #fa8174"/>
     <use xlink:href="#m8e20de1593" x="954.5625" y="626.668668" style="fill: #fa8174; stroke: #fa8174"/>
     <use xlink:href="#m8e20de1593" x="972" y="626.794871" style="fill: #fa8174; stroke: #fa8174"/>
    </g>
   </g>
   <g id="line2d_35">
    <path d="M 135.268082 721 
L 152.4375 486.341218 
L 169.875 406.90031 
L 187.3125 367.179856 
L 204.75 343.347584 
L 222.1875 327.459402 
L 239.625 316.110701 
L 257.0625 307.599175 
L 274.5 300.979099 
L 291.9375 295.683039 
L 309.375 291.349898 
L 326.8125 287.738948 
L 344.25 284.683528 
L 361.6875 282.064597 
L 379.125 279.794857 
L 396.5625 277.808834 
L 414 276.056461 
L 431.4375 274.498796 
L 448.875 273.105096 
L 466.3125 271.850766 
L 483.75 270.715896 
L 501.1875 269.684196 
L 518.625 268.742209 
L 536.0625 267.878721 
L 553.5 267.084312 
L 570.9375 266.351011 
L 588.375 265.672029 
L 605.8125 265.041545 
L 623.25 264.454544 
L 640.6875 263.906675 
L 658.125 263.394153 
L 675.5625 262.913664 
L 693 262.462295 
L 710.4375 262.037477 
L 727.875 261.636935 
L 745.3125 261.258645 
L 762.75 260.900803 
L 780.1875 260.561795 
L 797.625 260.240172 
L 815.0625 259.93463 
L 832.5 259.643992 
L 849.9375 259.367195 
L 867.375 259.103271 
L 884.8125 258.851345 
L 902.25 258.610615 
L 919.6875 258.380351 
L 937.125 258.159886 
L 954.5625 257.948607 
L 972 257.745952 
" clip-path="url(#pe118c6e74a)" style="fill: none; stroke: #81b1d2; stroke-width: 1.5; stroke-linecap: square"/>
    <defs>
     <path id="m03e7d03dce" d="M 0 3 
C 0.795609 3 1.55874 2.683901 2.12132 2.12132 
C 2.683901 1.55874 3 0.795609 3 0 
C 3 -0.795609 2.683901 -1.55874 2.12132 -2.12132 
C 1.55874 -2.683901 0.795609 -3 0 -3 
C -0.795609 -3 -1.55874 -2.683901 -2.12132 -2.12132 
C -2.683901 -1.55874 -3 -0.795609 -3 0 
C -3 0.795609 -2.683901 1.55874 -2.12132 2.12132 
C -1.55874 2.683901 -0.795609 3 0 3 
z
" style="stroke: #81b1d2"/>
    </defs>
    <g clip-path="url(#pe118c6e74a)">
     <use xlink:href="#m03e7d03dce" x="135" y="724.663943" style="fill: #81b1d2; stroke: #81b1d2"/>
     <use xlink:href="#m03e7d03dce" x="152.4375" y="486.341218" style="fill: #81b1d2; stroke: #81b1d2"/>
     <use xlink:href="#m03e7d03dce" x="169.875" y="406.90031" style="fill: #81b1d2; stroke: #81b1d2"/>
     <use xlink:href="#m03e7d03dce" x="187.3125" y="367.179856" style="fill: #81b1d2; stroke: #81b1d2"/>
     <use xlink:href="#m03e7d03dce" x="204.75" y="343.347584" style="fill: #81b1d2; stroke: #81b1d2"/>
     <use xlink:href="#m03e7d03dce" x="222.1875" y="327.459402" style="fill: #81b1d2; stroke: #81b1d2"/>
     <use xlink:href="#m03e7d03dce" x="239.625" y="316.110701" style="fill: #81b1d2; stroke: #81b1d2"/>
     <use xlink:href="#m03e7d03dce" x="257.0625" y="307.599175" style="fill: #81b1d2; stroke: #81b1d2"/>
     <use xlink:href="#m03e7d03dce" x="274.5" y="300.979099" style="fill: #81b1d2; stroke: #81b1d2"/>
     <use xlink:href="#m03e7d03dce" x="291.9375" y="295.683039" style="fill: #81b1d2; stroke: #81b1d2"/>
     <use xlink:href="#m03e7d03dce" x="309.375" y="291.349898" style="fill: #81b1d2; stroke: #81b1d2"/>
     <use xlink:href="#m03e7d03dce" x="326.8125" y="287.738948" style="fill: #81b1d2; stroke: #81b1d2"/>
     <use xlink:href="#m03e7d03dce" x="344.25" y="284.683528" style="fill: #81b1d2; stroke: #81b1d2"/>
     <use xlink:href="#m03e7d03dce" x="361.6875" y="282.064597" style="fill: #81b1d2; stroke: #81b1d2"/>
     <use xlink:href="#m03e7d03dce" x="379.125" y="279.794857" style="fill: #81b1d2; stroke: #81b1d2"/>
     <use xlink:href="#m03e7d03dce" x="396.5625" y="277.808834" style="fill: #81b1d2; stroke: #81b1d2"/>
     <use xlink:href="#m03e7d03dce" x="414" y="276.056461" style="fill: #81b1d2; stroke: #81b1d2"/>
     <use xlink:href="#m03e7d03dce" x="431.4375" y="274.498796" style="fill: #81b1d2; stroke: #81b1d2"/>
     <use xlink:href="#m03e7d03dce" x="448.875" y="273.105096" style="fill: #81b1d2; stroke: #81b1d2"/>
     <use xlink:href="#m03e7d03dce" x="466.3125" y="271.850766" style="fill: #81b1d2; stroke: #81b1d2"/>
     <use xlink:href="#m03e7d03dce" x="483.75" y="270.715896" style="fill: #81b1d2; stroke: #81b1d2"/>
     <use xlink:href="#m03e7d03dce" x="501.1875" y="269.684196" style="fill: #81b1d2; stroke: #81b1d2"/>
     <use xlink:href="#m03e7d03dce" x="518.625" y="268.742209" style="fill: #81b1d2; stroke: #81b1d2"/>
     <use xlink:href="#m03e7d03dce" x="536.0625" y="267.878721" style="fill: #81b1d2; stroke: #81b1d2"/>
     <use xlink:href="#m03e7d03dce" x="553.5" y="267.084312" style="fill: #81b1d2; stroke: #81b1d2"/>
     <use xlink:href="#m03e7d03dce" x="570.9375" y="266.351011" style="fill: #81b1d2; stroke: #81b1d2"/>
     <use xlink:href="#m03e7d03dce" x="588.375" y="265.672029" style="fill: #81b1d2; stroke: #81b1d2"/>
     <use xlink:href="#m03e7d03dce" x="605.8125" y="265.041545" style="fill: #81b1d2; stroke: #81b1d2"/>
     <use xlink:href="#m03e7d03dce" x="623.25" y="264.454544" style="fill: #81b1d2; stroke: #81b1d2"/>
     <use xlink:href="#m03e7d03dce" x="640.6875" y="263.906675" style="fill: #81b1d2; stroke: #81b1d2"/>
     <use xlink:href="#m03e7d03dce" x="658.125" y="263.394153" style="fill: #81b1d2; stroke: #81b1d2"/>
     <use xlink:href="#m03e7d03dce" x="675.5625" y="262.913664" style="fill: #81b1d2; stroke: #81b1d2"/>
     <use xlink:href="#m03e7d03dce" x="693" y="262.462295" style="fill: #81b1d2; stroke: #81b1d2"/>
     <use xlink:href="#m03e7d03dce" x="710.4375" y="262.037477" style="fill: #81b1d2; stroke: #81b1d2"/>
     <use xlink:href="#m03e7d03dce" x="727.875" y="261.636935" style="fill: #81b1d2; stroke: #81b1d2"/>
     <use xlink:href="#m03e7d03dce" x="745.3125" y="261.258645" style="fill: #81b1d2; stroke: #81b1d2"/>
     <use xlink:href="#m03e7d03dce" x="762.75" y="260.900803" style="fill: #81b1d2; stroke: #81b1d2"/>
     <use xlink:href="#m03e7d03dce" x="780.1875" y="260.561795" style="fill: #81b1d2; stroke: #81b1d2"/>
     <use xlink:href="#m03e7d03dce" x="797.625" y="260.240172" style="fill: #81b1d2; stroke: #81b1d2"/>
     <use xlink:href="#m03e7d03dce" x="815.0625" y="259.93463" style="fill: #81b1d2; stroke: #81b1d2"/>
     <use xlink:href="#m03e7d03dce" x="832.5" y="259.643992" style="fill: #81b1d2; stroke: #81b1d2"/>
     <use xlink:href="#m03e7d03dce" x="849.9375" y="259.367195" style="fill: #81b1d2; stroke: #81b1d2"/>
     <use xlink:href="#m03e7d03dce" x="867.375" y="259.103271" style="fill: #81b1d2; stroke: #81b1d2"/>
     <use xlink:href="#m03e7d03dce" x="884.8125" y="258.851345" style="fill: #81b1d2; stroke: #81b1d2"/>
     <use xlink:href="#m03e7d03dce" x="902.25" y="258.610615" style="fill: #81b1d2; stroke: #81b1d2"/>
     <use xlink:href="#m03e7d03dce" x="919.6875" y="258.380351" style="fill: #81b1d2; stroke: #81b1d2"/>
     <use xlink:href="#m03e7d03dce" x="937.125" y="258.159886" style="fill: #81b1d2; stroke: #81b1d2"/>
     <use xlink:href="#m03e7d03dce" x="954.5625" y="257.948607" style="fill: #81b1d2; stroke: #81b1d2"/>
     <use xlink:href="#m03e7d03dce" x="972" y="257.745952" style="fill: #81b1d2; stroke: #81b1d2"/>
    </g>
   </g>
   <g id="patch_3">
    <path d="M 135 640.8 
L 135 86.4 
" style="fill: none; stroke: #ffffff; stroke-width: 0.8; stroke-linejoin: miter; stroke-linecap: square"/>
   </g>
   <g id="patch_4">
    <path d="M 972 640.8 
L 972 86.4 
" style="fill: none; stroke: #ffffff; stroke-width: 0.8; stroke-linejoin: miter; stroke-linecap: square"/>
   </g>
   <g id="patch_5">
    <path d="M 135 640.8 
L 972 640.8 
" style="fill: none; stroke: #ffffff; stroke-width: 0.8; stroke-linejoin: miter; stroke-linecap: square"/>
   </g>
   <g id="patch_6">
    <path d="M 135 86.4 
L 972 86.4 
" style="fill: none; stroke: #ffffff; stroke-width: 0.8; stroke-linejoin: miter; stroke-linecap: square"/>
   </g>
   <g id="legend_1">
    <g id="patch_7">
     <path d="M 899.63125 167.790625 
L 965 167.790625 
Q 967 167.790625 967 165.790625 
L 967 93.4 
Q 967 91.4 965 91.4 
L 899.63125 91.4 
Q 897.63125 91.4 897.63125 93.4 
L 897.63125 165.790625 
Q 897.63125 167.790625 899.63125 167.790625 
z
" style="opacity: 0.8; stroke: #cccccc; stroke-linejoin: miter"/>
    </g>
    <g id="line2d_36">
     <path d="M 901.63125 99.498437 
L 911.63125 99.498437 
L 921.63125 99.498437 
" style="fill: none; stroke: #8dd3c7; stroke-width: 1.5; stroke-linecap: square"/>
     <g>
      <use xlink:href="#mead36774b0" x="911.63125" y="99.498437" style="fill: #8dd3c7; stroke: #8dd3c7"/>
     </g>
    </g>
    <g id="text_18">
     <!-- DAX -->
     <g style="fill: #ffffff" transform="translate(929.63125 102.998437)scale(0.1 -0.1)">
      <defs>
       <path id="DejaVuSans-44" d="M 1259 4147 
L 1259 519 
L 2022 519 
Q 2988 519 3436 956 
Q 3884 1394 3884 2338 
Q 3884 3275 3436 3711 
Q 2988 4147 2022 4147 
L 1259 4147 
z
M 628 4666 
L 1925 4666 
Q 3281 4666 3915 4102 
Q 4550 3538 4550 2338 
Q 4550 1131 3912 565 
Q 3275 0 1925 0 
L 628 0 
L 628 4666 
z
" transform="scale(0.015625)"/>
       <path id="DejaVuSans-41" d="M 2188 4044 
L 1331 1722 
L 3047 1722 
L 2188 4044 
z
M 1831 4666 
L 2547 4666 
L 4325 0 
L 3669 0 
L 3244 1197 
L 1141 1197 
L 716 0 
L 50 0 
L 1831 4666 
z
" transform="scale(0.015625)"/>
       <path id="DejaVuSans-58" d="M 403 4666 
L 1081 4666 
L 2241 2931 
L 3406 4666 
L 4084 4666 
L 2584 2425 
L 4184 0 
L 3506 0 
L 2194 1984 
L 872 0 
L 191 0 
L 1856 2491 
L 403 4666 
z
" transform="scale(0.015625)"/>
      </defs>
      <use xlink:href="#DejaVuSans-44"/>
      <use xlink:href="#DejaVuSans-41" x="75.251953"/>
      <use xlink:href="#DejaVuSans-58" x="143.660156"/>
     </g>
    </g>
    <g id="line2d_37">
     <path d="M 901.63125 114.176562 
L 911.63125 114.176562 
L 921.63125 114.176562 
" style="fill: none; stroke: #feffb3; stroke-width: 1.5; stroke-linecap: square"/>
     <g>
      <use xlink:href="#m810a15235f" x="911.63125" y="114.176562" style="fill: #feffb3; stroke: #feffb3"/>
     </g>
    </g>
    <g id="text_19">
     <!-- RWE -->
     <g style="fill: #ffffff" transform="translate(929.63125 117.676562)scale(0.1 -0.1)">
      <defs>
       <path id="DejaVuSans-52" d="M 2841 2188 
Q 3044 2119 3236 1894 
Q 3428 1669 3622 1275 
L 4263 0 
L 3584 0 
L 2988 1197 
Q 2756 1666 2539 1819 
Q 2322 1972 1947 1972 
L 1259 1972 
L 1259 0 
L 628 0 
L 628 4666 
L 2053 4666 
Q 2853 4666 3247 4331 
Q 3641 3997 3641 3322 
Q 3641 2881 3436 2590 
Q 3231 2300 2841 2188 
z
M 1259 4147 
L 1259 2491 
L 2053 2491 
Q 2509 2491 2742 2702 
Q 2975 2913 2975 3322 
Q 2975 3731 2742 3939 
Q 2509 4147 2053 4147 
L 1259 4147 
z
" transform="scale(0.015625)"/>
       <path id="DejaVuSans-57" d="M 213 4666 
L 850 4666 
L 1831 722 
L 2809 4666 
L 3519 4666 
L 4500 722 
L 5478 4666 
L 6119 4666 
L 4947 0 
L 4153 0 
L 3169 4050 
L 2175 0 
L 1381 0 
L 213 4666 
z
" transform="scale(0.015625)"/>
       <path id="DejaVuSans-45" d="M 628 4666 
L 3578 4666 
L 3578 4134 
L 1259 4134 
L 1259 2753 
L 3481 2753 
L 3481 2222 
L 1259 2222 
L 1259 531 
L 3634 531 
L 3634 0 
L 628 0 
L 628 4666 
z
" transform="scale(0.015625)"/>
      </defs>
      <use xlink:href="#DejaVuSans-52"/>
      <use xlink:href="#DejaVuSans-57" x="65.482422"/>
      <use xlink:href="#DejaVuSans-45" x="164.359375"/>
     </g>
    </g>
    <g id="line2d_38">
     <path d="M 901.63125 128.854687 
L 911.63125 128.854687 
L 921.63125 128.854687 
" style="fill: none; stroke: #bfbbd9; stroke-width: 1.5; stroke-linecap: square"/>
     <g>
      <use xlink:href="#m6b419c5527" x="911.63125" y="128.854687" style="fill: #bfbbd9; stroke: #bfbbd9"/>
     </g>
    </g>
    <g id="text_20">
     <!-- gold -->
     <g style="fill: #ffffff" transform="translate(929.63125 132.354687)scale(0.1 -0.1)">
      <defs>
       <path id="DejaVuSans-67" d="M 2906 1791 
Q 2906 2416 2648 2759 
Q 2391 3103 1925 3103 
Q 1463 3103 1205 2759 
Q 947 2416 947 1791 
Q 947 1169 1205 825 
Q 1463 481 1925 481 
Q 2391 481 2648 825 
Q 2906 1169 2906 1791 
z
M 3481 434 
Q 3481 -459 3084 -895 
Q 2688 -1331 1869 -1331 
Q 1566 -1331 1297 -1286 
Q 1028 -1241 775 -1147 
L 775 -588 
Q 1028 -725 1275 -790 
Q 1522 -856 1778 -856 
Q 2344 -856 2625 -561 
Q 2906 -266 2906 331 
L 2906 616 
Q 2728 306 2450 153 
Q 2172 0 1784 0 
Q 1141 0 747 490 
Q 353 981 353 1791 
Q 353 2603 747 3093 
Q 1141 3584 1784 3584 
Q 2172 3584 2450 3431 
Q 2728 3278 2906 2969 
L 2906 3500 
L 3481 3500 
L 3481 434 
z
" transform="scale(0.015625)"/>
       <path id="DejaVuSans-64" d="M 2906 2969 
L 2906 4863 
L 3481 4863 
L 3481 0 
L 2906 0 
L 2906 525 
Q 2725 213 2448 61 
Q 2172 -91 1784 -91 
Q 1150 -91 751 415 
Q 353 922 353 1747 
Q 353 2572 751 3078 
Q 1150 3584 1784 3584 
Q 2172 3584 2448 3432 
Q 2725 3281 2906 2969 
z
M 947 1747 
Q 947 1113 1208 752 
Q 1469 391 1925 391 
Q 2381 391 2643 752 
Q 2906 1113 2906 1747 
Q 2906 2381 2643 2742 
Q 2381 3103 1925 3103 
Q 1469 3103 1208 2742 
Q 947 2381 947 1747 
z
" transform="scale(0.015625)"/>
      </defs>
      <use xlink:href="#DejaVuSans-67"/>
      <use xlink:href="#DejaVuSans-6f" x="63.476562"/>
      <use xlink:href="#DejaVuSans-6c" x="124.658203"/>
      <use xlink:href="#DejaVuSans-64" x="152.441406"/>
     </g>
    </g>
    <g id="line2d_39">
     <path d="M 901.63125 143.532812 
L 911.63125 143.532812 
L 921.63125 143.532812 
" style="fill: none; stroke: #fa8174; stroke-width: 1.5; stroke-linecap: square"/>
     <g>
      <use xlink:href="#m8e20de1593" x="911.63125" y="143.532812" style="fill: #fa8174; stroke: #fa8174"/>
     </g>
    </g>
    <g id="text_21">
     <!-- oil -->
     <g style="fill: #ffffff" transform="translate(929.63125 147.032812)scale(0.1 -0.1)">
      <use xlink:href="#DejaVuSans-6f"/>
      <use xlink:href="#DejaVuSans-69" x="61.181641"/>
      <use xlink:href="#DejaVuSans-6c" x="88.964844"/>
     </g>
    </g>
    <g id="line2d_40">
     <path d="M 901.63125 158.210937 
L 911.63125 158.210937 
L 921.63125 158.210937 
" style="fill: none; stroke: #81b1d2; stroke-width: 1.5; stroke-linecap: square"/>
     <g>
      <use xlink:href="#m03e7d03dce" x="911.63125" y="158.210937" style="fill: #81b1d2; stroke: #81b1d2"/>
     </g>
    </g>
    <g id="text_22">
     <!-- US-$/ -->
     <g style="fill: #ffffff" transform="translate(929.63125 161.710937)scale(0.1 -0.1)">
      <defs>
       <path id="DejaVuSans-55" d="M 556 4666 
L 1191 4666 
L 1191 1831 
Q 1191 1081 1462 751 
Q 1734 422 2344 422 
Q 2950 422 3222 751 
Q 3494 1081 3494 1831 
L 3494 4666 
L 4128 4666 
L 4128 1753 
Q 4128 841 3676 375 
Q 3225 -91 2344 -91 
Q 1459 -91 1007 375 
Q 556 841 556 1753 
L 556 4666 
z
" transform="scale(0.015625)"/>
       <path id="DejaVuSans-53" d="M 3425 4513 
L 3425 3897 
Q 3066 4069 2747 4153 
Q 2428 4238 2131 4238 
Q 1616 4238 1336 4038 
Q 1056 3838 1056 3469 
Q 1056 3159 1242 3001 
Q 1428 2844 1947 2747 
L 2328 2669 
Q 3034 2534 3370 2195 
Q 3706 1856 3706 1288 
Q 3706 609 3251 259 
Q 2797 -91 1919 -91 
Q 1588 -91 1214 -16 
Q 841 59 441 206 
L 441 856 
Q 825 641 1194 531 
Q 1563 422 1919 422 
Q 2459 422 2753 634 
Q 3047 847 3047 1241 
Q 3047 1584 2836 1778 
Q 2625 1972 2144 2069 
L 1759 2144 
Q 1053 2284 737 2584 
Q 422 2884 422 3419 
Q 422 4038 858 4394 
Q 1294 4750 2059 4750 
Q 2388 4750 2728 4690 
Q 3069 4631 3425 4513 
z
" transform="scale(0.015625)"/>
       <path id="DejaVuSans-2d" d="M 313 2009 
L 1997 2009 
L 1997 1497 
L 313 1497 
L 313 2009 
z
" transform="scale(0.015625)"/>
       <path id="DejaVuSans-24" d="M 2163 -941 
L 1850 -941 
L 1847 0 
Q 1519 6 1191 76 
Q 863 147 531 288 
L 531 850 
Q 850 650 1176 548 
Q 1503 447 1850 444 
L 1850 1869 
Q 1159 1981 845 2250 
Q 531 2519 531 2988 
Q 531 3497 872 3790 
Q 1213 4084 1850 4128 
L 1850 4863 
L 2163 4863 
L 2163 4138 
Q 2453 4125 2725 4076 
Q 2997 4028 3256 3944 
L 3256 3397 
Q 2997 3528 2723 3600 
Q 2450 3672 2163 3684 
L 2163 2350 
Q 2872 2241 3206 1959 
Q 3541 1678 3541 1191 
Q 3541 663 3186 358 
Q 2831 53 2163 6 
L 2163 -941 
z
M 1850 2406 
L 1850 3688 
Q 1488 3647 1297 3481 
Q 1106 3316 1106 3041 
Q 1106 2772 1282 2622 
Q 1459 2472 1850 2406 
z
M 2163 1806 
L 2163 453 
Q 2559 506 2761 678 
Q 2963 850 2963 1131 
Q 2963 1406 2770 1568 
Q 2578 1731 2163 1806 
z
" transform="scale(0.015625)"/>
       <path id="DejaVuSans-2f" d="M 1625 4666 
L 2156 4666 
L 531 -594 
L 0 -594 
L 1625 4666 
z
" transform="scale(0.015625)"/>
       <path id="DejaVuSans-20ac" d="M 3647 4306 
L 3647 3641 
Q 3363 3969 3098 4109 
Q 2834 4250 2516 4250 
Q 2025 4250 1709 3937 
Q 1394 3625 1294 3041 
L 3097 3041 
L 2925 2656 
L 1244 2656 
Q 1238 2581 1236 2509 
Q 1234 2438 1234 2328 
Q 1234 2228 1236 2156 
Q 1238 2084 1244 2009 
L 2638 2009 
L 2463 1625 
L 1294 1625 
Q 1394 1041 1709 725 
Q 2025 409 2516 409 
Q 2834 409 3098 550 
Q 3363 691 3647 1019 
L 3647 359 
Q 3369 134 3080 21 
Q 2791 -91 2491 -91 
Q 1750 -91 1267 362 
Q 784 816 659 1625 
L 0 1625 
L 172 2009 
L 606 2009 
Q 606 2081 604 2154 
Q 603 2228 603 2328 
Q 603 2438 604 2511 
Q 606 2584 606 2656 
L 0 2656 
L 172 3041 
L 659 3041 
Q 784 3844 1268 4297 
Q 1753 4750 2491 4750 
Q 2797 4750 3086 4639 
Q 3375 4528 3647 4306 
z
" transform="scale(0.015625)"/>
      </defs>
      <use xlink:href="#DejaVuSans-55"/>
      <use xlink:href="#DejaVuSans-53" x="73.193359"/>
      <use xlink:href="#DejaVuSans-2d" x="136.669922"/>
      <use xlink:href="#DejaVuSans-24" x="172.753906"/>
      <use xlink:href="#DejaVuSans-2f" x="236.376953"/>
      <use xlink:href="#DejaVuSans-20ac" x="270.068359"/>
     </g>
    </g>
   </g>
  </g>
 </g>
 <defs>
  <clipPath id="pe118c6e74a">
   <rect x="135" y="86.4" width="837" height="554.4"/>
  </clipPath>
 </defs>
</svg>
