<?xml version="1.0" encoding="utf-8" standalone="no"?>
<!DOCTYPE svg PUBLIC "-//W3C//DTD SVG 1.1//EN"
  "http://www.w3.org/Graphics/SVG/1.1/DTD/svg11.dtd">
<svg xmlns:xlink="http://www.w3.org/1999/xlink" width="1382.4pt" height="696.24pt" viewBox="0 0 1382.4 696.24" xmlns="http://www.w3.org/2000/svg" version="1.1">
 <metadata>
  <rdf:RDF xmlns:dc="http://purl.org/dc/elements/1.1/" xmlns:cc="http://creativecommons.org/ns#" xmlns:rdf="http://www.w3.org/1999/02/22-rdf-syntax-ns#">
   <cc:Work>
    <dc:type rdf:resource="http://purl.org/dc/dcmitype/StillImage"/>
    <dc:date>2026-04-21T11:23:22.224285</dc:date>
    <dc:format>image/svg+xml</dc:format>
    <dc:creator>
     <cc:Agent>
      <dc:title>Matplotlib v3.5.3, https://matplotlib.org/</dc:title>
     </cc:Agent>
    </dc:creator>
   </cc:Work>
  </rdf:RDF>
 </metadata>
 <defs>
  <style type="text/css">*{stroke-linejoin: round; stroke-linecap: butt}</style>
 </defs>
 <g id="figure_1">
  <g id="patch_1">
   <path d="M 0 696.24 
L 1382.4 696.24 
L 1382.4 0 
L 0 0 
z
" style="fill: #ffffff"/>
  </g>
  <g id="axes_1">
   <g id="patch_2">
    <path d="M 172.8 619.6536 
L 1244.16 619.6536 
L 1244.16 83.5488 
L 172.8 83.5488 
z
" style="fill: #ffffff"/>
   </g>
   <g id="matplotlib.axis_1">
    <g id="xtick_1">
     <g id="line2d_1">
      <path d="M 172.8 619.6536 
L 172.8 83.5488 
" clip-path="url(#p38ab6df9e7)" style="fill: none; stroke: #b0b0b0; stroke-width: 0.25; stroke-linecap: square"/>
     </g>
     <g id="line2d_2">
      <defs>
       <path id="m973995ee98" d="M 0 0 
L 0 3.5 
" style="stroke: #000000; stroke-width: 0.8"/>
      </defs>
      <g>
       <use xlink:href="#m973995ee98" x="172.8" y="619.6536" style="stroke: #000000; stroke-width: 0.8"/>
      </g>
     </g>
     <g id="text_1">
      <!-- 0.0 -->
      <g transform="translate(164.848437 634.252038)scale(0.1 -0.1)">
       <defs>
        <path id="DejaVuSans-30" d="M 2034 4250 
Q 1547 4250 1301 3770 
Q 1056 3291 1056 2328 
Q 1056 1369 1301 889 
Q 1547 409 2034 409 
Q 2525 409 2770 889 
Q 3016 1369 3016 2328 
Q 3016 3291 2770 3770 
Q 2525 4250 2034 4250 
z
M 2034 4750 
Q 2819 4750 3233 4129 
Q 3647 3509 3647 2328 
Q 3647 1150 3233 529 
Q 2819 -91 2034 -91 
Q 1250 -91 836 529 
Q 422 1150 422 2328 
Q 422 3509 836 4129 
Q 1250 4750 2034 4750 
z
" transform="scale(0.015625)"/>
        <path id="DejaVuSans-2e" d="M 684 794 
L 1344 794 
L 1344 0 
L 684 0 
L 684 794 
z
" transform="scale(0.015625)"/>
       </defs>
       <use xlink:href="#DejaVuSans-30"/>
       <use xlink:href="#DejaVuSans-2e" x="63.623047"/>
       <use xlink:href="#DejaVuSans-30" x="95.410156"/>
      </g>
     </g>
    </g>
    <g id="xtick_2">
     <g id="line2d_3">
      <path d="M 387.072 619.6536 
L 387.072 83.5488 
" clip-path="url(#p38ab6df9e7)" style="fill: none; stroke: #b0b0b0; stroke-width: 0.25; stroke-linecap: square"/>
     </g>
     <g id="line2d_4">
      <g>
       <use xlink:href="#m973995ee98" x="387.072" y="619.6536" style="stroke: #000000; stroke-width: 0.8"/>
      </g>
     </g>
     <g id="text_2">
      <!-- 0.2 -->
      <g transform="translate(379.120437 634.252038)scale(0.1 -0.1)">
       <defs>
        <path id="DejaVuSans-32" d="M 1228 531 
L 3431 531 
L 3431 0 
L 469 0 
L 469 531 
Q 828 903 1448 1529 
Q 2069 2156 2228 2338 
Q 2531 2678 2651 2914 
Q 2772 3150 2772 3378 
Q 2772 3750 2511 3984 
Q 2250 4219 1831 4219 
Q 1534 4219 1204 4116 
Q 875 4013 500 3803 
L 500 4441 
Q 881 4594 1212 4672 
Q 1544 4750 1819 4750 
Q 2544 4750 2975 4387 
Q 3406 4025 3406 3419 
Q 3406 3131 3298 2873 
Q 3191 2616 2906 2266 
Q 2828 2175 2409 1742 
Q 1991 1309 1228 531 
z
" transform="scale(0.015625)"/>
       </defs>
       <use xlink:href="#DejaVuSans-30"/>
       <use xlink:href="#DejaVuSans-2e" x="63.623047"/>
       <use xlink:href="#DejaVuSans-32" x="95.410156"/>
      </g>
     </g>
    </g>
    <g id="xtick_3">
     <g id="line2d_5">
      <path d="M 601.344 619.6536 
L 601.344 83.5488 
" clip-path="url(#p38ab6df9e7)" style="fill: none; stroke: #b0b0b0; stroke-width: 0.25; stroke-linecap: square"/>
     </g>
     <g id="line2d_6">
      <g>
       <use xlink:href="#m973995ee98" x="601.344" y="619.6536" style="stroke: #000000; stroke-width: 0.8"/>
      </g>
     </g>
     <g id="text_3">
      <!-- 0.4 -->
      <g transform="translate(593.392437 634.252038)scale(0.1 -0.1)">
       <defs>
        <path id="DejaVuSans-34" d="M 2419 4116 
L 825 1625 
L 2419 1625 
L 2419 4116 
z
M 2253 4666 
L 3047 4666 
L 3047 1625 
L 3713 1625 
L 3713 1100 
L 3047 1100 
L 3047 0 
L 2419 0 
L 2419 1100 
L 313 1100 
L 313 1709 
L 2253 4666 
z
" transform="scale(0.015625)"/>
       </defs>
       <use xlink:href="#DejaVuSans-30"/>
       <use xlink:href="#DejaVuSans-2e" x="63.623047"/>
       <use xlink:href="#DejaVuSans-34" x="95.410156"/>
      </g>
     </g>
    </g>
    <g id="xtick_4">
     <g id="line2d_7">
      <path d="M 815.616 619.6536 
L 815.616 83.5488 
" clip-path="url(#p38ab6df9e7)" style="fill: none; stroke: #b0b0b0; stroke-width: 0.25; stroke-linecap: square"/>
     </g>
     <g id="line2d_8">
      <g>
       <use xlink:href="#m973995ee98" x="815.616" y="619.6536" style="stroke: #000000; stroke-width: 0.8"/>
      </g>
     </g>
     <g id="text_4">
      <!-- 0.6 -->
      <g transform="translate(807.664437 634.252038)scale(0.1 -0.1)">
       <defs>
        <path id="DejaVuSans-36" d="M 2113 2584 
Q 1688 2584 1439 2293 
Q 1191 2003 1191 1497 
Q 1191 994 1439 701 
Q 1688 409 2113 409 
Q 2538 409 2786 701 
Q 3034 994 3034 1497 
Q 3034 2003 2786 2293 
Q 2538 2584 2113 2584 
z
M 3366 4563 
L 3366 3988 
Q 3128 4100 2886 4159 
Q 2644 4219 2406 4219 
Q 1781 4219 1451 3797 
Q 1122 3375 1075 2522 
Q 1259 2794 1537 2939 
Q 1816 3084 2150 3084 
Q 2853 3084 3261 2657 
Q 3669 2231 3669 1497 
Q 3669 778 3244 343 
Q 2819 -91 2113 -91 
Q 1303 -91 875 529 
Q 447 1150 447 2328 
Q 447 3434 972 4092 
Q 1497 4750 2381 4750 
Q 2619 4750 2861 4703 
Q 3103 4656 3366 4563 
z
" transform="scale(0.015625)"/>
       </defs>
       <use xlink:href="#DejaVuSans-30"/>
       <use xlink:href="#DejaVuSans-2e" x="63.623047"/>
       <use xlink:href="#DejaVuSans-36" x="95.410156"/>
      </g>
     </g>
    </g>
    <g id="xtick_5">
     <g id="line2d_9">
      <path d="M 1029.888 619.6536 
L 1029.888 83.5488 
" clip-path="url(#p38ab6df9e7)" style="fill: none; stroke: #b0b0b0; stroke-width: 0.25; stroke-linecap: square"/>
     </g>
     <g id="line2d_10">
      <g>
       <use xlink:href="#m973995ee98" x="1029.888" y="619.6536" style="stroke: #000000; stroke-width: 0.8"/>
      </g>
     </g>
     <g id="text_5">
      <!-- 0.8 -->
      <g transform="translate(1021.936437 634.252038)scale(0.1 -0.1)">
       <defs>
        <path id="DejaVuSans-38" d="M 2034 2216 
Q 1584 2216 1326 1975 
Q 1069 1734 1069 1313 
Q 1069 891 1326 650 
Q 1584 409 2034 409 
Q 2484 409 2743 651 
Q 3003 894 3003 1313 
Q 3003 1734 2745 1975 
Q 2488 2216 2034 2216 
z
M 1403 2484 
Q 997 2584 770 2862 
Q 544 3141 544 3541 
Q 544 4100 942 4425 
Q 1341 4750 2034 4750 
Q 2731 4750 3128 4425 
Q 3525 4100 3525 3541 
Q 3525 3141 3298 2862 
Q 3072 2584 2669 2484 
Q 3125 2378 3379 2068 
Q 3634 1759 3634 1313 
Q 3634 634 3220 271 
Q 2806 -91 2034 -91 
Q 1263 -91 848 271 
Q 434 634 434 1313 
Q 434 1759 690 2068 
Q 947 2378 1403 2484 
z
M 1172 3481 
Q 1172 3119 1398 2916 
Q 1625 2713 2034 2713 
Q 2441 2713 2670 2916 
Q 2900 3119 2900 3481 
Q 2900 3844 2670 4047 
Q 2441 4250 2034 4250 
Q 1625 4250 1398 4047 
Q 1172 3844 1172 3481 
z
" transform="scale(0.015625)"/>
       </defs>
       <use xlink:href="#DejaVuSans-30"/>
       <use xlink:href="#DejaVuSans-2e" x="63.623047"/>
       <use xlink:href="#DejaVuSans-38" x="95.410156"/>
      </g>
     </g>
    </g>
    <g id="xtick_6">
     <g id="line2d_11">
      <path d="M 1244.16 619.6536 
L 1244.16 83.5488 
" clip-path="url(#p38ab6df9e7)" style="fill: none; stroke: #b0b0b0; stroke-width: 0.25; stroke-linecap: square"/>
     </g>
     <g id="line2d_12">
      <g>
       <use xlink:href="#m973995ee98" x="1244.16" y="619.6536" style="stroke: #000000; stroke-width: 0.8"/>
      </g>
     </g>
     <g id="text_6">
      <!-- 1.0 -->
      <g transform="translate(1236.208437 634.252038)scale(0.1 -0.1)">
       <defs>
        <path id="DejaVuSans-31" d="M 794 531 
L 1825 531 
L 1825 4091 
L 703 3866 
L 703 4441 
L 1819 4666 
L 2450 4666 
L 2450 531 
L 3481 531 
L 3481 0 
L 794 0 
L 794 531 
z
" transform="scale(0.015625)"/>
       </defs>
       <use xlink:href="#DejaVuSans-31"/>
       <use xlink:href="#DejaVuSans-2e" x="63.623047"/>
       <use xlink:href="#DejaVuSans-30" x="95.410156"/>
      </g>
     </g>
    </g>
    <g id="text_7">
     <!-- parameter $\mu$ -->
     <g transform="translate(677.28 647.90985)scale(0.1 -0.1)">
      <defs>
       <path id="DejaVuSans-70" d="M 1159 525 
L 1159 -1331 
L 581 -1331 
L 581 3500 
L 1159 3500 
L 1159 2969 
Q 1341 3281 1617 3432 
Q 1894 3584 2278 3584 
Q 2916 3584 3314 3078 
Q 3713 2572 3713 1747 
Q 3713 922 3314 415 
Q 2916 -91 2278 -91 
Q 1894 -91 1617 61 
Q 1341 213 1159 525 
z
M 3116 1747 
Q 3116 2381 2855 2742 
Q 2594 3103 2138 3103 
Q 1681 3103 1420 2742 
Q 1159 2381 1159 1747 
Q 1159 1113 1420 752 
Q 1681 391 2138 391 
Q 2594 391 2855 752 
Q 3116 1113 3116 1747 
z
" transform="scale(0.015625)"/>
       <path id="DejaVuSans-61" d="M 2194 1759 
Q 1497 1759 1228 1600 
Q 959 1441 959 1056 
Q 959 750 1161 570 
Q 1363 391 1709 391 
Q 2188 391 2477 730 
Q 2766 1069 2766 1631 
L 2766 1759 
L 2194 1759 
z
M 3341 1997 
L 3341 0 
L 2766 0 
L 2766 531 
Q 2569 213 2275 61 
Q 1981 -91 1556 -91 
Q 1019 -91 701 211 
Q 384 513 384 1019 
Q 384 1609 779 1909 
Q 1175 2209 1959 2209 
L 2766 2209 
L 2766 2266 
Q 2766 2663 2505 2880 
Q 2244 3097 1772 3097 
Q 1472 3097 1187 3025 
Q 903 2953 641 2809 
L 641 3341 
Q 956 3463 1253 3523 
Q 1550 3584 1831 3584 
Q 2591 3584 2966 3190 
Q 3341 2797 3341 1997 
z
" transform="scale(0.015625)"/>
       <path id="DejaVuSans-72" d="M 2631 2963 
Q 2534 3019 2420 3045 
Q 2306 3072 2169 3072 
Q 1681 3072 1420 2755 
Q 1159 2438 1159 1844 
L 1159 0 
L 581 0 
L 581 3500 
L 1159 3500 
L 1159 2956 
Q 1341 3275 1631 3429 
Q 1922 3584 2338 3584 
Q 2397 3584 2469 3576 
Q 2541 3569 2628 3553 
L 2631 2963 
z
" transform="scale(0.015625)"/>
       <path id="DejaVuSans-6d" d="M 3328 2828 
Q 3544 3216 3844 3400 
Q 4144 3584 4550 3584 
Q 5097 3584 5394 3201 
Q 5691 2819 5691 2113 
L 5691 0 
L 5113 0 
L 5113 2094 
Q 5113 2597 4934 2840 
Q 4756 3084 4391 3084 
Q 3944 3084 3684 2787 
Q 3425 2491 3425 1978 
L 3425 0 
L 2847 0 
L 2847 2094 
Q 2847 2600 2669 2842 
Q 2491 3084 2119 3084 
Q 1678 3084 1418 2786 
Q 1159 2488 1159 1978 
L 1159 0 
L 581 0 
L 581 3500 
L 1159 3500 
L 1159 2956 
Q 1356 3278 1631 3431 
Q 1906 3584 2284 3584 
Q 2666 3584 2933 3390 
Q 3200 3197 3328 2828 
z
" transform="scale(0.015625)"/>
       <path id="DejaVuSans-65" d="M 3597 1894 
L 3597 1613 
L 953 1613 
Q 991 1019 1311 708 
Q 1631 397 2203 397 
Q 2534 397 2845 478 
Q 3156 559 3463 722 
L 3463 178 
Q 3153 47 2828 -22 
Q 2503 -91 2169 -91 
Q 1331 -91 842 396 
Q 353 884 353 1716 
Q 353 2575 817 3079 
Q 1281 3584 2069 3584 
Q 2775 3584 3186 3129 
Q 3597 2675 3597 1894 
z
M 3022 2063 
Q 3016 2534 2758 2815 
Q 2500 3097 2075 3097 
Q 1594 3097 1305 2825 
Q 1016 2553 972 2059 
L 3022 2063 
z
" transform="scale(0.015625)"/>
       <path id="DejaVuSans-74" d="M 1172 4494 
L 1172 3500 
L 2356 3500 
L 2356 3053 
L 1172 3053 
L 1172 1153 
Q 1172 725 1289 603 
Q 1406 481 1766 481 
L 2356 481 
L 2356 0 
L 1766 0 
Q 1100 0 847 248 
Q 594 497 594 1153 
L 594 3053 
L 172 3053 
L 172 3500 
L 594 3500 
L 594 4494 
L 1172 4494 
z
" transform="scale(0.015625)"/>
       <path id="DejaVuSans-20" transform="scale(0.015625)"/>
       <path id="DejaVuSans-Oblique-3bc" d="M -84 -1331 
L 856 3500 
L 1434 3500 
L 1009 1322 
Q 997 1256 987 1175 
Q 978 1094 978 1013 
Q 978 722 1161 565 
Q 1344 409 1684 409 
Q 2147 409 2431 671 
Q 2716 934 2816 1459 
L 3213 3500 
L 3788 3500 
L 3266 809 
Q 3253 750 3248 706 
Q 3244 663 3244 628 
Q 3244 531 3283 486 
Q 3322 441 3406 441 
Q 3438 441 3492 456 
Q 3547 472 3647 513 
L 3559 50 
Q 3422 -19 3297 -55 
Q 3172 -91 3053 -91 
Q 2847 -91 2730 40 
Q 2613 172 2613 403 
Q 2438 153 2195 31 
Q 1953 -91 1625 -91 
Q 1334 -91 1117 43 
Q 900 178 831 397 
L 494 -1331 
L -84 -1331 
z
" transform="scale(0.015625)"/>
      </defs>
      <use xlink:href="#DejaVuSans-70" transform="translate(0 0.78125)"/>
      <use xlink:href="#DejaVuSans-61" transform="translate(63.476562 0.78125)"/>
      <use xlink:href="#DejaVuSans-72" transform="translate(124.755859 0.78125)"/>
      <use xlink:href="#DejaVuSans-61" transform="translate(165.869141 0.78125)"/>
      <use xlink:href="#DejaVuSans-6d" transform="translate(227.148438 0.78125)"/>
      <use xlink:href="#DejaVuSans-65" transform="translate(324.560547 0.78125)"/>
      <use xlink:href="#DejaVuSans-74" transform="translate(386.083984 0.78125)"/>
      <use xlink:href="#DejaVuSans-65" transform="translate(425.292969 0.78125)"/>
      <use xlink:href="#DejaVuSans-72" transform="translate(486.816406 0.78125)"/>
      <use xlink:href="#DejaVuSans-20" transform="translate(527.929688 0.78125)"/>
      <use xlink:href="#DejaVuSans-Oblique-3bc" transform="translate(559.716797 0.78125)"/>
     </g>
    </g>
   </g>
   <g id="matplotlib.axis_2">
    <g id="ytick_1">
     <g id="line2d_13">
      <path d="M 172.8 619.6536 
L 1244.16 619.6536 
" clip-path="url(#p38ab6df9e7)" style="fill: none; stroke: #b0b0b0; stroke-width: 0.25; stroke-linecap: square"/>
     </g>
     <g id="line2d_14">
      <defs>
       <path id="mceec860091" d="M 0 0 
L -3.5 0 
" style="stroke: #000000; stroke-width: 0.8"/>
      </defs>
      <g>
       <use xlink:href="#mceec860091" x="172.8" y="619.6536" style="stroke: #000000; stroke-width: 0.8"/>
      </g>
     </g>
     <g id="text_8">
      <!-- 0 -->
      <g transform="translate(159.4375 623.452819)scale(0.1 -0.1)">
       <use xlink:href="#DejaVuSans-30"/>
      </g>
     </g>
    </g>
    <g id="ytick_2">
     <g id="line2d_15">
      <path d="M 172.8 512.43264 
L 1244.16 512.43264 
" clip-path="url(#p38ab6df9e7)" style="fill: none; stroke: #b0b0b0; stroke-width: 0.25; stroke-linecap: square"/>
     </g>
     <g id="line2d_16">
      <g>
       <use xlink:href="#mceec860091" x="172.8" y="512.43264" style="stroke: #000000; stroke-width: 0.8"/>
      </g>
     </g>
     <g id="text_9">
      <!-- 1 -->
      <g transform="translate(159.4375 516.231859)scale(0.1 -0.1)">
       <use xlink:href="#DejaVuSans-31"/>
      </g>
     </g>
    </g>
    <g id="ytick_3">
     <g id="line2d_17">
      <path d="M 172.8 405.21168 
L 1244.16 405.21168 
" clip-path="url(#p38ab6df9e7)" style="fill: none; stroke: #b0b0b0; stroke-width: 0.25; stroke-linecap: square"/>
     </g>
     <g id="line2d_18">
      <g>
       <use xlink:href="#mceec860091" x="172.8" y="405.21168" style="stroke: #000000; stroke-width: 0.8"/>
      </g>
     </g>
     <g id="text_10">
      <!-- 2 -->
      <g transform="translate(159.4375 409.010899)scale(0.1 -0.1)">
       <use xlink:href="#DejaVuSans-32"/>
      </g>
     </g>
    </g>
    <g id="ytick_4">
     <g id="line2d_19">
      <path d="M 172.8 297.99072 
L 1244.16 297.99072 
" clip-path="url(#p38ab6df9e7)" style="fill: none; stroke: #b0b0b0; stroke-width: 0.25; stroke-linecap: square"/>
     </g>
     <g id="line2d_20">
      <g>
       <use xlink:href="#mceec860091" x="172.8" y="297.99072" style="stroke: #000000; stroke-width: 0.8"/>
      </g>
     </g>
     <g id="text_11">
      <!-- 3 -->
      <g transform="translate(159.4375 301.789939)scale(0.1 -0.1)">
       <defs>
        <path id="DejaVuSans-33" d="M 2597 2516 
Q 3050 2419 3304 2112 
Q 3559 1806 3559 1356 
Q 3559 666 3084 287 
Q 2609 -91 1734 -91 
Q 1441 -91 1130 -33 
Q 819 25 488 141 
L 488 750 
Q 750 597 1062 519 
Q 1375 441 1716 441 
Q 2309 441 2620 675 
Q 2931 909 2931 1356 
Q 2931 1769 2642 2001 
Q 2353 2234 1838 2234 
L 1294 2234 
L 1294 2753 
L 1863 2753 
Q 2328 2753 2575 2939 
Q 2822 3125 2822 3475 
Q 2822 3834 2567 4026 
Q 2313 4219 1838 4219 
Q 1578 4219 1281 4162 
Q 984 4106 628 3988 
L 628 4550 
Q 988 4650 1302 4700 
Q 1616 4750 1894 4750 
Q 2613 4750 3031 4423 
Q 3450 4097 3450 3541 
Q 3450 3153 3228 2886 
Q 3006 2619 2597 2516 
z
" transform="scale(0.015625)"/>
       </defs>
       <use xlink:href="#DejaVuSans-33"/>
      </g>
     </g>
    </g>
    <g id="ytick_5">
     <g id="line2d_21">
      <path d="M 172.8 190.76976 
L 1244.16 190.76976 
" clip-path="url(#p38ab6df9e7)" style="fill: none; stroke: #b0b0b0; stroke-width: 0.25; stroke-linecap: square"/>
     </g>
     <g id="line2d_22">
      <g>
       <use xlink:href="#mceec860091" x="172.8" y="190.76976" style="stroke: #000000; stroke-width: 0.8"/>
      </g>
     </g>
     <g id="text_12">
      <!-- 4 -->
      <g transform="translate(159.4375 194.568979)scale(0.1 -0.1)">
       <use xlink:href="#DejaVuSans-34"/>
      </g>
     </g>
    </g>
    <g id="ytick_6">
     <g id="line2d_23">
      <path d="M 172.8 83.5488 
L 1244.16 83.5488 
" clip-path="url(#p38ab6df9e7)" style="fill: none; stroke: #b0b0b0; stroke-width: 0.25; stroke-linecap: square"/>
     </g>
     <g id="line2d_24">
      <g>
       <use xlink:href="#mceec860091" x="172.8" y="83.5488" style="stroke: #000000; stroke-width: 0.8"/>
      </g>
     </g>
     <g id="text_13">
      <!-- 5 -->
      <g transform="translate(159.4375 87.348019)scale(0.1 -0.1)">
       <defs>
        <path id="DejaVuSans-35" d="M 691 4666 
L 3169 4666 
L 3169 4134 
L 1269 4134 
L 1269 2991 
Q 1406 3038 1543 3061 
Q 1681 3084 1819 3084 
Q 2600 3084 3056 2656 
Q 3513 2228 3513 1497 
Q 3513 744 3044 326 
Q 2575 -91 1722 -91 
Q 1428 -91 1123 -41 
Q 819 9 494 109 
L 494 744 
Q 775 591 1075 516 
Q 1375 441 1709 441 
Q 2250 441 2565 725 
Q 2881 1009 2881 1497 
Q 2881 1984 2565 2268 
Q 2250 2553 1709 2553 
Q 1456 2553 1204 2497 
Q 953 2441 691 2322 
L 691 4666 
z
" transform="scale(0.015625)"/>
       </defs>
       <use xlink:href="#DejaVuSans-35"/>
      </g>
     </g>
    </g>
    <g id="text_14">
     <!-- sensitivity $\mathcal{S}\,(\mu)$ -->
     <g transform="translate(142.1175 389.7512)rotate(-90)scale(0.1 -0.1)">
      <defs>
       <path id="DejaVuSans-73" d="M 2834 3397 
L 2834 2853 
Q 2591 2978 2328 3040 
Q 2066 3103 1784 3103 
Q 1356 3103 1142 2972 
Q 928 2841 928 2578 
Q 928 2378 1081 2264 
Q 1234 2150 1697 2047 
L 1894 2003 
Q 2506 1872 2764 1633 
Q 3022 1394 3022 966 
Q 3022 478 2636 193 
Q 2250 -91 1575 -91 
Q 1294 -91 989 -36 
Q 684 19 347 128 
L 347 722 
Q 666 556 975 473 
Q 1284 391 1588 391 
Q 1994 391 2212 530 
Q 2431 669 2431 922 
Q 2431 1156 2273 1281 
Q 2116 1406 1581 1522 
L 1381 1569 
Q 847 1681 609 1914 
Q 372 2147 372 2553 
Q 372 3047 722 3315 
Q 1072 3584 1716 3584 
Q 2034 3584 2315 3537 
Q 2597 3491 2834 3397 
z
" transform="scale(0.015625)"/>
       <path id="DejaVuSans-6e" d="M 3513 2113 
L 3513 0 
L 2938 0 
L 2938 2094 
Q 2938 2591 2744 2837 
Q 2550 3084 2163 3084 
Q 1697 3084 1428 2787 
Q 1159 2491 1159 1978 
L 1159 0 
L 581 0 
L 581 3500 
L 1159 3500 
L 1159 2956 
Q 1366 3272 1645 3428 
Q 1925 3584 2291 3584 
Q 2894 3584 3203 3211 
Q 3513 2838 3513 2113 
z
" transform="scale(0.015625)"/>
       <path id="DejaVuSans-69" d="M 603 3500 
L 1178 3500 
L 1178 0 
L 603 0 
L 603 3500 
z
M 603 4863 
L 1178 4863 
L 1178 4134 
L 603 4134 
L 603 4863 
z
" transform="scale(0.015625)"/>
       <path id="DejaVuSans-76" d="M 191 3500 
L 800 3500 
L 1894 563 
L 2988 3500 
L 3597 3500 
L 2284 0 
L 1503 0 
L 191 3500 
z
" transform="scale(0.015625)"/>
       <path id="DejaVuSans-79" d="M 2059 -325 
Q 1816 -950 1584 -1140 
Q 1353 -1331 966 -1331 
L 506 -1331 
L 506 -850 
L 844 -850 
Q 1081 -850 1212 -737 
Q 1344 -625 1503 -206 
L 1606 56 
L 191 3500 
L 800 3500 
L 1894 763 
L 2988 3500 
L 3597 3500 
L 2059 -325 
z
" transform="scale(0.015625)"/>
       <path id="STIXNonUnicode-Italic-e23f" d="M 243 1235 
L 410 1254 
Q 518 582 1139 365 
Q 1421 262 1766 262 
Q 2304 262 2685 515 
Q 3066 768 3066 1235 
Q 3066 1427 2883 1571 
Q 2701 1715 2445 1817 
Q 2189 1920 1929 2045 
Q 1670 2170 1488 2403 
Q 1306 2637 1306 2970 
Q 1306 3290 1507 3555 
Q 1709 3821 2000 3974 
Q 2291 4128 2572 4211 
Q 2854 4294 3059 4294 
Q 3603 4294 3948 4134 
Q 4294 3974 4294 3642 
Q 4294 3462 4182 3299 
Q 4070 3136 3853 3136 
Q 3712 3136 3603 3232 
Q 3494 3328 3494 3456 
Q 3494 3603 3590 3708 
Q 3686 3814 3686 3840 
Q 3686 3917 3628 3965 
Q 3571 4013 3456 4032 
Q 3341 4051 3264 4054 
Q 3187 4058 3059 4058 
Q 2931 4058 2745 4010 
Q 2560 3962 2352 3866 
Q 2144 3770 2000 3581 
Q 1856 3392 1856 3155 
Q 1856 2931 2057 2771 
Q 2259 2611 2550 2502 
Q 2842 2394 3133 2269 
Q 3424 2144 3625 1920 
Q 3827 1696 3827 1376 
Q 3827 902 3206 451 
Q 2586 0 1805 0 
Q 992 0 617 339 
Q 243 678 243 1235 
z
" transform="scale(0.015625)"/>
       <path id="DejaVuSans-28" d="M 1984 4856 
Q 1566 4138 1362 3434 
Q 1159 2731 1159 2009 
Q 1159 1288 1364 580 
Q 1569 -128 1984 -844 
L 1484 -844 
Q 1016 -109 783 600 
Q 550 1309 550 2009 
Q 550 2706 781 3412 
Q 1013 4119 1484 4856 
L 1984 4856 
z
" transform="scale(0.015625)"/>
       <path id="DejaVuSans-29" d="M 513 4856 
L 1013 4856 
Q 1481 4119 1714 3412 
Q 1947 2706 1947 2009 
Q 1947 1309 1714 600 
Q 1481 -109 1013 -844 
L 513 -844 
Q 928 -128 1133 580 
Q 1338 1288 1338 2009 
Q 1338 2731 1133 3434 
Q 928 4138 513 4856 
z
" transform="scale(0.015625)"/>
      </defs>
      <use xlink:href="#DejaVuSans-73" transform="translate(0 0.015625)"/>
      <use xlink:href="#DejaVuSans-65" transform="translate(52.099609 0.015625)"/>
      <use xlink:href="#DejaVuSans-6e" transform="translate(113.623047 0.015625)"/>
      <use xlink:href="#DejaVuSans-73" transform="translate(177.001953 0.015625)"/>
      <use xlink:href="#DejaVuSans-69" transform="translate(229.101562 0.015625)"/>
      <use xlink:href="#DejaVuSans-74" transform="translate(256.884766 0.015625)"/>
      <use xlink:href="#DejaVuSans-69" transform="translate(296.09375 0.015625)"/>
      <use xlink:href="#DejaVuSans-76" transform="translate(323.876953 0.015625)"/>
      <use xlink:href="#DejaVuSans-69" transform="translate(383.056641 0.015625)"/>
      <use xlink:href="#DejaVuSans-74" transform="translate(410.839844 0.015625)"/>
      <use xlink:href="#DejaVuSans-79" transform="translate(450.048828 0.015625)"/>
      <use xlink:href="#DejaVuSans-20" transform="translate(509.228516 0.015625)"/>
      <use xlink:href="#STIXNonUnicode-Italic-e23f" transform="translate(541.015625 0.015625)"/>
      <use xlink:href="#DejaVuSans-28" transform="translate(620.651295 0.015625)"/>
      <use xlink:href="#DejaVuSans-Oblique-3bc" transform="translate(659.664967 0.015625)"/>
      <use xlink:href="#DejaVuSans-29" transform="translate(723.288014 0.015625)"/>
     </g>
     <!-- elasticity $\mathcal{E}\,(\mu)$ -->
     <g transform="translate(153.3375 386.4012)rotate(-90)scale(0.1 -0.1)">
      <defs>
       <path id="DejaVuSans-6c" d="M 603 4863 
L 1178 4863 
L 1178 0 
L 603 0 
L 603 4863 
z
" transform="scale(0.015625)"/>
       <path id="DejaVuSans-63" d="M 3122 3366 
L 3122 2828 
Q 2878 2963 2633 3030 
Q 2388 3097 2138 3097 
Q 1578 3097 1268 2742 
Q 959 2388 959 1747 
Q 959 1106 1268 751 
Q 1578 397 2138 397 
Q 2388 397 2633 464 
Q 2878 531 3122 666 
L 3122 134 
Q 2881 22 2623 -34 
Q 2366 -91 2075 -91 
Q 1284 -91 818 406 
Q 353 903 353 1747 
Q 353 2603 823 3093 
Q 1294 3584 2113 3584 
Q 2378 3584 2631 3529 
Q 2884 3475 3122 3366 
z
" transform="scale(0.015625)"/>
       <path id="STIXNonUnicode-Italic-e231" d="M 3270 973 
L 3373 858 
Q 2893 346 2272 128 
Q 1856 -26 1331 -26 
Q 896 -26 576 169 
Q 256 365 256 736 
Q 256 1267 659 1651 
Q 1062 2035 1619 2259 
Q 1485 2323 1414 2368 
Q 1344 2413 1257 2493 
Q 1171 2573 1132 2688 
Q 1094 2803 1094 2963 
Q 1094 3309 1401 3629 
Q 1709 3949 2112 4118 
Q 2515 4288 2848 4288 
Q 3296 4288 3565 4128 
Q 3834 3968 3834 3654 
Q 3834 3514 3718 3338 
Q 3603 3162 3373 3162 
Q 3238 3162 3132 3251 
Q 3027 3341 3027 3475 
Q 3027 3622 3123 3731 
Q 3219 3840 3219 3859 
Q 3219 3981 3148 4029 
Q 3078 4077 2918 4077 
Q 2432 4077 2038 3792 
Q 1645 3507 1645 3155 
Q 1645 2893 1881 2742 
Q 2118 2592 2502 2592 
L 2938 2592 
L 2880 2349 
Q 2605 2349 2275 2243 
Q 1946 2138 1645 1958 
Q 1344 1779 1142 1494 
Q 941 1210 941 896 
Q 941 614 1155 467 
Q 1370 320 1741 320 
Q 2131 320 2576 515 
Q 3021 710 3270 973 
z
" transform="scale(0.015625)"/>
      </defs>
      <use xlink:href="#DejaVuSans-65" transform="translate(0 0.015625)"/>
      <use xlink:href="#DejaVuSans-6c" transform="translate(61.523438 0.015625)"/>
      <use xlink:href="#DejaVuSans-61" transform="translate(89.306641 0.015625)"/>
      <use xlink:href="#DejaVuSans-73" transform="translate(150.585938 0.015625)"/>
      <use xlink:href="#DejaVuSans-74" transform="translate(202.685547 0.015625)"/>
      <use xlink:href="#DejaVuSans-69" transform="translate(241.894531 0.015625)"/>
      <use xlink:href="#DejaVuSans-63" transform="translate(269.677734 0.015625)"/>
      <use xlink:href="#DejaVuSans-69" transform="translate(324.658203 0.015625)"/>
      <use xlink:href="#DejaVuSans-74" transform="translate(352.441406 0.015625)"/>
      <use xlink:href="#DejaVuSans-79" transform="translate(391.650391 0.015625)"/>
      <use xlink:href="#DejaVuSans-20" transform="translate(450.830078 0.015625)"/>
      <use xlink:href="#STIXNonUnicode-Italic-e231" transform="translate(482.617188 0.015625)"/>
      <use xlink:href="#DejaVuSans-28" transform="translate(554.152852 0.015625)"/>
      <use xlink:href="#DejaVuSans-Oblique-3bc" transform="translate(593.166523 0.015625)"/>
      <use xlink:href="#DejaVuSans-29" transform="translate(656.78957 0.015625)"/>
     </g>
    </g>
   </g>
   <g id="line2d_25">
    <path d="M 172.8 212.917274 
L 183.621818 212.917274 
L 194.443636 212.917274 
L 205.265455 212.917274 
L 216.087273 212.917274 
L 226.909091 212.917274 
L 237.730909 212.917274 
L 248.552727 212.917274 
L 259.374545 212.917274 
L 270.196364 212.917274 
L 281.018182 212.917274 
L 291.84 212.917274 
L 302.661818 212.917274 
L 313.483636 212.917274 
L 324.305455 212.917274 
L 335.127273 212.917274 
L 345.949091 212.917274 
L 356.770909 212.917274 
L 367.592727 212.917274 
L 378.414545 212.917274 
L 389.236364 212.917274 
L 400.058182 212.917274 
L 410.88 212.917274 
L 421.701818 212.917274 
L 432.523636 212.917274 
L 443.345455 212.917274 
L 454.167273 212.917274 
L 464.989091 212.917274 
L 475.810909 212.917274 
L 486.632727 212.917274 
L 497.454545 212.917274 
L 508.276364 212.917274 
L 519.098182 212.917274 
L 529.92 212.917274 
L 540.741818 212.917274 
L 551.563636 212.917274 
L 562.385455 212.917274 
L 573.207273 212.917274 
L 584.029091 212.917274 
L 594.850909 212.917274 
L 605.672727 212.917274 
L 616.494545 212.917274 
L 627.316364 212.917274 
L 638.138182 212.917274 
L 648.96 212.917274 
L 659.781818 212.917274 
L 670.603636 212.917274 
L 681.425455 212.917274 
L 692.247273 212.917274 
L 703.069091 212.917274 
L 713.890909 212.917274 
L 724.712727 212.917274 
L 735.534545 212.917274 
L 746.356364 212.917274 
L 757.178182 212.917274 
L 768 212.917274 
L 778.821818 212.917274 
L 789.643636 212.917274 
L 800.465455 212.917274 
L 811.287273 212.917274 
L 822.109091 212.917274 
L 832.930909 212.917274 
L 843.752727 212.917274 
L 854.574545 212.917274 
L 865.396364 212.917274 
L 876.218182 212.917274 
L 887.04 212.917274 
L 897.861818 212.917274 
L 908.683636 212.917274 
L 919.505455 212.917274 
L 930.327273 212.917274 
L 941.149091 212.917274 
L 951.970909 212.917274 
L 962.792727 212.917274 
L 973.614545 212.917274 
L 984.436364 212.917274 
L 995.258182 212.917274 
L 1006.08 212.917274 
L 1016.901818 212.917274 
L 1027.723636 212.917274 
L 1038.545455 212.917274 
L 1049.367273 212.917274 
L 1060.189091 212.917274 
L 1071.010909 212.917274 
L 1081.832727 212.917274 
L 1092.654545 212.917274 
L 1103.476364 212.917274 
L 1114.298182 212.917274 
L 1125.12 212.917274 
L 1135.941818 212.917274 
L 1146.763636 212.917274 
L 1157.585455 212.917274 
L 1168.407273 212.917274 
L 1179.229091 212.917274 
L 1190.050909 212.917274 
L 1200.872727 212.917274 
L 1211.694545 212.917274 
L 1222.516364 212.917274 
L 1233.338182 212.917274 
L 1244.16 212.917274 
" clip-path="url(#p38ab6df9e7)" style="fill: none; stroke: #1e90ff; stroke-width: 1.5; stroke-linecap: square"/>
    <defs>
     <path id="mebe814236a" d="M 0 1.5 
C 0.397805 1.5 0.77937 1.341951 1.06066 1.06066 
C 1.341951 0.77937 1.5 0.397805 1.5 0 
C 1.5 -0.397805 1.341951 -0.77937 1.06066 -1.06066 
C 0.77937 -1.341951 0.397805 -1.5 0 -1.5 
C -0.397805 -1.5 -0.77937 -1.341951 -1.06066 -1.06066 
C -1.341951 -0.77937 -1.5 -0.397805 -1.5 0 
C -1.5 0.397805 -1.341951 0.77937 -1.06066 1.06066 
C -0.77937 1.341951 -0.397805 1.5 0 1.5 
z
" style="stroke: #1e90ff"/>
    </defs>
    <g clip-path="url(#p38ab6df9e7)">
     <use xlink:href="#mebe814236a" x="172.8" y="212.917274" style="fill: #1e90ff; stroke: #1e90ff"/>
     <use xlink:href="#mebe814236a" x="183.621818" y="212.917274" style="fill: #1e90ff; stroke: #1e90ff"/>
     <use xlink:href="#mebe814236a" x="194.443636" y="212.917274" style="fill: #1e90ff; stroke: #1e90ff"/>
     <use xlink:href="#mebe814236a" x="205.265455" y="212.917274" style="fill: #1e90ff; stroke: #1e90ff"/>
     <use xlink:href="#mebe814236a" x="216.087273" y="212.917274" style="fill: #1e90ff; stroke: #1e90ff"/>
     <use xlink:href="#mebe814236a" x="226.909091" y="212.917274" style="fill: #1e90ff; stroke: #1e90ff"/>
     <use xlink:href="#mebe814236a" x="237.730909" y="212.917274" style="fill: #1e90ff; stroke: #1e90ff"/>
     <use xlink:href="#mebe814236a" x="248.552727" y="212.917274" style="fill: #1e90ff; stroke: #1e90ff"/>
     <use xlink:href="#mebe814236a" x="259.374545" y="212.917274" style="fill: #1e90ff; stroke: #1e90ff"/>
     <use xlink:href="#mebe814236a" x="270.196364" y="212.917274" style="fill: #1e90ff; stroke: #1e90ff"/>
     <use xlink:href="#mebe814236a" x="281.018182" y="212.917274" style="fill: #1e90ff; stroke: #1e90ff"/>
     <use xlink:href="#mebe814236a" x="291.84" y="212.917274" style="fill: #1e90ff; stroke: #1e90ff"/>
     <use xlink:href="#mebe814236a" x="302.661818" y="212.917274" style="fill: #1e90ff; stroke: #1e90ff"/>
     <use xlink:href="#mebe814236a" x="313.483636" y="212.917274" style="fill: #1e90ff; stroke: #1e90ff"/>
     <use xlink:href="#mebe814236a" x="324.305455" y="212.917274" style="fill: #1e90ff; stroke: #1e90ff"/>
     <use xlink:href="#mebe814236a" x="335.127273" y="212.917274" style="fill: #1e90ff; stroke: #1e90ff"/>
     <use xlink:href="#mebe814236a" x="345.949091" y="212.917274" style="fill: #1e90ff; stroke: #1e90ff"/>
     <use xlink:href="#mebe814236a" x="356.770909" y="212.917274" style="fill: #1e90ff; stroke: #1e90ff"/>
     <use xlink:href="#mebe814236a" x="367.592727" y="212.917274" style="fill: #1e90ff; stroke: #1e90ff"/>
     <use xlink:href="#mebe814236a" x="378.414545" y="212.917274" style="fill: #1e90ff; stroke: #1e90ff"/>
     <use xlink:href="#mebe814236a" x="389.236364" y="212.917274" style="fill: #1e90ff; stroke: #1e90ff"/>
     <use xlink:href="#mebe814236a" x="400.058182" y="212.917274" style="fill: #1e90ff; stroke: #1e90ff"/>
     <use xlink:href="#mebe814236a" x="410.88" y="212.917274" style="fill: #1e90ff; stroke: #1e90ff"/>
     <use xlink:href="#mebe814236a" x="421.701818" y="212.917274" style="fill: #1e90ff; stroke: #1e90ff"/>
     <use xlink:href="#mebe814236a" x="432.523636" y="212.917274" style="fill: #1e90ff; stroke: #1e90ff"/>
     <use xlink:href="#mebe814236a" x="443.345455" y="212.917274" style="fill: #1e90ff; stroke: #1e90ff"/>
     <use xlink:href="#mebe814236a" x="454.167273" y="212.917274" style="fill: #1e90ff; stroke: #1e90ff"/>
     <use xlink:href="#mebe814236a" x="464.989091" y="212.917274" style="fill: #1e90ff; stroke: #1e90ff"/>
     <use xlink:href="#mebe814236a" x="475.810909" y="212.917274" style="fill: #1e90ff; stroke: #1e90ff"/>
     <use xlink:href="#mebe814236a" x="486.632727" y="212.917274" style="fill: #1e90ff; stroke: #1e90ff"/>
     <use xlink:href="#mebe814236a" x="497.454545" y="212.917274" style="fill: #1e90ff; stroke: #1e90ff"/>
     <use xlink:href="#mebe814236a" x="508.276364" y="212.917274" style="fill: #1e90ff; stroke: #1e90ff"/>
     <use xlink:href="#mebe814236a" x="519.098182" y="212.917274" style="fill: #1e90ff; stroke: #1e90ff"/>
     <use xlink:href="#mebe814236a" x="529.92" y="212.917274" style="fill: #1e90ff; stroke: #1e90ff"/>
     <use xlink:href="#mebe814236a" x="540.741818" y="212.917274" style="fill: #1e90ff; stroke: #1e90ff"/>
     <use xlink:href="#mebe814236a" x="551.563636" y="212.917274" style="fill: #1e90ff; stroke: #1e90ff"/>
     <use xlink:href="#mebe814236a" x="562.385455" y="212.917274" style="fill: #1e90ff; stroke: #1e90ff"/>
     <use xlink:href="#mebe814236a" x="573.207273" y="212.917274" style="fill: #1e90ff; stroke: #1e90ff"/>
     <use xlink:href="#mebe814236a" x="584.029091" y="212.917274" style="fill: #1e90ff; stroke: #1e90ff"/>
     <use xlink:href="#mebe814236a" x="594.850909" y="212.917274" style="fill: #1e90ff; stroke: #1e90ff"/>
     <use xlink:href="#mebe814236a" x="605.672727" y="212.917274" style="fill: #1e90ff; stroke: #1e90ff"/>
     <use xlink:href="#mebe814236a" x="616.494545" y="212.917274" style="fill: #1e90ff; stroke: #1e90ff"/>
     <use xlink:href="#mebe814236a" x="627.316364" y="212.917274" style="fill: #1e90ff; stroke: #1e90ff"/>
     <use xlink:href="#mebe814236a" x="638.138182" y="212.917274" style="fill: #1e90ff; stroke: #1e90ff"/>
     <use xlink:href="#mebe814236a" x="648.96" y="212.917274" style="fill: #1e90ff; stroke: #1e90ff"/>
     <use xlink:href="#mebe814236a" x="659.781818" y="212.917274" style="fill: #1e90ff; stroke: #1e90ff"/>
     <use xlink:href="#mebe814236a" x="670.603636" y="212.917274" style="fill: #1e90ff; stroke: #1e90ff"/>
     <use xlink:href="#mebe814236a" x="681.425455" y="212.917274" style="fill: #1e90ff; stroke: #1e90ff"/>
     <use xlink:href="#mebe814236a" x="692.247273" y="212.917274" style="fill: #1e90ff; stroke: #1e90ff"/>
     <use xlink:href="#mebe814236a" x="703.069091" y="212.917274" style="fill: #1e90ff; stroke: #1e90ff"/>
     <use xlink:href="#mebe814236a" x="713.890909" y="212.917274" style="fill: #1e90ff; stroke: #1e90ff"/>
     <use xlink:href="#mebe814236a" x="724.712727" y="212.917274" style="fill: #1e90ff; stroke: #1e90ff"/>
     <use xlink:href="#mebe814236a" x="735.534545" y="212.917274" style="fill: #1e90ff; stroke: #1e90ff"/>
     <use xlink:href="#mebe814236a" x="746.356364" y="212.917274" style="fill: #1e90ff; stroke: #1e90ff"/>
     <use xlink:href="#mebe814236a" x="757.178182" y="212.917274" style="fill: #1e90ff; stroke: #1e90ff"/>
     <use xlink:href="#mebe814236a" x="768" y="212.917274" style="fill: #1e90ff; stroke: #1e90ff"/>
     <use xlink:href="#mebe814236a" x="778.821818" y="212.917274" style="fill: #1e90ff; stroke: #1e90ff"/>
     <use xlink:href="#mebe814236a" x="789.643636" y="212.917274" style="fill: #1e90ff; stroke: #1e90ff"/>
     <use xlink:href="#mebe814236a" x="800.465455" y="212.917274" style="fill: #1e90ff; stroke: #1e90ff"/>
     <use xlink:href="#mebe814236a" x="811.287273" y="212.917274" style="fill: #1e90ff; stroke: #1e90ff"/>
     <use xlink:href="#mebe814236a" x="822.109091" y="212.917274" style="fill: #1e90ff; stroke: #1e90ff"/>
     <use xlink:href="#mebe814236a" x="832.930909" y="212.917274" style="fill: #1e90ff; stroke: #1e90ff"/>
     <use xlink:href="#mebe814236a" x="843.752727" y="212.917274" style="fill: #1e90ff; stroke: #1e90ff"/>
     <use xlink:href="#mebe814236a" x="854.574545" y="212.917274" style="fill: #1e90ff; stroke: #1e90ff"/>
     <use xlink:href="#mebe814236a" x="865.396364" y="212.917274" style="fill: #1e90ff; stroke: #1e90ff"/>
     <use xlink:href="#mebe814236a" x="876.218182" y="212.917274" style="fill: #1e90ff; stroke: #1e90ff"/>
     <use xlink:href="#mebe814236a" x="887.04" y="212.917274" style="fill: #1e90ff; stroke: #1e90ff"/>
     <use xlink:href="#mebe814236a" x="897.861818" y="212.917274" style="fill: #1e90ff; stroke: #1e90ff"/>
     <use xlink:href="#mebe814236a" x="908.683636" y="212.917274" style="fill: #1e90ff; stroke: #1e90ff"/>
     <use xlink:href="#mebe814236a" x="919.505455" y="212.917274" style="fill: #1e90ff; stroke: #1e90ff"/>
     <use xlink:href="#mebe814236a" x="930.327273" y="212.917274" style="fill: #1e90ff; stroke: #1e90ff"/>
     <use xlink:href="#mebe814236a" x="941.149091" y="212.917274" style="fill: #1e90ff; stroke: #1e90ff"/>
     <use xlink:href="#mebe814236a" x="951.970909" y="212.917274" style="fill: #1e90ff; stroke: #1e90ff"/>
     <use xlink:href="#mebe814236a" x="962.792727" y="212.917274" style="fill: #1e90ff; stroke: #1e90ff"/>
     <use xlink:href="#mebe814236a" x="973.614545" y="212.917274" style="fill: #1e90ff; stroke: #1e90ff"/>
     <use xlink:href="#mebe814236a" x="984.436364" y="212.917274" style="fill: #1e90ff; stroke: #1e90ff"/>
     <use xlink:href="#mebe814236a" x="995.258182" y="212.917274" style="fill: #1e90ff; stroke: #1e90ff"/>
     <use xlink:href="#mebe814236a" x="1006.08" y="212.917274" style="fill: #1e90ff; stroke: #1e90ff"/>
     <use xlink:href="#mebe814236a" x="1016.901818" y="212.917274" style="fill: #1e90ff; stroke: #1e90ff"/>
     <use xlink:href="#mebe814236a" x="1027.723636" y="212.917274" style="fill: #1e90ff; stroke: #1e90ff"/>
     <use xlink:href="#mebe814236a" x="1038.545455" y="212.917274" style="fill: #1e90ff; stroke: #1e90ff"/>
     <use xlink:href="#mebe814236a" x="1049.367273" y="212.917274" style="fill: #1e90ff; stroke: #1e90ff"/>
     <use xlink:href="#mebe814236a" x="1060.189091" y="212.917274" style="fill: #1e90ff; stroke: #1e90ff"/>
     <use xlink:href="#mebe814236a" x="1071.010909" y="212.917274" style="fill: #1e90ff; stroke: #1e90ff"/>
     <use xlink:href="#mebe814236a" x="1081.832727" y="212.917274" style="fill: #1e90ff; stroke: #1e90ff"/>
     <use xlink:href="#mebe814236a" x="1092.654545" y="212.917274" style="fill: #1e90ff; stroke: #1e90ff"/>
     <use xlink:href="#mebe814236a" x="1103.476364" y="212.917274" style="fill: #1e90ff; stroke: #1e90ff"/>
     <use xlink:href="#mebe814236a" x="1114.298182" y="212.917274" style="fill: #1e90ff; stroke: #1e90ff"/>
     <use xlink:href="#mebe814236a" x="1125.12" y="212.917274" style="fill: #1e90ff; stroke: #1e90ff"/>
     <use xlink:href="#mebe814236a" x="1135.941818" y="212.917274" style="fill: #1e90ff; stroke: #1e90ff"/>
     <use xlink:href="#mebe814236a" x="1146.763636" y="212.917274" style="fill: #1e90ff; stroke: #1e90ff"/>
     <use xlink:href="#mebe814236a" x="1157.585455" y="212.917274" style="fill: #1e90ff; stroke: #1e90ff"/>
     <use xlink:href="#mebe814236a" x="1168.407273" y="212.917274" style="fill: #1e90ff; stroke: #1e90ff"/>
     <use xlink:href="#mebe814236a" x="1179.229091" y="212.917274" style="fill: #1e90ff; stroke: #1e90ff"/>
     <use xlink:href="#mebe814236a" x="1190.050909" y="212.917274" style="fill: #1e90ff; stroke: #1e90ff"/>
     <use xlink:href="#mebe814236a" x="1200.872727" y="212.917274" style="fill: #1e90ff; stroke: #1e90ff"/>
     <use xlink:href="#mebe814236a" x="1211.694545" y="212.917274" style="fill: #1e90ff; stroke: #1e90ff"/>
     <use xlink:href="#mebe814236a" x="1222.516364" y="212.917274" style="fill: #1e90ff; stroke: #1e90ff"/>
     <use xlink:href="#mebe814236a" x="1233.338182" y="212.917274" style="fill: #1e90ff; stroke: #1e90ff"/>
     <use xlink:href="#mebe814236a" x="1244.16" y="212.917274" style="fill: #1e90ff; stroke: #1e90ff"/>
    </g>
   </g>
   <g id="line2d_26">
    <path d="M 172.8 619.6536 
L 183.621818 614.49337 
L 194.443636 608.96521 
L 205.265455 603.049963 
L 216.087273 596.732146 
L 226.909091 590.001956 
L 237.730909 582.857744 
L 248.552727 575.30893 
L 259.374545 567.379203 
L 270.196364 559.109741 
L 281.018182 550.561993 
L 291.84 541.819382 
L 302.661818 532.987219 
L 313.483636 524.19012 
L 324.305455 515.566516 
L 335.127273 507.260397 
L 345.949091 499.41107 
L 356.770909 492.142412 
L 367.592727 485.553392 
L 378.414545 479.711499 
L 389.236364 474.650057 
L 400.058182 470.369507 
L 410.88 466.841936 
L 421.701818 464.017594 
L 432.523636 461.832082 
L 443.345455 460.21312 
L 454.167273 459.086198 
L 464.989091 458.378825 
L 475.810909 458.023378 
L 486.632727 457.958751 
L 497.454545 458.131072 
L 508.276364 458.493762 
L 519.098182 459.007173 
L 529.92 459.637973 
L 540.741818 460.358438 
L 551.563636 461.145706 
L 562.385455 461.98107 
L 573.207273 462.849329 
L 584.029091 463.738211 
L 594.850909 464.637877 
L 605.672727 465.540493 
L 616.494545 466.439868 
L 627.316364 467.331158 
L 638.138182 468.210615 
L 648.96 469.07538 
L 659.781818 469.923316 
L 670.603636 470.752866 
L 681.425455 471.562943 
L 692.247273 472.352833 
L 703.069091 473.122123 
L 713.890909 473.87064 
L 724.712727 474.598394 
L 735.534545 475.305547 
L 746.356364 475.992372 
L 757.178182 476.659231 
L 768 477.306551 
L 778.821818 477.934808 
L 789.643636 478.544509 
L 800.465455 479.136187 
L 811.287273 479.710388 
L 822.109091 480.267664 
L 832.930909 480.808567 
L 843.752727 481.333646 
L 854.574545 481.843443 
L 865.396364 482.338489 
L 876.218182 482.819304 
L 887.04 483.286393 
L 897.861818 483.740249 
L 908.683636 484.181347 
L 919.505455 484.610148 
L 930.327273 485.027097 
L 941.149091 485.432622 
L 951.970909 485.827136 
L 962.792727 486.211036 
L 973.614545 486.584703 
L 984.436364 486.948506 
L 995.258182 487.302795 
L 1006.08 487.647909 
L 1016.901818 487.984172 
L 1027.723636 488.311896 
L 1038.545455 488.631378 
L 1049.367273 488.942906 
L 1060.189091 489.246754 
L 1071.010909 489.543185 
L 1081.832727 489.832452 
L 1092.654545 490.114797 
L 1103.476364 490.390451 
L 1114.298182 490.659639 
L 1125.12 490.922573 
L 1135.941818 491.179458 
L 1146.763636 491.430492 
L 1157.585455 491.675864 
L 1168.407273 491.915754 
L 1179.229091 492.150337 
L 1190.050909 492.37978 
L 1200.872727 492.604244 
L 1211.694545 492.823883 
L 1222.516364 493.038846 
L 1233.338182 493.249274 
L 1244.16 493.455306 
" clip-path="url(#p38ab6df9e7)" style="fill: none; stroke: #191970; stroke-width: 1.5; stroke-linecap: square"/>
    <defs>
     <path id="m300e6d5ef3" d="M 0 1.5 
C 0.397805 1.5 0.77937 1.341951 1.06066 1.06066 
C 1.341951 0.77937 1.5 0.397805 1.5 0 
C 1.5 -0.397805 1.341951 -0.77937 1.06066 -1.06066 
C 0.77937 -1.341951 0.397805 -1.5 0 -1.5 
C -0.397805 -1.5 -0.77937 -1.341951 -1.06066 -1.06066 
C -1.341951 -0.77937 -1.5 -0.397805 -1.5 0 
C -1.5 0.397805 -1.341951 0.77937 -1.06066 1.06066 
C -0.77937 1.341951 -0.397805 1.5 0 1.5 
z
" style="stroke: #191970"/>
    </defs>
    <g clip-path="url(#p38ab6df9e7)">
     <use xlink:href="#m300e6d5ef3" x="172.8" y="619.6536" style="fill: #191970; stroke: #191970"/>
     <use xlink:href="#m300e6d5ef3" x="183.621818" y="614.49337" style="fill: #191970; stroke: #191970"/>
     <use xlink:href="#m300e6d5ef3" x="194.443636" y="608.96521" style="fill: #191970; stroke: #191970"/>
     <use xlink:href="#m300e6d5ef3" x="205.265455" y="603.049963" style="fill: #191970; stroke: #191970"/>
     <use xlink:href="#m300e6d5ef3" x="216.087273" y="596.732146" style="fill: #191970; stroke: #191970"/>
     <use xlink:href="#m300e6d5ef3" x="226.909091" y="590.001956" style="fill: #191970; stroke: #191970"/>
     <use xlink:href="#m300e6d5ef3" x="237.730909" y="582.857744" style="fill: #191970; stroke: #191970"/>
     <use xlink:href="#m300e6d5ef3" x="248.552727" y="575.30893" style="fill: #191970; stroke: #191970"/>
     <use xlink:href="#m300e6d5ef3" x="259.374545" y="567.379203" style="fill: #191970; stroke: #191970"/>
     <use xlink:href="#m300e6d5ef3" x="270.196364" y="559.109741" style="fill: #191970; stroke: #191970"/>
     <use xlink:href="#m300e6d5ef3" x="281.018182" y="550.561993" style="fill: #191970; stroke: #191970"/>
     <use xlink:href="#m300e6d5ef3" x="291.84" y="541.819382" style="fill: #191970; stroke: #191970"/>
     <use xlink:href="#m300e6d5ef3" x="302.661818" y="532.987219" style="fill: #191970; stroke: #191970"/>
     <use xlink:href="#m300e6d5ef3" x="313.483636" y="524.19012" style="fill: #191970; stroke: #191970"/>
     <use xlink:href="#m300e6d5ef3" x="324.305455" y="515.566516" style="fill: #191970; stroke: #191970"/>
     <use xlink:href="#m300e6d5ef3" x="335.127273" y="507.260397" style="fill: #191970; stroke: #191970"/>
     <use xlink:href="#m300e6d5ef3" x="345.949091" y="499.41107" style="fill: #191970; stroke: #191970"/>
     <use xlink:href="#m300e6d5ef3" x="356.770909" y="492.142412" style="fill: #191970; stroke: #191970"/>
     <use xlink:href="#m300e6d5ef3" x="367.592727" y="485.553392" style="fill: #191970; stroke: #191970"/>
     <use xlink:href="#m300e6d5ef3" x="378.414545" y="479.711499" style="fill: #191970; stroke: #191970"/>
     <use xlink:href="#m300e6d5ef3" x="389.236364" y="474.650057" style="fill: #191970; stroke: #191970"/>
     <use xlink:href="#m300e6d5ef3" x="400.058182" y="470.369507" style="fill: #191970; stroke: #191970"/>
     <use xlink:href="#m300e6d5ef3" x="410.88" y="466.841936" style="fill: #191970; stroke: #191970"/>
     <use xlink:href="#m300e6d5ef3" x="421.701818" y="464.017594" style="fill: #191970; stroke: #191970"/>
     <use xlink:href="#m300e6d5ef3" x="432.523636" y="461.832082" style="fill: #191970; stroke: #191970"/>
     <use xlink:href="#m300e6d5ef3" x="443.345455" y="460.21312" style="fill: #191970; stroke: #191970"/>
     <use xlink:href="#m300e6d5ef3" x="454.167273" y="459.086198" style="fill: #191970; stroke: #191970"/>
     <use xlink:href="#m300e6d5ef3" x="464.989091" y="458.378825" style="fill: #191970; stroke: #191970"/>
     <use xlink:href="#m300e6d5ef3" x="475.810909" y="458.023378" style="fill: #191970; stroke: #191970"/>
     <use xlink:href="#m300e6d5ef3" x="486.632727" y="457.958751" style="fill: #191970; stroke: #191970"/>
     <use xlink:href="#m300e6d5ef3" x="497.454545" y="458.131072" style="fill: #191970; stroke: #191970"/>
     <use xlink:href="#m300e6d5ef3" x="508.276364" y="458.493762" style="fill: #191970; stroke: #191970"/>
     <use xlink:href="#m300e6d5ef3" x="519.098182" y="459.007173" style="fill: #191970; stroke: #191970"/>
     <use xlink:href="#m300e6d5ef3" x="529.92" y="459.637973" style="fill: #191970; stroke: #191970"/>
     <use xlink:href="#m300e6d5ef3" x="540.741818" y="460.358438" style="fill: #191970; stroke: #191970"/>
     <use xlink:href="#m300e6d5ef3" x="551.563636" y="461.145706" style="fill: #191970; stroke: #191970"/>
     <use xlink:href="#m300e6d5ef3" x="562.385455" y="461.98107" style="fill: #191970; stroke: #191970"/>
     <use xlink:href="#m300e6d5ef3" x="573.207273" y="462.849329" style="fill: #191970; stroke: #191970"/>
     <use xlink:href="#m300e6d5ef3" x="584.029091" y="463.738211" style="fill: #191970; stroke: #191970"/>
     <use xlink:href="#m300e6d5ef3" x="594.850909" y="464.637877" style="fill: #191970; stroke: #191970"/>
     <use xlink:href="#m300e6d5ef3" x="605.672727" y="465.540493" style="fill: #191970; stroke: #191970"/>
     <use xlink:href="#m300e6d5ef3" x="616.494545" y="466.439868" style="fill: #191970; stroke: #191970"/>
     <use xlink:href="#m300e6d5ef3" x="627.316364" y="467.331158" style="fill: #191970; stroke: #191970"/>
     <use xlink:href="#m300e6d5ef3" x="638.138182" y="468.210615" style="fill: #191970; stroke: #191970"/>
     <use xlink:href="#m300e6d5ef3" x="648.96" y="469.07538" style="fill: #191970; stroke: #191970"/>
     <use xlink:href="#m300e6d5ef3" x="659.781818" y="469.923316" style="fill: #191970; stroke: #191970"/>
     <use xlink:href="#m300e6d5ef3" x="670.603636" y="470.752866" style="fill: #191970; stroke: #191970"/>
     <use xlink:href="#m300e6d5ef3" x="681.425455" y="471.562943" style="fill: #191970; stroke: #191970"/>
     <use xlink:href="#m300e6d5ef3" x="692.247273" y="472.352833" style="fill: #191970; stroke: #191970"/>
     <use xlink:href="#m300e6d5ef3" x="703.069091" y="473.122123" style="fill: #191970; stroke: #191970"/>
     <use xlink:href="#m300e6d5ef3" x="713.890909" y="473.87064" style="fill: #191970; stroke: #191970"/>
     <use xlink:href="#m300e6d5ef3" x="724.712727" y="474.598394" style="fill: #191970; stroke: #191970"/>
     <use xlink:href="#m300e6d5ef3" x="735.534545" y="475.305547" style="fill: #191970; stroke: #191970"/>
     <use xlink:href="#m300e6d5ef3" x="746.356364" y="475.992372" style="fill: #191970; stroke: #191970"/>
     <use xlink:href="#m300e6d5ef3" x="757.178182" y="476.659231" style="fill: #191970; stroke: #191970"/>
     <use xlink:href="#m300e6d5ef3" x="768" y="477.306551" style="fill: #191970; stroke: #191970"/>
     <use xlink:href="#m300e6d5ef3" x="778.821818" y="477.934808" style="fill: #191970; stroke: #191970"/>
     <use xlink:href="#m300e6d5ef3" x="789.643636" y="478.544509" style="fill: #191970; stroke: #191970"/>
     <use xlink:href="#m300e6d5ef3" x="800.465455" y="479.136187" style="fill: #191970; stroke: #191970"/>
     <use xlink:href="#m300e6d5ef3" x="811.287273" y="479.710388" style="fill: #191970; stroke: #191970"/>
     <use xlink:href="#m300e6d5ef3" x="822.109091" y="480.267664" style="fill: #191970; stroke: #191970"/>
     <use xlink:href="#m300e6d5ef3" x="832.930909" y="480.808567" style="fill: #191970; stroke: #191970"/>
     <use xlink:href="#m300e6d5ef3" x="843.752727" y="481.333646" style="fill: #191970; stroke: #191970"/>
     <use xlink:href="#m300e6d5ef3" x="854.574545" y="481.843443" style="fill: #191970; stroke: #191970"/>
     <use xlink:href="#m300e6d5ef3" x="865.396364" y="482.338489" style="fill: #191970; stroke: #191970"/>
     <use xlink:href="#m300e6d5ef3" x="876.218182" y="482.819304" style="fill: #191970; stroke: #191970"/>
     <use xlink:href="#m300e6d5ef3" x="887.04" y="483.286393" style="fill: #191970; stroke: #191970"/>
     <use xlink:href="#m300e6d5ef3" x="897.861818" y="483.740249" style="fill: #191970; stroke: #191970"/>
     <use xlink:href="#m300e6d5ef3" x="908.683636" y="484.181347" style="fill: #191970; stroke: #191970"/>
     <use xlink:href="#m300e6d5ef3" x="919.505455" y="484.610148" style="fill: #191970; stroke: #191970"/>
     <use xlink:href="#m300e6d5ef3" x="930.327273" y="485.027097" style="fill: #191970; stroke: #191970"/>
     <use xlink:href="#m300e6d5ef3" x="941.149091" y="485.432622" style="fill: #191970; stroke: #191970"/>
     <use xlink:href="#m300e6d5ef3" x="951.970909" y="485.827136" style="fill: #191970; stroke: #191970"/>
     <use xlink:href="#m300e6d5ef3" x="962.792727" y="486.211036" style="fill: #191970; stroke: #191970"/>
     <use xlink:href="#m300e6d5ef3" x="973.614545" y="486.584703" style="fill: #191970; stroke: #191970"/>
     <use xlink:href="#m300e6d5ef3" x="984.436364" y="486.948506" style="fill: #191970; stroke: #191970"/>
     <use xlink:href="#m300e6d5ef3" x="995.258182" y="487.302795" style="fill: #191970; stroke: #191970"/>
     <use xlink:href="#m300e6d5ef3" x="1006.08" y="487.647909" style="fill: #191970; stroke: #191970"/>
     <use xlink:href="#m300e6d5ef3" x="1016.901818" y="487.984172" style="fill: #191970; stroke: #191970"/>
     <use xlink:href="#m300e6d5ef3" x="1027.723636" y="488.311896" style="fill: #191970; stroke: #191970"/>
     <use xlink:href="#m300e6d5ef3" x="1038.545455" y="488.631378" style="fill: #191970; stroke: #191970"/>
     <use xlink:href="#m300e6d5ef3" x="1049.367273" y="488.942906" style="fill: #191970; stroke: #191970"/>
     <use xlink:href="#m300e6d5ef3" x="1060.189091" y="489.246754" style="fill: #191970; stroke: #191970"/>
     <use xlink:href="#m300e6d5ef3" x="1071.010909" y="489.543185" style="fill: #191970; stroke: #191970"/>
     <use xlink:href="#m300e6d5ef3" x="1081.832727" y="489.832452" style="fill: #191970; stroke: #191970"/>
     <use xlink:href="#m300e6d5ef3" x="1092.654545" y="490.114797" style="fill: #191970; stroke: #191970"/>
     <use xlink:href="#m300e6d5ef3" x="1103.476364" y="490.390451" style="fill: #191970; stroke: #191970"/>
     <use xlink:href="#m300e6d5ef3" x="1114.298182" y="490.659639" style="fill: #191970; stroke: #191970"/>
     <use xlink:href="#m300e6d5ef3" x="1125.12" y="490.922573" style="fill: #191970; stroke: #191970"/>
     <use xlink:href="#m300e6d5ef3" x="1135.941818" y="491.179458" style="fill: #191970; stroke: #191970"/>
     <use xlink:href="#m300e6d5ef3" x="1146.763636" y="491.430492" style="fill: #191970; stroke: #191970"/>
     <use xlink:href="#m300e6d5ef3" x="1157.585455" y="491.675864" style="fill: #191970; stroke: #191970"/>
     <use xlink:href="#m300e6d5ef3" x="1168.407273" y="491.915754" style="fill: #191970; stroke: #191970"/>
     <use xlink:href="#m300e6d5ef3" x="1179.229091" y="492.150337" style="fill: #191970; stroke: #191970"/>
     <use xlink:href="#m300e6d5ef3" x="1190.050909" y="492.37978" style="fill: #191970; stroke: #191970"/>
     <use xlink:href="#m300e6d5ef3" x="1200.872727" y="492.604244" style="fill: #191970; stroke: #191970"/>
     <use xlink:href="#m300e6d5ef3" x="1211.694545" y="492.823883" style="fill: #191970; stroke: #191970"/>
     <use xlink:href="#m300e6d5ef3" x="1222.516364" y="493.038846" style="fill: #191970; stroke: #191970"/>
     <use xlink:href="#m300e6d5ef3" x="1233.338182" y="493.249274" style="fill: #191970; stroke: #191970"/>
     <use xlink:href="#m300e6d5ef3" x="1244.16" y="493.455306" style="fill: #191970; stroke: #191970"/>
    </g>
   </g>
   <g id="patch_3">
    <path d="M 172.8 619.6536 
L 172.8 83.5488 
" style="fill: none; stroke: #000000; stroke-width: 0.8; stroke-linejoin: miter; stroke-linecap: square"/>
   </g>
   <g id="patch_4">
    <path d="M 1244.16 619.6536 
L 1244.16 83.5488 
" style="fill: none; stroke: #000000; stroke-width: 0.8; stroke-linejoin: miter; stroke-linecap: square"/>
   </g>
   <g id="patch_5">
    <path d="M 172.8 619.6536 
L 1244.16 619.6536 
" style="fill: none; stroke: #000000; stroke-width: 0.8; stroke-linejoin: miter; stroke-linecap: square"/>
   </g>
   <g id="patch_6">
    <path d="M 172.8 83.5488 
L 1244.16 83.5488 
" style="fill: none; stroke: #000000; stroke-width: 0.8; stroke-linejoin: miter; stroke-linecap: square"/>
   </g>
   <g id="legend_1">
    <g id="patch_7">
     <path d="M 1154.238125 120.90505 
L 1237.16 120.90505 
Q 1239.16 120.90505 1239.16 118.90505 
L 1239.16 90.5488 
Q 1239.16 88.5488 1237.16 88.5488 
L 1154.238125 88.5488 
Q 1152.238125 88.5488 1152.238125 90.5488 
L 1152.238125 118.90505 
Q 1152.238125 120.90505 1154.238125 120.90505 
z
" style="fill: #ffffff; opacity: 0.8; stroke: #cccccc; stroke-linejoin: miter"/>
    </g>
    <g id="line2d_27">
     <path d="M 1156.238125 96.647238 
L 1166.238125 96.647238 
L 1176.238125 96.647238 
" style="fill: none; stroke: #1e90ff; stroke-width: 1.5; stroke-linecap: square"/>
     <g>
      <use xlink:href="#mebe814236a" x="1166.238125" y="96.647238" style="fill: #1e90ff; stroke: #1e90ff"/>
     </g>
    </g>
    <g id="text_15">
     <!-- sensitivity -->
     <g transform="translate(1184.238125 100.147238)scale(0.1 -0.1)">
      <use xlink:href="#DejaVuSans-73"/>
      <use xlink:href="#DejaVuSans-65" x="52.099609"/>
      <use xlink:href="#DejaVuSans-6e" x="113.623047"/>
      <use xlink:href="#DejaVuSans-73" x="177.001953"/>
      <use xlink:href="#DejaVuSans-69" x="229.101562"/>
      <use xlink:href="#DejaVuSans-74" x="256.884766"/>
      <use xlink:href="#DejaVuSans-69" x="296.09375"/>
      <use xlink:href="#DejaVuSans-76" x="323.876953"/>
      <use xlink:href="#DejaVuSans-69" x="383.056641"/>
      <use xlink:href="#DejaVuSans-74" x="410.839844"/>
      <use xlink:href="#DejaVuSans-79" x="450.048828"/>
     </g>
    </g>
    <g id="line2d_28">
     <path d="M 1156.238125 111.325363 
L 1166.238125 111.325363 
L 1176.238125 111.325363 
" style="fill: none; stroke: #191970; stroke-width: 1.5; stroke-linecap: square"/>
     <g>
      <use xlink:href="#m300e6d5ef3" x="1166.238125" y="111.325363" style="fill: #191970; stroke: #191970"/>
     </g>
    </g>
    <g id="text_16">
     <!-- elasticity -->
     <g transform="translate(1184.238125 114.825363)scale(0.1 -0.1)">
      <use xlink:href="#DejaVuSans-65"/>
      <use xlink:href="#DejaVuSans-6c" x="61.523438"/>
      <use xlink:href="#DejaVuSans-61" x="89.306641"/>
      <use xlink:href="#DejaVuSans-73" x="150.585938"/>
      <use xlink:href="#DejaVuSans-74" x="202.685547"/>
      <use xlink:href="#DejaVuSans-69" x="241.894531"/>
      <use xlink:href="#DejaVuSans-63" x="269.677734"/>
      <use xlink:href="#DejaVuSans-69" x="324.658203"/>
      <use xlink:href="#DejaVuSans-74" x="352.441406"/>
      <use xlink:href="#DejaVuSans-79" x="391.650391"/>
     </g>
    </g>
   </g>
  </g>
 </g>
 <defs>
  <clipPath id="p38ab6df9e7">
   <rect x="172.8" y="83.5488" width="1071.36" height="536.1048"/>
  </clipPath>
 </defs>
</svg>
